<?xml version="1.0" encoding="UTF-8"?><svg id="a" xmlns="http://www.w3.org/2000/svg" viewBox="0 0 1920 566.41"><defs><style>.b{fill:#1d3058;}.c{fill:#e63847;}</style></defs><path class="b" d="M748.86,210.52l24.82,26.22-40.8,36.3-26.68-28.08c-17.38,8.53-37.23,13.5-58.18,13.5-71.36,0-129.23-56.16-129.23-129.23S576.65,0,648.02,0s129.23,56.16,129.23,129.23c0,31.34-10.55,59.26-28.39,81.29Zm-83.46-9.15l-35.84-38.01,40.8-36.3,39.72,42.2c6.36-11.33,10.24-24.82,10.24-40.18,0-44.37-31.96-73.85-72.45-73.85s-72.45,29.48-72.45,73.85,31.96,73.85,72.45,73.85c6.21,.16,11.95-.47,17.53-1.55Z"/><path class="b" d="M807.65,173.29V4.96h56.78V168.33c0,18.77,8.84,34.75,39.1,34.75s39.1-15.98,39.1-34.75V4.96h56.78V173.29c0,53.37-41.27,85.17-95.88,85.17s-95.88-31.96-95.88-85.17Z"/><path class="b" d="M1196.59,198.89v54.61h-156.22V4.96h154.52V59.57h-97.58v41.27h88.74v53.99h-88.74v44.06h99.29Z"/><path class="b" d="M1374.22,198.89v54.61h-145.52V4.96h56.78V198.89h88.74Z"/><path class="b" d="M749.63,437.18c0,70.28-52.28,124.27-120.7,124.27h-99.44v-248.53h99.44c68.42,0,120.7,53.99,120.7,124.27Zm-54.76,0c0-42.66-26.99-69.66-66.09-69.66h-42.66v139.16h42.66c39.1,.16,66.09-26.84,66.09-69.5Z"/><path class="b" d="M1151.13,398.09c0,47.16-38.01,85.17-87.03,85.17h-37.23v78.19h-56.78v-248.53h94.17c48.87,0,86.88,38.01,86.88,85.17Zm-56.78,0c0-18.15-12.72-31.96-30.25-31.96h-37.23v63.92h37.23c17.38,0,30.25-13.81,30.25-31.96Z"/><path class="b" d="M1177.82,481.24v-168.33h56.78v163.36c0,18.77,8.84,34.75,39.09,34.75s39.09-15.98,39.09-34.75v-163.36h56.78v168.33c0,53.21-41.27,85.17-95.88,85.17-54.61,0-95.88-31.96-95.88-85.17Z"/><path class="b" d="M1577.45,367.52h-63.92v193.92h-56.78v-193.92h-63.92v-54.61h184.62v54.61h0Z"/><rect class="b" x="839.3" y="282.2" width="115.11" height="39.1"/><g><rect class="b" x="839.3" y="312.92" width="96.81" height="8.38"/><polygon class="b" points="838.53 462.78 927.27 462.78 927.27 408.79 838.53 408.79 838.53 367.52 936.11 367.52 936.11 327.19 839.3 327.19 833.25 327.19 833.25 321.29 833.25 312.92 781.75 312.92 781.75 561.45 937.97 561.45 937.97 506.84 838.53 506.84 838.53 462.78"/></g><rect class="b" x="1659.52" y="293.37" width="115.11" height="39.1"/><g><rect class="b" x="1659.52" y="312.92" width="97.27" height="19.55"/><polygon class="b" points="1659.21 462.78 1747.95 462.78 1747.95 408.79 1659.21 408.79 1659.21 367.52 1756.79 367.52 1756.79 338.36 1659.52 338.36 1653.47 338.36 1653.47 332.46 1653.47 312.92 1602.43 312.92 1602.43 561.45 1758.66 561.45 1758.66 506.84 1659.21 506.84 1659.21 462.78"/></g><g><path class="c" d="M1782.39,551.05c0-8.07,6.05-13.34,13.34-13.34s11.79,4.65,11.79,11.48c0,8.07-6.21,13.34-13.34,13.34-6.83-.16-11.79-4.96-11.79-11.48Z"/><path class="c" d="M1849.1,502.96l-.16,1.24h14.12l-3.1,15.51h-13.5l-8.38,41.73h-20.79l8.38-41.73h-8.84l3.26-15.51h8.84l.47-2.48c2.79-13.65,12.1-22.81,28.08-22.81,5.58,0,10.7,1.09,14.43,3.1l-8.07,14.58c-1.71-1.09-3.88-1.71-6.21-1.71-4.81,.16-7.29,2.64-8.53,8.07Z"/><path class="c" d="M1920,500.94l-3.57,18.77c-1.86-.16-3.1-.31-4.65-.31-9.15,0-14.89,4.03-16.91,13.96l-5.74,28.08h-20.79l11.79-59.57h19.7l-1.24,6.52c5.12-5.27,12.57-7.45,21.41-7.45Z"/></g><polygon class="c" points="319.59 529.95 71.36 529.95 195.48 145.83 443.7 145.83 319.59 529.95"/><polygon class="b" points="187.56 134.97 352.94 134.97 372.33 74.93 124.11 74.93 0 459.06 82.84 459.06 187.56 134.97"/></svg>