<?xml version="1.0" encoding="UTF-8"?><svg xmlns="http://www.w3.org/2000/svg" viewBox="0 0 478.44 47.91"><defs><style>.d{fill:#04734a;}</style></defs><g id="a"/><g id="b"><g id="c"><g><rect class="d" x="80.35" width="1.33" height="47.91"/><g><path class="d" d="M114.37,31.58v3.04h-12.69V18.24h12.38v3.04h-8.61v3.56h7.61v2.95h-7.61v3.79h8.92Zm-5.76-14.68h-2.86l3.16-3.37h3.93l-4.24,3.37Z"/><path class="d" d="M116.11,28.33c0-3.79,2.93-6.48,7.02-6.48,2.65,0,4.73,1.15,5.64,3.21l-2.83,1.52c-.68-1.19-1.69-1.73-2.83-1.73-1.85,0-3.3,1.29-3.3,3.49s1.45,3.49,3.3,3.49c1.15,0,2.15-.51,2.83-1.73l2.83,1.54c-.91,2.01-3,3.18-5.64,3.18-4.1,0-7.02-2.69-7.02-6.48Z"/><path class="d" d="M129.78,28.33c0-3.79,2.93-6.48,6.93-6.48s6.91,2.69,6.91,6.48-2.9,6.48-6.91,6.48-6.93-2.69-6.93-6.48Zm10.14,0c0-2.18-1.38-3.49-3.21-3.49s-3.23,1.31-3.23,3.49,1.4,3.49,3.23,3.49,3.21-1.31,3.21-3.49Z"/><path class="d" d="M146.05,17.25h3.65v17.37h-3.65V17.25Z"/><path class="d" d="M152.16,28.33c0-3.79,2.93-6.48,6.93-6.48s6.91,2.69,6.91,6.48-2.9,6.48-6.91,6.48-6.93-2.69-6.93-6.48Zm10.14,0c0-2.18-1.38-3.49-3.21-3.49s-3.23,1.31-3.23,3.49,1.4,3.49,3.23,3.49,3.21-1.31,3.21-3.49Z"/><path class="d" d="M181.43,22.03v10.49c0,4.68-2.53,6.83-7.07,6.83-2.39,0-4.71-.58-6.18-1.73l1.45-2.62c1.08,.87,2.83,1.43,4.45,1.43,2.58,0,3.7-1.17,3.7-3.44v-.54c-.96,1.05-2.34,1.57-3.98,1.57-3.49,0-6.3-2.41-6.3-6.09s2.81-6.09,6.3-6.09c1.76,0,3.21,.59,4.17,1.8v-1.61h3.46Zm-3.6,5.9c0-1.85-1.38-3.09-3.3-3.09s-3.32,1.24-3.32,3.09,1.4,3.09,3.32,3.09,3.3-1.24,3.3-3.09Z"/><path class="d" d="M184.38,18.24c0-1.15,.91-2.04,2.27-2.04s2.27,.84,2.27,1.97c0,1.22-.91,2.11-2.27,2.11s-2.27-.89-2.27-2.04Zm.44,3.79h3.65v12.59h-3.65v-12.59Z"/><path class="d" d="M204.14,29.36h-9.53c.35,1.57,1.69,2.53,3.6,2.53,1.33,0,2.29-.4,3.16-1.22l1.94,2.11c-1.17,1.33-2.93,2.04-5.2,2.04-4.35,0-7.19-2.74-7.19-6.48s2.88-6.48,6.72-6.48,6.55,2.48,6.55,6.53c0,.28-.05,.68-.07,.98Zm-9.57-2.13h6.2c-.26-1.59-1.45-2.62-3.09-2.62s-2.86,1.01-3.11,2.62Z"/><path class="d" d="M213.53,18.24h7.44c5.36,0,9.04,3.23,9.04,8.19s-3.67,8.19-9.04,8.19h-7.44V18.24Zm7.26,13.27c3.25,0,5.38-1.94,5.38-5.08s-2.13-5.08-5.38-5.08h-3.46v10.16h3.46Z"/><path class="d" d="M244.88,29.36h-9.53c.35,1.57,1.69,2.53,3.6,2.53,1.33,0,2.29-.4,3.16-1.22l1.94,2.11c-1.17,1.33-2.93,2.04-5.2,2.04-4.35,0-7.19-2.74-7.19-6.48s2.88-6.48,6.72-6.48,6.55,2.48,6.55,6.53c0,.28-.05,.68-.07,.98Zm-9.57-2.13h6.2c-.26-1.59-1.45-2.62-3.09-2.62s-2.86,1.01-3.11,2.62Zm3.75-6.81h-2.86l3.16-3.37h3.93l-4.24,3.37Z"/><path class="d" d="M268.66,27.41v7.21h-3.65v-6.65c0-2.04-.91-2.97-2.39-2.97-1.64,0-2.79,1.05-2.79,3.3v6.32h-3.65v-6.65c0-2.04-.87-2.97-2.39-2.97-1.61,0-2.76,1.05-2.76,3.3v6.32h-3.65v-12.59h3.49v1.45c.94-1.08,2.34-1.64,3.96-1.64,1.75,0,3.25,.68,4.14,2.06,1.01-1.29,2.65-2.06,4.54-2.06,3,0,5.15,1.73,5.15,5.57Z"/><path class="d" d="M271.15,28.33c0-3.79,2.93-6.48,6.93-6.48s6.91,2.69,6.91,6.48-2.9,6.48-6.91,6.48-6.93-2.69-6.93-6.48Zm10.13,0c0-2.18-1.38-3.49-3.21-3.49s-3.23,1.31-3.23,3.49,1.4,3.49,3.23,3.49,3.21-1.31,3.21-3.49Z"/><path class="d" d="M286.48,28.33c0-3.79,2.93-6.48,7.02-6.48,2.64,0,4.73,1.15,5.64,3.21l-2.83,1.52c-.68-1.19-1.69-1.73-2.83-1.73-1.85,0-3.3,1.29-3.3,3.49s1.45,3.49,3.3,3.49c1.15,0,2.15-.51,2.83-1.73l2.83,1.54c-.91,2.01-3,3.18-5.64,3.18-4.1,0-7.02-2.69-7.02-6.48Z"/><path class="d" d="M309.07,21.84v3.37c-.3-.02-.54-.05-.82-.05-2.01,0-3.35,1.1-3.35,3.51v5.95h-3.65v-12.59h3.49v1.66c.89-1.22,2.39-1.85,4.33-1.85Z"/><path class="d" d="M322.33,27.44v7.19h-3.42v-1.57c-.68,1.15-1.99,1.76-3.84,1.76-2.95,0-4.71-1.64-4.71-3.81s1.57-3.77,5.41-3.77h2.9c0-1.57-.94-2.48-2.9-2.48-1.33,0-2.72,.44-3.63,1.17l-1.31-2.55c1.38-.98,3.42-1.52,5.43-1.52,3.84,0,6.06,1.78,6.06,5.59Zm-3.65,3.21v-1.29h-2.5c-1.71,0-2.25,.63-2.25,1.47,0,.91,.77,1.52,2.06,1.52,1.22,0,2.27-.56,2.69-1.71Z"/><path class="d" d="M333.75,34.01c-.75,.54-1.85,.8-2.97,.8-2.97,0-4.71-1.52-4.71-4.52v-5.17h-1.94v-2.81h1.94v-3.07h3.65v3.07h3.14v2.81h-3.14v5.13c0,1.08,.59,1.66,1.57,1.66,.54,0,1.08-.16,1.47-.47l.98,2.57Z"/><path class="d" d="M335.37,18.24c0-1.15,.91-2.04,2.27-2.04s2.27,.84,2.27,1.97c0,1.22-.91,2.11-2.27,2.11s-2.27-.89-2.27-2.04Zm.45,3.79h3.65v12.59h-3.65v-12.59Z"/><path class="d" d="M355.13,29.36h-9.53c.35,1.57,1.69,2.53,3.6,2.53,1.33,0,2.29-.4,3.16-1.22l1.94,2.11c-1.17,1.33-2.93,2.04-5.2,2.04-4.35,0-7.19-2.74-7.19-6.48s2.88-6.48,6.72-6.48,6.55,2.48,6.55,6.53c0,.28-.05,.68-.07,.98Zm-9.57-2.13h6.2c-.26-1.59-1.45-2.62-3.09-2.62s-2.86,1.01-3.11,2.62Z"/><path class="d" d="M363.23,33.01l1.29-2.86c1.38,1.01,3.44,1.71,5.41,1.71,2.25,0,3.16-.75,3.16-1.76,0-3.07-9.53-.96-9.53-7.05,0-2.79,2.25-5.1,6.9-5.1,2.06,0,4.17,.49,5.69,1.45l-1.17,2.88c-1.52-.87-3.09-1.29-4.54-1.29-2.25,0-3.11,.84-3.11,1.87,0,3.02,9.53,.94,9.53,6.95,0,2.74-2.27,5.08-6.95,5.08-2.6,0-5.22-.77-6.67-1.9Z"/><path class="d" d="M378.26,28.33c0-3.79,2.93-6.48,6.93-6.48s6.91,2.69,6.91,6.48-2.9,6.48-6.91,6.48-6.93-2.69-6.93-6.48Zm10.13,0c0-2.18-1.38-3.49-3.21-3.49s-3.23,1.31-3.23,3.49,1.4,3.49,3.23,3.49,3.21-1.31,3.21-3.49Z"/><path class="d" d="M394.53,17.25h3.65v17.37h-3.65V17.25Z"/><path class="d" d="M401.14,18.24c0-1.15,.91-2.04,2.27-2.04s2.27,.84,2.27,1.97c0,1.22-.91,2.11-2.27,2.11s-2.27-.89-2.27-2.04Zm.45,3.79h3.65v12.59h-3.65v-12.59Z"/><path class="d" d="M421.46,17.25v17.37h-3.49v-1.45c-.91,1.1-2.25,1.64-3.93,1.64-3.56,0-6.3-2.53-6.3-6.48s2.74-6.48,6.3-6.48c1.54,0,2.86,.49,3.77,1.52v-6.11h3.65Zm-3.58,11.07c0-2.18-1.4-3.49-3.21-3.49s-3.23,1.31-3.23,3.49,1.4,3.49,3.23,3.49,3.21-1.31,3.21-3.49Z"/><path class="d" d="M435.97,27.44v7.19h-3.42v-1.57c-.68,1.15-1.99,1.76-3.84,1.76-2.95,0-4.71-1.64-4.71-3.81s1.57-3.77,5.41-3.77h2.9c0-1.57-.94-2.48-2.9-2.48-1.33,0-2.72,.44-3.63,1.17l-1.31-2.55c1.38-.98,3.42-1.52,5.43-1.52,3.84,0,6.06,1.78,6.06,5.59Zm-3.65,3.21v-1.29h-2.5c-1.71,0-2.25,.63-2.25,1.47,0,.91,.77,1.52,2.06,1.52,1.22,0,2.27-.56,2.69-1.71Z"/><path class="d" d="M447.09,21.84v3.37c-.3-.02-.54-.05-.82-.05-2.01,0-3.35,1.1-3.35,3.51v5.95h-3.65v-12.59h3.49v1.66c.89-1.22,2.39-1.85,4.33-1.85Z"/><path class="d" d="M448.83,18.24c0-1.15,.91-2.04,2.27-2.04s2.27,.84,2.27,1.97c0,1.22-.91,2.11-2.27,2.11s-2.27-.89-2.27-2.04Zm.45,3.79h3.65v12.59h-3.65v-12.59Z"/><path class="d" d="M464.44,34.01c-.75,.54-1.85,.8-2.97,.8-2.97,0-4.71-1.52-4.71-4.52v-5.17h-1.94v-2.81h1.94v-3.07h3.65v3.07h3.14v2.81h-3.14v5.13c0,1.08,.58,1.66,1.57,1.66,.54,0,1.08-.16,1.47-.47l.98,2.57Z"/><path class="d" d="M478.37,29.36h-9.53c.35,1.57,1.69,2.53,3.6,2.53,1.33,0,2.29-.4,3.16-1.22l1.94,2.11c-1.17,1.33-2.93,2.04-5.2,2.04-4.35,0-7.19-2.74-7.19-6.48s2.88-6.48,6.72-6.48,6.55,2.48,6.55,6.53c0,.28-.05,.68-.07,.98Zm-9.57-2.13h6.2c-.26-1.59-1.45-2.62-3.09-2.62s-2.86,1.01-3.11,2.62Zm3.75-6.81h-2.86l3.16-3.37h3.93l-4.24,3.37Z"/></g><g><g><path class="d" d="M16.52,12.4h2.27v1.5h-2.27v3.09h2.86v1.5h-4.51V7.96h4.51v1.51h-2.86v2.93Zm2.36-6.67l-1.54,1.67h-1.11l1.02-1.67h1.63Z"/><path class="d" d="M25.21,14.57v1.4c0,1.69-.84,2.65-2.47,2.65s-2.47-.96-2.47-2.65v-5.48c0-1.69,.84-2.65,2.47-2.65s2.47,.96,2.47,2.65v1.02h-1.57v-1.13c0-.75-.33-1.04-.86-1.04s-.86,.29-.86,1.04v5.69c0,.75,.33,1.02,.86,1.02s.86-.27,.86-1.02v-1.5h1.57Z"/><path class="d" d="M26.08,10.49c0-1.69,.89-2.65,2.51-2.65s2.51,.96,2.51,2.65v5.48c0,1.69-.89,2.65-2.51,2.65s-2.51-.96-2.51-2.65v-5.48Zm1.66,5.58c0,.75,.33,1.04,.86,1.04s.86-.29,.86-1.04v-5.69c0-.75-.33-1.04-.86-1.04s-.86,.29-.86,1.04v5.69Z"/><path class="d" d="M32.18,7.96h1.65v9.03h2.72v1.5h-4.38V7.96Z"/><path class="d" d="M37.15,10.49c0-1.69,.89-2.65,2.51-2.65s2.51,.96,2.51,2.65v5.48c0,1.69-.89,2.65-2.51,2.65s-2.51-.96-2.51-2.65v-5.48Zm1.66,5.58c0,.75,.33,1.04,.86,1.04s.86-.29,.86-1.04v-5.69c0-.75-.33-1.04-.86-1.04s-.86,.29-.86,1.04v5.69Z"/><path class="d" d="M45.73,12.63h2.32v3.34c0,1.69-.84,2.65-2.47,2.65s-2.47-.96-2.47-2.65v-5.48c0-1.69,.84-2.65,2.47-2.65s2.47,.96,2.47,2.65v1.02h-1.57v-1.13c0-.75-.33-1.04-.86-1.04s-.86,.29-.86,1.04v5.69c0,.75,.33,1.02,.86,1.02s.86-.27,.86-1.02v-1.94h-.75v-1.5Z"/><path class="d" d="M49.12,7.96h1.66v10.53h-1.66V7.96Z"/><path class="d" d="M53.63,12.4h2.27v1.5h-2.27v3.09h2.86v1.5h-4.51V7.96h4.51v1.51h-2.86v2.93Z"/></g><g><path class="d" d="M0,19.48H2.62c1.66,0,2.47,.92,2.47,2.6v5.33c0,1.69-.81,2.6-2.47,2.6H0v-10.53Zm1.65,1.51v7.52h.93c.53,0,.84-.27,.84-1.02v-5.48c0-.75-.32-1.02-.84-1.02h-.93Z"/><path class="d" d="M7.8,23.91h2.27v1.5h-2.27v3.09h2.86v1.5H6.14v-10.53h4.51v1.51h-2.86v2.93Zm2.36-6.67l-1.54,1.67h-1.11l1.02-1.67h1.63Z"/><path class="d" d="M15.19,26.95l1.13-7.48h2.3v10.53h-1.57v-7.55l-1.14,7.55h-1.57l-1.23-7.45v7.45h-1.44v-10.53h2.3l1.22,7.48Z"/><path class="d" d="M19.69,22c0-1.69,.89-2.65,2.51-2.65s2.51,.96,2.51,2.65v5.48c0,1.69-.89,2.65-2.51,2.65s-2.51-.96-2.51-2.65v-5.48Zm1.66,5.58c0,.75,.33,1.04,.86,1.04s.86-.29,.86-1.04v-5.69c0-.75-.33-1.04-.86-1.04s-.86,.29-.86,1.04v5.69Z"/><path class="d" d="M30.59,26.08v1.4c0,1.69-.84,2.65-2.47,2.65s-2.47-.96-2.47-2.65v-5.48c0-1.69,.84-2.65,2.47-2.65s2.47,.96,2.47,2.65v1.02h-1.57v-1.13c0-.75-.33-1.04-.86-1.04s-.86,.29-.86,1.04v5.69c0,.75,.33,1.02,.86,1.02s.86-.27,.86-1.02v-1.5h1.57Z"/><path class="d" d="M35.06,30.01c-.09-.27-.15-.44-.15-1.29v-1.66c0-.98-.33-1.34-1.08-1.34h-.57v4.29h-1.65v-10.53h2.5c1.72,0,2.45,.8,2.45,2.42v.83c0,1.08-.35,1.79-1.08,2.14,.83,.35,1.1,1.14,1.1,2.24v1.63c0,.51,.02,.89,.18,1.28h-1.69Zm-1.81-9.03v3.23h.65c.62,0,.99-.27,.99-1.11v-1.04c0-.75-.26-1.08-.84-1.08h-.8Z"/><path class="d" d="M43.01,30.01h-1.67l-.29-1.91h-2.03l-.29,1.91h-1.52l1.69-10.53h2.42l1.69,10.53Zm-3.78-3.34h1.59l-.8-5.33-.8,5.33Z"/><path class="d" d="M42.73,19.48h5.12v1.51h-1.73v9.03h-1.66v-9.03h-1.73v-1.51Z"/><path class="d" d="M48.57,19.48h1.66v10.53h-1.66v-10.53Z"/><path class="d" d="M53.08,23.91h2.27v1.5h-2.27v3.09h2.86v1.5h-4.51v-10.53h4.51v1.51h-2.86v2.93Z"/></g><g><path class="d" d="M11.98,30.63c1.61,0,2.44,.96,2.44,2.65v.33h-1.57v-.44c0-.75-.3-1.04-.83-1.04s-.83,.29-.83,1.04c0,2.17,3.23,2.57,3.23,5.58,0,1.69-.84,2.65-2.47,2.65s-2.47-.96-2.47-2.65v-.65h1.56v.75c0,.75,.33,1.02,.86,1.02s.86-.27,.86-1.02c0-2.17-3.24-2.57-3.24-5.58,0-1.69,.83-2.65,2.44-2.65Z"/><path class="d" d="M15.25,33.28c0-1.69,.89-2.65,2.51-2.65s2.51,.96,2.51,2.65v5.48c0,1.69-.89,2.65-2.51,2.65s-2.51-.96-2.51-2.65v-5.48Zm1.66,5.58c0,.75,.33,1.04,.86,1.04s.86-.29,.86-1.04v-5.69c0-.75-.33-1.04-.86-1.04s-.86,.29-.86,1.04v5.69Z"/><path class="d" d="M21.35,30.75h1.66v9.03h2.72v1.5h-4.38v-10.53Z"/><path class="d" d="M26.45,30.75h1.65v10.53h-1.65v-10.53Z"/><path class="d" d="M29.31,30.75h2.62c1.66,0,2.47,.92,2.47,2.6v5.33c0,1.69-.81,2.6-2.47,2.6h-2.62v-10.53Zm1.66,1.51v7.52h.93c.53,0,.84-.27,.84-1.02v-5.48c0-.75-.32-1.02-.84-1.02h-.93Z"/><path class="d" d="M40.8,41.29h-1.67l-.29-1.91h-2.03l-.29,1.91h-1.52l1.69-10.53h2.42l1.69,10.53Zm-3.78-3.34h1.59l-.8-5.33-.8,5.33Z"/><path class="d" d="M45.03,41.29c-.09-.27-.15-.44-.15-1.29v-1.66c0-.98-.33-1.34-1.08-1.34h-.57v4.29h-1.65v-10.53h2.5c1.72,0,2.45,.8,2.45,2.42v.83c0,1.08-.35,1.79-1.08,2.14,.83,.35,1.1,1.14,1.1,2.24v1.63c0,.51,.02,.89,.18,1.28h-1.69Zm-1.81-9.03v3.23h.65c.62,0,.99-.27,.99-1.11v-1.04c0-.75-.26-1.08-.84-1.08h-.8Z"/><path class="d" d="M47.62,30.75h1.66v10.53h-1.66v-10.53Z"/><path class="d" d="M50,30.75h5.12v1.51h-1.73v9.03h-1.66v-9.03h-1.73v-1.51Z"/><path class="d" d="M57.49,35.19h2.27v1.5h-2.27v3.09h2.86v1.5h-4.51v-10.53h4.51v1.51h-2.86v2.93Zm2.36-6.67l-1.54,1.67h-1.11l1.02-1.67h1.63Z"/></g></g></g></g></g></svg>