<?xml version="1.0" encoding="UTF-8"?><svg xmlns="http://www.w3.org/2000/svg" viewBox="0 0 328.29 47.94"><defs><style>.e{fill:#c84729;}</style></defs><g id="a"/><g id="b"><g id="c"><g><rect class="e" x="57.28" width="1.33" height="47.91"/><g><path class="e" d="M78.62,18.24h3.79v13.29h8.22v3.09h-12.01V18.24Z"/><path class="e" d="M103.78,27.44v7.19h-3.42v-1.57c-.68,1.15-1.99,1.76-3.84,1.76-2.95,0-4.7-1.64-4.7-3.81s1.57-3.77,5.41-3.77h2.9c0-1.57-.94-2.48-2.9-2.48-1.33,0-2.71,.44-3.63,1.17l-1.31-2.55c1.38-.98,3.42-1.52,5.43-1.52,3.84,0,6.06,1.78,6.06,5.59Zm-3.65,3.21v-1.29h-2.5c-1.71,0-2.25,.63-2.25,1.47,0,.91,.77,1.52,2.06,1.52,1.22,0,2.27-.56,2.69-1.71Z"/><path class="e" d="M117.76,21.28v4.33h7.58v3.04h-7.58v5.97h-3.79V18.24h12.38v3.04h-8.59Z"/><path class="e" d="M136.26,21.84v3.37c-.3-.02-.54-.05-.82-.05-2.01,0-3.35,1.1-3.35,3.51v5.95h-3.65v-12.59h3.49v1.66c.89-1.22,2.39-1.85,4.33-1.85Z"/><path class="e" d="M149.51,27.44v7.19h-3.42v-1.57c-.68,1.15-1.99,1.76-3.84,1.76-2.95,0-4.7-1.64-4.7-3.81s1.57-3.77,5.41-3.77h2.9c0-1.57-.94-2.48-2.9-2.48-1.33,0-2.71,.44-3.63,1.17l-1.31-2.55c1.38-.98,3.42-1.52,5.43-1.52,3.84,0,6.06,1.78,6.06,5.59Zm-3.65,3.21v-1.29h-2.5c-1.71,0-2.25,.63-2.25,1.47,0,.91,.77,1.52,2.06,1.52,1.22,0,2.27-.56,2.69-1.71Z"/><path class="e" d="M165.68,27.41v7.21h-3.65v-6.65c0-2.04-.94-2.97-2.55-2.97-1.76,0-3.02,1.08-3.02,3.39v6.23h-3.65v-12.59h3.49v1.47c.98-1.08,2.46-1.66,4.17-1.66,2.97,0,5.22,1.73,5.22,5.57Z"/><path class="e" d="M168.19,28.33c0-3.79,2.93-6.48,7.02-6.48,2.65,0,4.73,1.15,5.64,3.21l-2.83,1.52c-.68-1.19-1.69-1.73-2.83-1.73-1.85,0-3.3,1.29-3.3,3.49s1.45,3.49,3.3,3.49c1.15,0,2.15-.51,2.83-1.73l2.83,1.54c-.91,2.01-3,3.18-5.64,3.18-4.1,0-7.02-2.69-7.02-6.48Z"/><path class="e" d="M195.07,29.36h-9.53c.35,1.57,1.69,2.53,3.6,2.53,1.33,0,2.29-.4,3.16-1.22l1.94,2.11c-1.17,1.33-2.93,2.04-5.2,2.04-4.35,0-7.19-2.74-7.19-6.48s2.88-6.48,6.72-6.48,6.55,2.48,6.55,6.53c0,.28-.05,.68-.07,.98Zm-9.57-2.13h6.2c-.26-1.59-1.45-2.62-3.09-2.62s-2.86,1.01-3.11,2.62Z"/><path class="e" d="M204.46,18.24h3.79v16.38h-3.79V18.24Z"/><path class="e" d="M224.76,27.41v7.21h-3.65v-6.65c0-2.04-.94-2.97-2.55-2.97-1.76,0-3.02,1.08-3.02,3.39v6.23h-3.65v-12.59h3.49v1.47c.98-1.08,2.46-1.66,4.17-1.66,2.97,0,5.22,1.73,5.22,5.57Z"/><path class="e" d="M226.84,33.45l1.22-2.62c1.12,.73,2.83,1.22,4.38,1.22,1.68,0,2.32-.44,2.32-1.15,0-2.06-7.61,.05-7.61-4.99,0-2.39,2.15-4.07,5.83-4.07,1.73,0,3.65,.4,4.84,1.1l-1.22,2.6c-1.24-.7-2.48-.94-3.63-.94-1.64,0-2.34,.51-2.34,1.17,0,2.15,7.61,.07,7.61,5.03,0,2.34-2.18,4-5.95,4-2.13,0-4.28-.58-5.45-1.36Z"/><path class="e" d="M239.56,28.33c0-3.79,2.93-6.48,6.93-6.48s6.91,2.69,6.91,6.48-2.9,6.48-6.91,6.48-6.93-2.69-6.93-6.48Zm10.13,0c0-2.18-1.38-3.49-3.21-3.49s-3.23,1.31-3.23,3.49,1.4,3.49,3.23,3.49,3.21-1.31,3.21-3.49Z"/><path class="e" d="M268.51,22.03v12.59h-3.46v-1.5c-.96,1.1-2.36,1.69-3.91,1.69-3.16,0-5.38-1.78-5.38-5.66v-7.12h3.65v6.58c0,2.11,.94,3.04,2.55,3.04s2.9-1.08,2.9-3.39v-6.23h3.65Z"/><path class="e" d="M293.19,27.41v7.21h-3.65v-6.65c0-2.04-.91-2.97-2.39-2.97-1.64,0-2.79,1.05-2.79,3.3v6.32h-3.65v-6.65c0-2.04-.87-2.97-2.39-2.97-1.62,0-2.76,1.05-2.76,3.3v6.32h-3.65v-12.59h3.49v1.45c.94-1.08,2.34-1.64,3.96-1.64,1.75,0,3.25,.68,4.14,2.06,1.01-1.29,2.65-2.06,4.54-2.06,3,0,5.15,1.73,5.15,5.57Z"/><path class="e" d="M296.03,18.24c0-1.15,.91-2.04,2.27-2.04s2.27,.84,2.27,1.97c0,1.22-.91,2.11-2.27,2.11s-2.27-.89-2.27-2.04Zm.45,3.79h3.65v12.59h-3.65v-12.59Z"/><path class="e" d="M302.3,33.45l1.22-2.62c1.12,.73,2.83,1.22,4.38,1.22,1.69,0,2.32-.44,2.32-1.15,0-2.06-7.61,.05-7.61-4.99,0-2.39,2.15-4.07,5.83-4.07,1.73,0,3.65,.4,4.85,1.1l-1.22,2.6c-1.24-.7-2.48-.94-3.63-.94-1.64,0-2.34,.51-2.34,1.17,0,2.15,7.61,.07,7.61,5.03,0,2.34-2.18,4-5.95,4-2.13,0-4.28-.58-5.45-1.36Z"/><path class="e" d="M328.22,29.36h-9.53c.35,1.57,1.69,2.53,3.6,2.53,1.33,0,2.29-.4,3.16-1.22l1.94,2.11c-1.17,1.33-2.93,2.04-5.2,2.04-4.35,0-7.19-2.74-7.19-6.48s2.88-6.48,6.72-6.48,6.55,2.48,6.55,6.53c0,.28-.05,.68-.07,.98Zm-9.57-2.13h6.2c-.26-1.59-1.45-2.62-3.09-2.62s-2.86,1.01-3.11,2.62Z"/></g><path id="d" class="e" d="M16.81,47.83c-.85-.27-1.42-.93-1.76-2.05-.58-1.89-1.18-5.37-1.39-8.1l-.07-.98-1.09-.37C4.56,33.61-.66,25.67,.07,17.41c.08-.86,.24-2.01,.36-2.56C2.01,7.72,7.54,2.21,14.68,.67c2.27-.49,3.78-.24,4.79,.79,1.61,1.64,1.12,4.05-1.45,7.11-1.47,1.76-2.08,2.18-3.12,2.18-1.95,0-3.18-2.24-2.14-3.87,.09-.14,.12-.26,.08-.26-.05,0-.51,.25-1.03,.56-3.64,2.16-5.97,5.63-6.57,9.75-.21,1.43-.08,3.81,.27,5.18,.85,3.29,2.91,6.15,5.72,7.97,.7,.45,2.17,1.21,2.22,1.15,.01-.01,.08-.98,.16-2.15,.51-7.95,2.43-15.01,5.18-19.04,3.03-4.43,7.4-6.04,11.79-4.35,3.13,1.21,5.4,4.41,6.45,9.07,.23,1.03,.26,1.48,.26,3.53,0,2.67-.17,3.69-.97,6.09-2.43,7.29-8.97,12.41-16.48,12.91-1.24,.08-1.15-.13-.89,1.96,.21,1.74,.54,3.42,.91,4.78,.32,1.16,.35,1.5,.16,2.13-.39,1.3-1.88,2.07-3.21,1.65h0Zm4.31-15.83c3.28-.62,6.25-2.5,8.29-5.26,2.1-2.85,3.14-6.5,2.78-9.77-.17-1.54-.48-2.62-1.1-3.88-.65-1.31-1.35-2.12-2.21-2.54-.57-.28-.79-.32-1.69-.32s-1.12,.04-1.69,.32c-2.92,1.43-5.32,6.91-6.38,14.52-.32,2.29-.64,7.01-.49,7.16,.09,.09,1.41-.04,2.49-.24Z"/></g></g></g></svg>