<?xml version="1.0" encoding="UTF-8" standalone="no"?>
<!-- Created with Inkscape (http://www.inkscape.org/) -->

<svg
   width="300"
   height="50"
   viewBox="0 0 79.374999 13.229167"
   version="1.1"
   id="svg12963"
   inkscape:version="1.1.2 (b8e25be833, 2022-02-05)"
   sodipodi:docname="LO.svg"
   xmlns:inkscape="http://www.inkscape.org/namespaces/inkscape"
   xmlns:sodipodi="http://sodipodi.sourceforge.net/DTD/sodipodi-0.dtd"
   xmlns="http://www.w3.org/2000/svg"
   xmlns:svg="http://www.w3.org/2000/svg">
  <sodipodi:namedview
     id="namedview12965"
     pagecolor="#ffffff"
     bordercolor="#666666"
     borderopacity="1.0"
     inkscape:pageshadow="2"
     inkscape:pageopacity="0.0"
     inkscape:pagecheckerboard="0"
     inkscape:document-units="mm"
     showgrid="false"
     width="300mm"
     units="px"
     inkscape:zoom="8.7988368"
     inkscape:cx="151.27"
     inkscape:cy="16.252148"
     inkscape:window-width="3840"
     inkscape:window-height="2066"
     inkscape:window-x="-11"
     inkscape:window-y="-11"
     inkscape:window-maximized="1"
     inkscape:current-layer="text69203" />
  <defs
     id="defs12960">
    <rect
       x="81.033439"
       y="3.1822388"
       width="213.77826"
       height="42.051013"
       id="rect20060" />
  </defs>
  <g
     inkscape:label="Calque 1"
     inkscape:groupmode="layer"
     id="layer1">
    <rect
       style="fill:#07305e;fill-opacity:1;stroke-width:0.0557007"
       id="rect3943"
       width="0.38892964"
       height="8.5779753"
       x="19.110643"
       y="2.4166808" />
    <path
       style="fill:#9c0d99;fill-opacity:1;stroke-width:0.113651"
       d="M 72.339107,25.344259 V 9.2057623 h 0.625083 0.625083 V 25.344259 41.482756 H 72.96419 72.339107 Z"
       id="path13727"
       transform="scale(0.26458333)" />
    <g
       aria-label="Parti Animaliste"
       transform="matrix(0.26458333,0,0,0.26458333,2.5259021,3.1874478)"
       id="text20058"
       style="font-size:21.3333px;white-space:pre">
      <path
         style="fill:#000000;stroke-width:0.0666183"
         d="M -0.35432337,36.777056 C -1.2237867,36.436881 -2.1219289,35.514869 -2.427157,34.64914 c -0.1923471,-0.545575 -0.1472601,-1.442039 0.096064,-1.909808 0.1149968,-0.221084 1.2416812,-1.475554 3.3506062,-3.73063 1.747543,-1.868649 3.2387156,-3.46452 3.3137231,-3.546386 L 4.4696166,25.31347 4.0727183,24.86275 C 2.2726592,22.818603 1.2996526,20.647584 0.69094691,17.317167 -0.02058087,13.424218 0.16660433,8.8152462 1.1603522,5.7588697 1.7297353,4.0076717 2.6483967,2.181792 3.8725009,0.3683424 c 3.4369528,-5.091647 8.9479731,-8.806074 15.1284661,-10.19659 0.40111,-0.09024 0.738238,-0.15512 0.749193,-0.144175 0.01094,0.01094 -0.646148,0.602105 -1.460211,1.313683 -5.675302,4.960858 -7.999381,7.517744 -9.895547,10.8868309 C 7.4317981,3.9384285 6.6495236,6.2918902 6.3108566,8.4964342 6.1294137,9.6774785 6.0581876,12.32828 6.17694,13.480081 c 0.2764056,2.680947 1.2087594,4.966791 2.6518276,6.501486 l 0.4494279,0.47796 8.0593365,-8.195228 c 4.432634,-4.5073767 8.07008,-8.2274715 8.083217,-8.2668722 0.01313,-0.0394 -1.271262,-1.3904449 -2.854215,-3.0023144 -1.58295,-1.61187 -2.8671,-2.930736 -2.85367,-2.930815 0.01345,-6.5e-5 2.332753,-0.391571 5.154045,-0.869984 l 5.129619,-0.869843 0.969086,0.997657 c 0.532998,0.548714 2.793857,2.8451 5.024135,5.103082 l 4.05505,4.1054208 -0.266318,0.2803043 C 39.632006,6.9650997 38.333426,8.3203471 36.89275,9.8225935 35.452074,11.324839 34.232432,12.598303 34.182433,12.652516 34.103773,12.7378 33.770778,12.43042 31.710592,10.370833 30.401081,9.0616988 29.296985,7.9905866 29.257046,7.9905866 c -0.03994,0 -1.343837,1.3117717 -2.897559,2.9150464 -1.553722,1.603278 -5.028353,5.188595 -7.721404,7.967372 -2.693047,2.778779 -4.903628,5.071899 -4.912403,5.095821 -0.0208,0.05674 1.234199,0.634576 2.070836,0.953461 2.851446,1.086845 5.058468,1.1663 7.771334,0.279787 0.785126,-0.256565 2.004438,-0.822766 2.661574,-1.235935 1.348608,-0.847922 2.672651,-2.160648 3.567249,-3.536754 l 0.333093,-0.51238 1.100355,-7.17e-4 1.100355,-7.18e-4 5.594795,4.894244 5.594799,4.894244 0.421833,1.051452 c 0.511314,1.274489 0.537818,1.531606 0.223332,2.166556 -0.81784,1.651231 -2.61249,2.196114 -4.042706,1.22743 C 39.703994,33.86602 38.198308,32.366985 37.134926,31.175082 35.769305,29.644408 34.85725,28.47425 33.265803,26.21101 32.371781,24.939598 31.93262,24.378512 31.832122,24.379291 c -0.0203,1.32e-4 -0.15182,0.224147 -0.292282,0.497758 -0.755855,1.472339 -2.110991,3.058546 -3.474399,4.066837 -1.783067,1.31864 -4.081846,2.226081 -6.862549,2.708988 -0.768775,0.133507 -1.086738,0.150216 -2.831281,0.14876 -1.687319,-0.0015 -2.097134,-0.02224 -2.897904,-0.147379 -2.285218,-0.357091 -4.392969,-1.065875 -6.1638904,-2.072762 -0.3282539,-0.18664 -0.621067,-0.339345 -0.6506933,-0.339345 -0.029629,0 -1.6641412,1.631709 -3.6322629,3.626024 -3.1195101,3.161025 -3.6308927,3.65225 -3.9877221,3.830558 -0.48101657,0.240368 -0.91713277,0.264972 -1.39346167,0.07861 z"
         id="path54173"
         sodipodi:nodetypes="ssssscsssssscsssscssssscsscsssssssssssscccccssssscssssssssss" />
      <path
         style="fill:#ed1b25;fill-opacity:1;stroke-width:0.113651"
         d="M 8.9767765,48.631623 C 7.8592656,48.043228 7.1032117,46.928611 7.1032117,45.869511 c 0,-0.341804 0.045264,-0.739864 0.100586,-0.884576 0.1079731,-0.282437 1.3631871,-1.684313 4.6622103,-5.20695 1.141536,-1.218911 2.100939,-2.27675 2.132006,-2.350754 0.03107,-0.074 -0.217451,-0.457576 -0.552261,-0.852385 -2.093692,-2.46888 -3.178392,-5.680573 -3.5179858,-10.416417 -0.1952463,-2.722826 0.084631,-5.694115 0.7566168,-8.032561 0.325677,-1.133325 1.378121,-3.40457 2.184827,-4.715004 3.240391,-5.2637765 8.52901,-9.1782053 14.676655,-10.8630881 0.779064,-0.2135178 1.434177,-0.3705177 1.455806,-0.3488887 0.02163,0.021629 -0.715725,0.7048918 -1.638566,1.5183617 -6.658425,5.8692973 -9.30174,9.1823541 -10.716177,13.4313501 -0.80961,2.432084 -0.94725,3.351599 -0.954588,6.377238 -0.0057,2.36464 0.02195,2.79042 0.241498,3.714231 0.302006,1.270765 0.719282,2.348422 1.293814,3.341402 0.489709,0.846379 1.434542,1.950693 1.625429,1.899788 0.104816,-0.02795 5.258028,-5.240837 14.663181,-14.83298 L 35.1004,16.032647 33.975806,14.863819 c -0.618526,-0.642855 -1.918054,-1.974331 -2.887839,-2.958836 -0.969785,-0.984505 -1.68713,-1.790659 -1.5941,-1.791452 0.09303,-7.96e-4 2.382895,-0.3776695 5.088592,-0.8375017 L 39.501906,8.439971 44.45132,13.47313 c 2.722178,2.768237 4.957879,5.060396 4.968224,5.093686 0.01034,0.03329 -1.281349,1.421842 -2.870432,3.085672 l -2.889241,3.025144 -1.884117,-1.856288 C 40.73949,21.800385 39.648273,20.737438 39.350828,20.45924 l -0.540809,-0.505816 -0.862613,0.848582 c -0.955849,0.940304 -13.308124,13.678622 -14.192908,14.636477 -0.643607,0.696761 -0.701527,0.604712 0.794201,1.262167 2.904546,1.276709 5.429553,1.509248 8.072285,0.743415 2.694366,-0.780796 4.745275,-2.190646 6.389259,-4.392147 l 0.748419,-1.002227 h 1.055955 1.055955 l 5.564673,4.858597 5.564673,4.858597 0.418474,1.079688 c 0.518193,1.33697 0.500244,1.774637 -0.106684,2.601438 -0.788311,1.073894 -2.111747,1.428984 -3.267338,0.876659 -0.505876,-0.241789 -3.33911,-3.114546 -4.578265,-4.642132 -0.493983,-0.608964 -1.570335,-2.037904 -2.391892,-3.175423 -0.821557,-1.137519 -1.54446,-2.085122 -1.60645,-2.105785 -0.06199,-0.02066 -0.416406,0.460269 -0.787591,1.068738 -0.857096,1.404999 -2.567821,3.167354 -3.834296,3.950013 -1.588714,0.981799 -3.353514,1.647866 -5.579939,2.105971 -1.728316,0.355614 -5.166059,0.330921 -7.050545,-0.05064 -1.726014,-0.349478 -3.425236,-0.933996 -4.872624,-1.676141 l -1.114481,-0.571448 -0.306161,0.267899 c -0.168389,0.147343 -1.789312,1.760952 -3.602051,3.585794 -1.81274,1.824844 -3.474891,3.423611 -3.69367,3.552815 -0.50811,0.300078 -1.0763383,0.299146 -1.6496285,-0.0027 z"
         id="path54904"
         transform="translate(-9.5467167,-12.047047)" />
      <g
         aria-label="Lutte Ouvrière"
         id="text69203"
         style="font-size:24px;line-height:1.25">
        <path
           d="M 84.957508,21.480112 V 4.6801121 h 3.888 V 18.312112 h 8.424 v 3.168 z"
           style="font-family:Montserrat;-inkscape-font-specification:Montserrat;fill:#ed1b25"
           id="path77739" />
        <path
           d="m 104.54152,21.672112 q -1.608,0 -2.88,-0.624 -1.248,-0.624 -1.944003,-1.896 -0.696,-1.296 -0.696,-3.288 V 8.5681121 h 3.744003 v 6.7439999 q 0,1.608 0.672,2.376 0.696,0.744 1.944,0.744 0.864,0 1.536,-0.36 0.672,-0.384 1.056,-1.152 0.384,-0.792 0.384,-1.968 V 8.5681121 h 3.744 V 21.480112 h -3.552 v -3.552 l 0.648,1.032 q -0.648,1.344 -1.92,2.04 -1.248,0.672 -2.736,0.672 z"
           style="font-family:Montserrat;-inkscape-font-specification:Montserrat;fill:#ed1b25"
           id="path77741" />
        <path
           d="m 120.86152,21.672112 q -2.28,0 -3.552,-1.152 -1.272,-1.176 -1.272,-3.48 V 5.7121121 h 3.744 V 16.992112 q 0,0.816 0.432,1.272 0.432,0.432 1.176,0.432 0.888,0 1.512,-0.48 l 1.008,2.64 q -0.576,0.408 -1.392,0.624 -0.792,0.192 -1.656,0.192 z m -6.816,-9.936 V 8.8561121 h 8.952 v 2.8799999 z"
           style="font-family:Montserrat;-inkscape-font-specification:Montserrat;fill:#ed1b25"
           id="path77743" />
        <path
           d="m 131.01353,21.672112 q -2.28,0 -3.552,-1.152 -1.272,-1.176 -1.272,-3.48 V 5.7121121 h 3.744 V 16.992112 q 0,0.816 0.432,1.272 0.432,0.432 1.176,0.432 0.888,0 1.512,-0.48 l 1.008,2.64 q -0.576,0.408 -1.392,0.624 -0.792,0.192 -1.656,0.192 z m -6.816,-9.936 V 8.8561121 h 8.952 v 2.8799999 z"
           style="font-family:Montserrat;-inkscape-font-specification:Montserrat;fill:#ed1b25"
           id="path77745" />
        <path
           d="m 142.17351,21.672112 q -2.208,0 -3.888,-0.864 -1.656,-0.864 -2.568,-2.352 -0.912,-1.512 -0.912,-3.432 0,-1.944 0.888,-3.432 0.912,-1.512 2.472,-2.3519999 1.56,-0.864 3.528,-0.864 1.896,0 3.408,0.816 1.536,0.792 2.424,2.3039999 0.888,1.488 0.888,3.576 0,0.216 -0.024,0.504 -0.024,0.264 -0.048,0.504 h -10.488 v -2.184 h 8.52 l -1.44,0.648 q 0,-1.008 -0.408,-1.752 -0.408,-0.744 -1.128,-1.152 -0.72,-0.432 -1.68,-0.432 -0.96,0 -1.704,0.432 -0.72,0.408 -1.128,1.176 -0.408,0.744 -0.408,1.776 v 0.576 q 0,1.056 0.456,1.872 0.48,0.792 1.32,1.224 0.864,0.408 2.016,0.408 1.032,0 1.8,-0.312 0.792,-0.312 1.44,-0.936 l 1.992,2.16 q -0.888,1.008 -2.232,1.56 -1.344,0.528 -3.096,0.528 z"
           style="font-family:Montserrat;-inkscape-font-specification:Montserrat;fill:#ed1b25"
           id="path77747" />
        <path
           d="m 166.12555,21.768112 q -1.992,0 -3.696,-0.648 -1.68,-0.648 -2.928,-1.824 -1.224,-1.176 -1.92,-2.76 -0.672,-1.584 -0.672,-3.456 0,-1.872 0.672,-3.4559999 0.696,-1.584 1.944,-2.76 1.248,-1.176 2.928,-1.824 1.68,-0.648 3.648,-0.648 1.992,0 3.648,0.648 1.68,0.648 2.904,1.824 1.248,1.176 1.944,2.76 0.696,1.5599999 0.696,3.4559999 0,1.872 -0.696,3.48 -0.696,1.584 -1.944,2.76 -1.224,1.152 -2.904,1.8 -1.656,0.648 -3.624,0.648 z m -0.024,-3.312 q 1.128,0 2.064,-0.384 0.96,-0.384 1.68,-1.104 0.72,-0.72 1.104,-1.704 0.408,-0.984 0.408,-2.184 0,-1.2 -0.408,-2.184 -0.384,-0.9839999 -1.104,-1.7039999 -0.696,-0.72 -1.656,-1.104 -0.96,-0.384 -2.088,-0.384 -1.128,0 -2.088,0.384 -0.936,0.384 -1.656,1.104 -0.72,0.72 -1.128,1.7039999 -0.384,0.984 -0.384,2.184 0,1.176 0.384,2.184 0.408,0.984 1.104,1.704 0.72,0.72 1.68,1.104 0.96,0.384 2.088,0.384 z"
           style="font-family:Montserrat;-inkscape-font-specification:Montserrat;fill:#ed1b25"
           id="path77749" />
        <path
           d="m 183.40555,21.672112 q -1.608,0 -2.88,-0.624 -1.248,-0.624 -1.944,-1.896 -0.696,-1.296 -0.696,-3.288 V 8.5681121 h 3.744 v 6.7439999 q 0,1.608 0.672,2.376 0.696,0.744 1.944,0.744 0.864,0 1.536,-0.36 0.672,-0.384 1.056,-1.152 0.384,-0.792 0.384,-1.968 V 8.5681121 h 3.744 V 21.480112 h -3.552 v -3.552 l 0.648,1.032 q -0.648,1.344 -1.92,2.04 -1.248,0.672 -2.736,0.672 z"
           style="font-family:Montserrat;-inkscape-font-specification:Montserrat;fill:#ed1b25"
           id="path77751" />
        <path
           d="m 197.94955,21.480112 -5.424,-12.9119999 h 3.864 l 4.512,11.1119999 h -1.92 l 4.68,-11.1119999 h 3.6 l -5.448,12.9119999 z"
           style="font-family:Montserrat;-inkscape-font-specification:Montserrat;fill:#ed1b25"
           id="path77753" />
        <path
           d="M 208.79754,21.480112 V 8.5681121 h 3.576 v 3.6479999 l -0.504,-1.056 q 0.576,-1.3679999 1.848,-2.0639999 1.272,-0.72 3.096,-0.72 v 3.4559999 q -0.24,-0.024 -0.432,-0.024 -0.192,-0.024 -0.408,-0.024 -1.536,0 -2.496,0.888 -0.936,0.864 -0.936,2.712 v 6.096 z"
           style="font-family:Montserrat;-inkscape-font-specification:Montserrat;fill:#ed1b25"
           id="path77755" />
        <path
           d="M 219.04554,21.480112 V 8.5681121 h 3.744 V 21.480112 Z m 1.872,-14.7119999 q -1.032,0 -1.68,-0.6 -0.648,-0.6 -0.648,-1.488 0,-0.888 0.648,-1.488 0.648,-0.6 1.68,-0.6 1.032,0 1.68,0.576 0.648,0.552 0.648,1.44 0,0.936 -0.648,1.56 -0.624,0.6 -1.68,0.6 z"
           style="font-family:Montserrat;-inkscape-font-specification:Montserrat;fill:#ed1b25"
           id="path77757" />
        <path
           d="m 232.67756,21.672112 q -2.208,0 -3.888,-0.864 -1.656,-0.864 -2.568,-2.352 -0.912,-1.512 -0.912,-3.432 0,-1.944 0.888,-3.432 0.912,-1.512 2.472,-2.3519999 1.56,-0.864 3.528,-0.864 1.896,0 3.408,0.816 1.536,0.792 2.424,2.3039999 0.888,1.488 0.888,3.576 0,0.216 -0.024,0.504 -0.024,0.264 -0.048,0.504 h -10.488 v -2.184 h 8.52 l -1.44,0.648 q 0,-1.008 -0.408,-1.752 -0.408,-0.744 -1.128,-1.152 -0.72,-0.432 -1.68,-0.432 -0.96,0 -1.704,0.432 -0.72,0.408 -1.128,1.176 -0.408,0.744 -0.408,1.776 v 0.576 q 0,1.056 0.456,1.872 0.48,0.792 1.32,1.224 0.864,0.408 2.016,0.408 1.032,0 1.8,-0.312 0.792,-0.312 1.44,-0.936 l 1.992,2.16 q -0.888,1.008 -2.232,1.56 -1.344,0.528 -3.096,0.528 z m -1.296,-14.7599999 -4.344,-3.456 h 4.032 l 3.24,3.456 z"
           style="font-family:Montserrat;-inkscape-font-specification:Montserrat;fill:#ed1b25"
           id="path77759" />
        <path
           d="M 241.41357,21.480112 V 8.5681121 h 3.576 v 3.6479999 l -0.504,-1.056 q 0.576,-1.3679999 1.848,-2.0639999 1.272,-0.72 3.096,-0.72 v 3.4559999 q -0.24,-0.024 -0.432,-0.024 -0.192,-0.024 -0.408,-0.024 -1.536,0 -2.496,0.888 -0.936,0.864 -0.936,2.712 v 6.096 z"
           style="font-family:Montserrat;-inkscape-font-specification:Montserrat;fill:#ed1b25"
           id="path77761" />
        <path
           d="m 257.94955,21.672112 q -2.208,0 -3.888,-0.864 -1.656,-0.864 -2.568,-2.352 -0.912,-1.512 -0.912,-3.432 0,-1.944 0.888,-3.432 0.912,-1.512 2.472,-2.3519999 1.56,-0.864 3.528,-0.864 1.896,0 3.408,0.816 1.536,0.792 2.424,2.3039999 0.888,1.488 0.888,3.576 0,0.216 -0.024,0.504 -0.024,0.264 -0.048,0.504 h -10.488 v -2.184 h 8.52 l -1.44,0.648 q 0,-1.008 -0.408,-1.752 -0.408,-0.744 -1.128,-1.152 -0.72,-0.432 -1.68,-0.432 -0.96,0 -1.704,0.432 -0.72,0.408 -1.128,1.176 -0.408,0.744 -0.408,1.776 v 0.576 q 0,1.056 0.456,1.872 0.48,0.792 1.32,1.224 0.864,0.408 2.016,0.408 1.032,0 1.8,-0.312 0.792,-0.312 1.44,-0.936 l 1.992,2.16 q -0.888,1.008 -2.232,1.56 -1.344,0.528 -3.096,0.528 z"
           style="font-family:Montserrat;-inkscape-font-specification:Montserrat;fill:#ed1b25"
           id="path77763" />
      </g>
    </g>
    <path
       style="fill:#ed1b25;fill-opacity:1;stroke-width:0.113651"
       d="m 73.64456,25.344259 c 0,-8.907427 0.01347,-12.551375 0.02994,-8.097661 0.01647,4.453714 0.01647,11.741609 0,16.195322 -0.01647,4.453714 -0.02994,0.809767 -0.02994,-8.097661 z"
       id="path55097"
       transform="scale(0.26458333)" />
    <path
       style="fill:#ed1b25;fill-opacity:1;stroke-width:0.113651"
       d="m 73.627483,18.411525 c 0,-0.468812 0.02006,-0.660599 0.04458,-0.426193 0.02452,0.234406 0.02452,0.617979 0,0.852385 -0.02452,0.234406 -0.04458,0.04262 -0.04458,-0.426192 z"
       id="path55136"
       transform="scale(0.26458333)" />
    <path
       style="fill:#ed1b25;fill-opacity:1;stroke-width:0.113651"
       d="M 72.339107,25.344259 V 9.2057623 h 0.625083 0.625083 V 25.344259 41.482756 H 72.96419 72.339107 Z"
       id="path55175"
       transform="scale(0.26458333)" />
  </g>
</svg>
