<?xml version="1.0" encoding="UTF-8"?><svg id="a" xmlns="http://www.w3.org/2000/svg" viewBox="0 0 460.84 80.46"><defs><style>.e{fill:#2d3f80;}.f{fill:#1b3e75;}.g{fill:#e62e29;}</style></defs><rect class="e" x="79.55" width="2.24" height="80.46"/><g><path class="e" d="M118.63,24.37h6.37v22.33h13.8v5.19h-20.16V24.37Z"/><path class="e" d="M162.39,43.04h-16c.59,2.63,2.83,4.25,6.05,4.25,2.24,0,3.85-.67,5.31-2.04l3.26,3.54c-1.97,2.24-4.91,3.42-8.73,3.42-7.31,0-12.07-4.6-12.07-10.89s4.83-10.89,11.28-10.89,11.01,4.17,11.01,10.97c0,.47-.08,1.14-.12,1.65Zm-16.08-3.58h10.42c-.43-2.67-2.44-4.4-5.19-4.4s-4.8,1.69-5.23,4.4Z"/><path class="e" d="M164.56,49.92l2.04-4.4c1.89,1.22,4.76,2.04,7.35,2.04,2.83,0,3.89-.75,3.89-1.93,0-3.46-12.77,.08-12.77-8.37,0-4.01,3.62-6.84,9.79-6.84,2.91,0,6.13,.67,8.14,1.85l-2.04,4.36c-2.08-1.18-4.17-1.57-6.09-1.57-2.75,0-3.93,.86-3.93,1.96,0,3.62,12.77,.12,12.77,8.45,0,3.93-3.66,6.72-9.98,6.72-3.58,0-7.19-.98-9.16-2.28Z"/><path class="e" d="M216.57,51.88l-5.31-7.66h-5.86v7.66h-6.37V24.37h11.91c7.35,0,11.95,3.81,11.95,9.98,0,4.13-2.08,7.15-5.66,8.69l6.17,8.84h-6.84Zm-5.97-22.33h-5.19v9.59h5.19c3.89,0,5.86-1.81,5.86-4.8s-1.96-4.8-5.86-4.8Z"/><path class="e" d="M248.1,43.04h-16c.59,2.63,2.83,4.25,6.05,4.25,2.24,0,3.85-.67,5.31-2.04l3.26,3.54c-1.97,2.24-4.91,3.42-8.73,3.42-7.31,0-12.07-4.6-12.07-10.89s4.83-10.89,11.28-10.89,11.01,4.17,11.01,10.97c0,.47-.08,1.14-.12,1.65Zm-16.08-3.58h10.42c-.43-2.67-2.44-4.4-5.19-4.4s-4.8,1.69-5.23,4.4Zm6.29-11.44h-4.8l5.31-5.66h6.6l-7.12,5.66Z"/><path class="e" d="M275.34,41.31c0,6.64-4.6,10.89-10.53,10.89-2.63,0-4.8-.83-6.37-2.55v9.87h-6.13V30.74h5.86v2.44c1.53-1.85,3.81-2.75,6.64-2.75,5.93,0,10.53,4.25,10.53,10.89Zm-6.21,0c0-3.65-2.32-5.86-5.39-5.86s-5.39,2.2-5.39,5.86,2.32,5.86,5.39,5.86,5.39-2.2,5.39-5.86Z"/><path class="e" d="M300.74,30.74v21.15h-5.82v-2.52c-1.61,1.85-3.97,2.83-6.56,2.83-5.31,0-9.04-2.99-9.04-9.51v-11.95h6.13v11.04c0,3.54,1.57,5.11,4.28,5.11s4.87-1.81,4.87-5.7v-10.45h6.13Z"/><path class="e" d="M329.48,41.31c0,6.64-4.6,10.89-10.53,10.89-2.83,0-5.11-.91-6.64-2.75v2.44h-5.86V22.72h6.13v10.26c1.57-1.73,3.73-2.55,6.37-2.55,5.93,0,10.53,4.25,10.53,10.89Zm-6.21,0c0-3.65-2.32-5.86-5.39-5.86s-5.38,2.2-5.38,5.86,2.32,5.86,5.38,5.86,5.39-2.2,5.39-5.86Z"/><path class="e" d="M333.58,22.72h6.13v29.17h-6.13V22.72Z"/><path class="e" d="M344.66,24.37c0-1.93,1.53-3.42,3.81-3.42s3.81,1.42,3.81,3.3c0,2.04-1.53,3.54-3.81,3.54s-3.81-1.49-3.81-3.42Zm.75,6.37h6.13v21.15h-6.13V30.74Z"/><path class="e" d="M355.67,41.31c0-6.37,4.91-10.89,11.79-10.89,4.44,0,7.94,1.93,9.47,5.39l-4.76,2.55c-1.14-2-2.83-2.91-4.76-2.91-3.1,0-5.54,2.16-5.54,5.86s2.44,5.86,5.54,5.86c1.93,0,3.62-.87,4.76-2.91l4.76,2.59c-1.53,3.38-5.03,5.35-9.47,5.35-6.88,0-11.79-4.52-11.79-10.89Z"/><path class="e" d="M399.19,39.82v12.07h-5.74v-2.63c-1.14,1.93-3.34,2.95-6.44,2.95-4.95,0-7.9-2.75-7.9-6.41s2.63-6.33,9.08-6.33h4.87c0-2.63-1.57-4.17-4.87-4.17-2.24,0-4.56,.75-6.09,1.97l-2.2-4.29c2.32-1.65,5.74-2.55,9.12-2.55,6.45,0,10.18,2.99,10.18,9.4Zm-6.13,5.39v-2.16h-4.21c-2.87,0-3.77,1.06-3.77,2.48,0,1.53,1.3,2.55,3.46,2.55,2.04,0,3.81-.94,4.52-2.87Z"/><path class="e" d="M403.99,24.37c0-1.93,1.53-3.42,3.81-3.42s3.81,1.42,3.81,3.3c0,2.04-1.53,3.54-3.81,3.54s-3.81-1.49-3.81-3.42Zm.75,6.37h6.13v21.15h-6.13V30.74Z"/><path class="e" d="M438.19,39.78v12.11h-6.13v-11.16c0-3.42-1.57-4.99-4.28-4.99-2.95,0-5.07,1.81-5.07,5.7v10.46h-6.13V30.74h5.86v2.48c1.65-1.81,4.13-2.79,7-2.79,4.99,0,8.77,2.91,8.77,9.36Z"/><path class="e" d="M441.69,49.92l2.04-4.4c1.89,1.22,4.76,2.04,7.35,2.04,2.83,0,3.89-.75,3.89-1.93,0-3.46-12.77,.08-12.77-8.37,0-4.01,3.62-6.84,9.79-6.84,2.91,0,6.13,.67,8.14,1.85l-2.04,4.36c-2.08-1.18-4.17-1.57-6.09-1.57-2.75,0-3.93,.86-3.93,1.96,0,3.62,12.77,.12,12.77,8.45,0,3.93-3.66,6.72-9.98,6.72-3.58,0-7.19-.98-9.16-2.28Z"/></g><g><path id="b" class="f" d="M23.19,38.68h2.46c6.35,0,9.85-3.53,9.85-9.94,0-5.95-3.67-8.72-11.56-8.72h-.75v-4.98h4.07c3.86,0,7.77,1.22,10.73,3.35,2.46,1.77,5.4,5.01,5.4,10.35,0,3.43-1.19,11.66-12.17,14.46l14.74,21.79-6.81,2.35-15.96-23.52v-5.14Z"/><path id="c" class="g" d="M23.2,72.95H14.87V7.5h8.33V72.95Z"/><path id="d" class="f" d="M8.33,66.14H0V15H8.33v51.15Z"/></g></svg>