<?xml version="1.0" encoding="UTF-8"?><svg xmlns="http://www.w3.org/2000/svg" viewBox="0 0 416.37 47.91"><defs><style>.d{opacity:.4;}.d,.e,.f,.g,.h{fill:#1faae2;}.d,.f,.g,.h{isolation:isolate;}.f{opacity:.1;}.g{opacity:.6;}.h{opacity:.3;}</style></defs><g id="a"/><g id="b"><g id="c"><g><rect class="e" x="84.23" width="1.33" height="47.91"/><g><path class="e" d="M105.57,14.51h3.79v13.29h8.22v3.09h-12.01V14.51Z"/><path class="e" d="M130.73,23.71v7.19h-3.42v-1.57c-.68,1.15-1.99,1.76-3.84,1.76-2.95,0-4.7-1.64-4.7-3.82s1.57-3.77,5.41-3.77h2.9c0-1.57-.94-2.48-2.9-2.48-1.33,0-2.71,.45-3.63,1.17l-1.31-2.55c1.38-.98,3.42-1.52,5.43-1.52,3.84,0,6.06,1.78,6.06,5.59Zm-3.65,3.21v-1.29h-2.5c-1.71,0-2.25,.63-2.25,1.47,0,.91,.77,1.52,2.06,1.52,1.22,0,2.27-.56,2.69-1.71Z"/><path class="e" d="M151.36,30.9l-3.16-4.56h-3.49v4.56h-3.79V14.51h7.09c4.38,0,7.12,2.27,7.12,5.95,0,2.46-1.24,4.26-3.37,5.17l3.67,5.27h-4.07Zm-3.56-13.3h-3.09v5.71h3.09c2.32,0,3.49-1.08,3.49-2.86s-1.17-2.86-3.49-2.86Z"/><path class="e" d="M170.14,25.63h-9.53c.35,1.57,1.69,2.53,3.61,2.53,1.33,0,2.29-.4,3.16-1.22l1.94,2.11c-1.17,1.33-2.93,2.04-5.2,2.04-4.35,0-7.19-2.74-7.19-6.48s2.88-6.48,6.72-6.48,6.55,2.48,6.55,6.53c0,.28-.05,.68-.07,.98Zm-9.57-2.13h6.2c-.26-1.59-1.45-2.62-3.09-2.62s-2.86,1.01-3.11,2.62Zm3.75-6.81h-2.86l3.16-3.37h3.93l-4.24,3.37Z"/><path class="e" d="M186.36,24.6c0,3.96-2.74,6.48-6.27,6.48-1.57,0-2.86-.49-3.79-1.52v5.88h-3.65V18.3h3.49v1.45c.91-1.1,2.27-1.64,3.96-1.64,3.53,0,6.27,2.53,6.27,6.48Zm-3.7,0c0-2.18-1.38-3.49-3.21-3.49s-3.21,1.31-3.21,3.49,1.38,3.49,3.21,3.49,3.21-1.31,3.21-3.49Z"/><path class="e" d="M201.49,18.3v12.59h-3.46v-1.5c-.96,1.1-2.36,1.69-3.91,1.69-3.16,0-5.38-1.78-5.38-5.66v-7.12h3.65v6.58c0,2.11,.94,3.04,2.55,3.04s2.9-1.08,2.9-3.39v-6.23h3.65Z"/><path class="e" d="M218.6,24.6c0,3.96-2.74,6.48-6.27,6.48-1.69,0-3.04-.54-3.96-1.64v1.45h-3.49V13.53h3.65v6.11c.94-1.03,2.22-1.52,3.79-1.52,3.53,0,6.27,2.53,6.27,6.48Zm-3.7,0c0-2.18-1.38-3.49-3.21-3.49s-3.21,1.31-3.21,3.49,1.38,3.49,3.21,3.49,3.21-1.31,3.21-3.49Z"/><path class="e" d="M221.04,13.53h3.65V30.9h-3.65V13.53Z"/><path class="e" d="M227.64,14.51c0-1.15,.91-2.04,2.27-2.04s2.27,.84,2.27,1.97c0,1.22-.91,2.11-2.27,2.11s-2.27-.89-2.27-2.04Zm.45,3.79h3.65v12.59h-3.65v-12.59Z"/><path class="e" d="M247.91,18.3v17.13h-3.65v-5.88c-.91,1.03-2.22,1.52-3.77,1.52-3.56,0-6.3-2.53-6.3-6.48s2.74-6.48,6.3-6.48c1.69,0,3.02,.54,3.93,1.64v-1.45h3.49Zm-3.58,6.3c0-2.18-1.4-3.49-3.21-3.49s-3.23,1.31-3.23,3.49,1.4,3.49,3.23,3.49,3.21-1.31,3.21-3.49Z"/><path class="e" d="M263.97,18.3v12.59h-3.46v-1.5c-.96,1.1-2.36,1.69-3.91,1.69-3.16,0-5.38-1.78-5.38-5.66v-7.12h3.65v6.58c0,2.11,.94,3.04,2.55,3.04s2.9-1.08,2.9-3.39v-6.23h3.65Z"/><path class="e" d="M279.64,25.63h-9.53c.35,1.57,1.69,2.53,3.6,2.53,1.33,0,2.29-.4,3.16-1.22l1.94,2.11c-1.17,1.33-2.93,2.04-5.2,2.04-4.35,0-7.19-2.74-7.19-6.48s2.88-6.48,6.72-6.48,6.55,2.48,6.55,6.53c0,.28-.05,.68-.07,.98Zm-9.57-2.13h6.2c-.26-1.59-1.45-2.62-3.09-2.62s-2.86,1.01-3.11,2.62Z"/><path class="e" d="M301.72,27.85v3.04h-12.69V14.51h12.38v3.04h-8.61v3.56h7.61v2.95h-7.61v3.79h8.92Z"/><path class="e" d="M317.36,23.69v7.21h-3.65v-6.65c0-2.04-.94-2.97-2.55-2.97-1.76,0-3.02,1.08-3.02,3.39v6.23h-3.65v-12.59h3.49v1.47c.98-1.08,2.46-1.66,4.17-1.66,2.97,0,5.22,1.73,5.22,5.57Z"/><path class="e" d="M342.45,30.9l-.02-9.83-4.82,8.1h-1.71l-4.8-7.89v9.62h-3.56V14.51h3.14l6.13,10.18,6.04-10.18h3.11l.05,16.38h-3.56Z"/><path class="e" d="M360.79,23.71v7.19h-3.42v-1.57c-.68,1.15-1.99,1.76-3.84,1.76-2.95,0-4.71-1.64-4.71-3.82s1.57-3.77,5.41-3.77h2.9c0-1.57-.94-2.48-2.9-2.48-1.33,0-2.72,.45-3.63,1.17l-1.31-2.55c1.38-.98,3.42-1.52,5.43-1.52,3.84,0,6.06,1.78,6.06,5.59Zm-3.65,3.21v-1.29h-2.5c-1.71,0-2.25,.63-2.25,1.47,0,.91,.77,1.52,2.06,1.52,1.22,0,2.27-.56,2.69-1.71Z"/><path class="e" d="M371.91,18.12v3.37c-.3-.02-.54-.05-.82-.05-2.01,0-3.35,1.1-3.35,3.51v5.95h-3.65v-12.59h3.49v1.66c.89-1.22,2.39-1.85,4.33-1.85Z"/><path class="e" d="M373.04,24.6c0-3.79,2.93-6.48,7.02-6.48,2.64,0,4.73,1.15,5.64,3.21l-2.83,1.52c-.68-1.19-1.69-1.73-2.83-1.73-1.85,0-3.3,1.29-3.3,3.49s1.45,3.49,3.3,3.49c1.15,0,2.15-.51,2.83-1.73l2.83,1.54c-.91,2.01-3,3.18-5.64,3.18-4.1,0-7.02-2.69-7.02-6.48Z"/><path class="e" d="M400.59,23.69v7.21h-3.65v-6.65c0-2.04-.94-2.97-2.55-2.97-1.76,0-3.02,1.08-3.02,3.39v6.23h-3.65V13.53h3.65v6.09c.98-.98,2.39-1.5,4-1.5,2.97,0,5.22,1.73,5.22,5.57Z"/><path class="e" d="M416.3,25.63h-9.53c.35,1.57,1.69,2.53,3.6,2.53,1.33,0,2.29-.4,3.16-1.22l1.94,2.11c-1.17,1.33-2.93,2.04-5.2,2.04-4.35,0-7.19-2.74-7.19-6.48s2.88-6.48,6.72-6.48,6.55,2.48,6.55,6.53c0,.28-.05,.68-.07,.98Zm-9.57-2.13h6.2c-.26-1.59-1.45-2.62-3.09-2.62s-2.86,1.01-3.11,2.62Z"/></g><g><path class="h" d="M49.37,19.54l-.04-.13c-.49-1.16-1.12-2.23-1.83-3.26l1.65-1.16c.8,1.12,1.47,2.32,2.01,3.62l.09,.13-1.87,.8Z"/><path class="h" d="M40.84,23.24c-.31-.67-.67-1.29-1.07-1.92l1.65-1.16c.49,.71,.94,1.47,1.29,2.28l-1.87,.8Z"/><path class="g" d="M47.45,16.14l-.8-1.07c-.13-.18-.27-.31-.4-.49-.58-.67-1.21-1.34-1.87-1.92l1.34-1.47c.71,.67,1.43,1.38,2.05,2.14,.13,.18,.31,.36,.45,.54,.31,.4,.62,.8,.89,1.21l-1.65,1.07Z"/><path class="g" d="M35.35,21.23c-.85-.62-1.83-1.03-2.86-1.25l.45-1.96c1.29,.27,2.5,.8,3.62,1.61l-1.21,1.61Z"/><path class="g" d="M36.92,18.55c-1.29-.89-2.81-1.47-4.33-1.74l.31-1.96c1.83,.31,3.57,1.03,5.13,2.05l-1.12,1.65Z"/><path class="g" d="M39.64,16.68c-1.12-.89-2.32-1.61-3.66-2.1l.76-1.87c1.52,.58,2.9,1.38,4.15,2.41l-1.25,1.56Z"/><path class="e" d="M39.46,12.84c-1.43-.85-2.95-1.47-4.55-1.83l.49-1.96c1.79,.45,3.48,1.12,5.09,2.05l-1.03,1.74Z"/><path class="e" d="M26.43,7.93l-.45-1.96c1.74-.4,3.48-.54,5.27-.54l-.04,2.01c-1.61-.04-3.21,.13-4.78,.49Z"/><path class="h" d="M10.04,34.62c-.27-.76-.49-1.56-.67-2.37l1.96-.45c.09,.36,.18,.67,.27,1.03-.67,.54-1.16,1.12-1.56,1.79Z"/><path class="g" d="M14.37,31.14c0,.09,.04,.22,.09,.31-.71,.18-1.34,.45-1.87,.76-.04-.22-.09-.45-.18-.62-.94-4.24-.4-8.7,1.56-12.59l1.79,.89c-1.74,3.48-2.23,7.45-1.38,11.25Z"/><path class="h" d="M17.54,31.1h-.09c-.71,0-1.34,.04-1.92,.13-.04-.09-.04-.22-.09-.36-.49-2.23-.49-4.46-.04-6.65l1.96,.4c-.4,1.92-.4,3.88,.04,5.8,.04,.27,.09,.49,.13,.67Z"/><path class="h" d="M18.61,30.83c-.04-.18-.09-.4-.13-.58-.49-2.23-.4-4.55,.31-6.7,.27-.85,.67-1.7,1.12-2.5l1.74,1.03c-.4,.67-.71,1.38-.94,2.1-.58,1.83-.67,3.75-.27,5.67,.04,.18,.09,.36,.13,.49l-1.96,.49Z"/><path class="f" d="M21.25,27.79v-.8l.71,.04c-.27,.18-.49,.45-.71,.76Z"/><path class="g" d="M9.37,32.26c-.89-4.02-.67-8.17,.67-12.01l1.92,.67c-1.21,3.48-1.43,7.28-.62,10.94l-1.96,.4Z"/><path class="e" d="M15.76,19.89l-1.79-.89c.54-1.03,1.12-2.05,1.83-2.95l1.61,1.21c-.62,.8-1.21,1.7-1.65,2.63Z"/><path class="g" d="M17.36,24.67l-1.96-.4c.4-1.92,1.16-3.75,2.23-5.4l1.7,1.07c-.98,1.47-1.61,3.04-1.96,4.73Z"/><path class="h" d="M20.71,24.18l-1.92-.62c.27-.85,.67-1.7,1.12-2.5l1.74,1.03c-.4,.67-.71,1.34-.94,2.1Z"/><path class="d" d="M21.29,26.99l.71,.04c-.31,.18-.54,.45-.71,.8-.04-.31-.04-.58,0-.85Z"/><path class="e" d="M11.96,20.92l-1.92-.67c.76-2.14,1.83-4.15,3.17-5.98l1.61,1.21c-1.21,1.65-2.19,3.48-2.86,5.45Z"/><path class="e" d="M17.41,17.26l-1.61-1.21c.31-.4,.58-.76,.94-1.12l1.52,1.34c-.31,.27-.58,.62-.85,.98Z"/><path class="g" d="M19.28,19.94l-1.7-1.07c.85-1.29,1.87-2.46,3.04-3.48l1.29,1.52c-1.03,.89-1.87,1.92-2.63,3.04Z"/><path class="g" d="M21.65,22.08l-1.74-1.03c.49-.85,1.07-1.65,1.74-2.37l1.47,1.38c-.58,.62-1.07,1.29-1.47,2.01Z"/><path class="d" d="M23.48,25.65c-.09,.31-.13,.67-.18,.98h0c-.49,0-.94,.13-1.29,.4l-.71-.04c.04-.62,.13-1.25,.27-1.83l1.92,.49Z"/><path class="e" d="M14.86,15.47l-1.61-1.21c.98-1.29,2.1-2.5,3.3-3.53l1.29,1.52c-1.12,.94-2.14,2.05-2.99,3.21Z"/><path class="e" d="M18.21,16.23l-1.52-1.34c1.61-1.79,3.48-3.26,5.62-4.33l.89,1.79c-1.87,.98-3.57,2.28-5,3.88Z"/><path class="e" d="M21.92,16.9l-1.29-1.52c1.52-1.29,3.21-2.28,5.04-2.9l.67,1.87c-1.61,.58-3.08,1.43-4.42,2.54Z"/><path class="e" d="M23.12,20.07l-1.47-1.38c1.12-1.16,2.41-2.14,3.88-2.81l.85,1.83c-1.25,.58-2.32,1.38-3.26,2.37Z"/><path class="g" d="M23.48,25.65l-1.96-.49c.22-.89,.58-1.79,1.03-2.54,.27-.45,.58-.89,.89-1.29l1.56,1.29c-.27,.31-.49,.67-.71,1.03-.36,.58-.62,1.29-.8,2.01Z"/><g><path class="e" d="M17.86,12.26l-1.29-1.52c1.29-1.12,2.77-2.1,4.29-2.9l.94,1.79c-1.43,.71-2.72,1.61-3.93,2.63Z"/><path class="e" d="M23.26,12.35l-.89-1.79c1.43-.71,2.95-1.25,4.51-1.61l.45,1.96c-1.47,.31-2.81,.8-4.06,1.43Z"/><path class="e" d="M36.02,14.58c-2.59-1.03-5.36-1.21-8.08-.62-.54,.13-1.07,.27-1.61,.45l-.67-1.87c.58-.22,1.21-.4,1.83-.54,3.08-.67,6.29-.45,9.24,.71l-.71,1.87Z"/><path class="e" d="M26.38,17.71l-.85-1.83c.85-.4,1.74-.67,2.63-.89,1.56-.36,3.17-.4,4.78-.13l-.31,1.96c-1.34-.22-2.68-.18-4.02,.13-.76,.18-1.52,.45-2.23,.76Z"/><path class="e" d="M25.04,22.62l-1.56-1.29c1.12-1.38,2.59-2.41,4.29-2.99,.36-.13,.71-.22,1.07-.31l.45,1.96c-.31,.04-.58,.13-.85,.27-1.34,.45-2.5,1.25-3.39,2.37Z"/></g><g><path class="e" d="M21.74,9.63l-.94-1.79c1.7-.85,3.48-1.52,5.36-1.92l.45,1.96c-1.7,.36-3.35,.94-4.87,1.74Z"/><path class="e" d="M34.95,10.97c-2.54-.62-5.09-.62-7.68-.09l-.45-1.96c2.86-.62,5.76-.62,8.57,.09l-.45,1.96Z"/><path class="e" d="M36.02,14.54c-2.59-1.03-5.36-1.21-8.08-.62l-.45-1.96c3.08-.67,6.29-.45,9.24,.71l-.71,1.87Z"/><path class="e" d="M28.61,16.95l-.45-1.96c1.56-.36,3.17-.4,4.78-.13l-.31,1.96c-1.34-.18-2.68-.13-4.02,.13Z"/><path class="e" d="M29.28,19.98l-.45-1.96c1.34-.31,2.72-.31,4.06-.04l-.4,1.96c-1.07-.22-2.14-.18-3.21,.04Z"/></g><path class="h" d="M37.32,23.24c-.54-.8-1.21-1.47-1.96-2.01l1.16-1.65c.98,.67,1.83,1.56,2.5,2.54l-1.7,1.12Z"/><path class="h" d="M39.77,21.32c-.76-1.07-1.74-2.01-2.81-2.77l1.12-1.65c1.29,.89,2.46,1.96,3.35,3.26l-1.65,1.16Z"/><path class="h" d="M42.67,20.03c-.8-1.29-1.83-2.41-3.04-3.35l1.25-1.56c1.34,1.07,2.54,2.37,3.48,3.84l-1.7,1.07Z"/><path class="g" d="M44.24,16.95c-1.34-1.65-2.95-3.08-4.78-4.15l1.03-1.74c2.05,1.21,3.88,2.77,5.36,4.64l-1.61,1.25Z"/><path class="e" d="M35.04,7.89c-1.25-.27-2.59-.4-3.88-.45l.04-2.01c1.43,.04,2.86,.18,4.24,.49l-.4,1.96Z"/><path class="h" d="M38.08,24.58l-.04-.09c-.09-.22-.18-.45-.31-.67-.13-.22-.27-.45-.4-.62l1.65-1.12c.18,.27,.36,.54,.49,.8l.4,.8,.04,.04-1.83,.85Z"/><path class="h" d="M43.7,21.95c-.31-.67-.62-1.29-1.03-1.92l1.7-1.07c.45,.71,.85,1.43,1.16,2.19l-1.83,.8Z"/><path class="h" d="M46.47,20.65c-.58-1.29-1.34-2.54-2.23-3.66l1.56-1.25c.98,1.25,1.83,2.63,2.5,4.11l-1.83,.8Z"/><path class="e" d="M40.89,10.12c-1.83-1.07-3.79-1.79-5.85-2.23l.4-1.96c2.28,.49,4.42,1.34,6.43,2.46l-.98,1.74Z"/><path class="g" d="M44.37,12.62c-.31-.31-.67-.58-1.03-.85-.54-.4-1.07-.8-1.61-1.16-.27-.18-.54-.36-.85-.54-1.83-1.07-3.79-1.79-5.85-2.23l.4-1.96c2.28,.49,4.42,1.34,6.43,2.46,.31,.18,.62,.36,.94,.58,.62,.4,1.21,.8,1.79,1.25,.4,.31,.76,.62,1.12,.94l-1.34,1.52Z"/><g><path class="e" d="M3.3,39.94l1.61-11.52H1.96l-1.96,13.84H9.24l.18-1.34,.13-.98H3.3Z"/><path class="e" d="M20.09,33.11c-.09,0-.22-.04-.31-.04-.36-.04-.76-.09-1.12-.13h-1.21c-2.5,0-4.2,.76-5.22,1.83-.62,.62-1.03,1.43-1.25,2.19-.13,.54-.22,1.07-.22,1.56,0,2.32,1.34,3.97,3.21,3.97,.94,0,1.79-.31,2.68-1.03l-.04,.22-.09,.62h2.72l.09-.49,.36-2.41,.89-6.2c-.18-.04-.36-.04-.49-.09Zm-2.63,2.72l-.49,3.53-.04,.22s-.13,.09-.18,.13h0c-.09,.04-.13,.09-.22,.13-.09,.04-.13,.09-.22,.13-.09,.04-.13,.09-.22,.09h-.04s-.13,.04-.18,.09h-.04c-.09,.04-.13,.04-.22,.09-.09,0-.13,.04-.22,.04s-.13,.04-.22,.04h-.22c-.85,0-1.34-.62-1.34-1.74,0-.13,0-.27,.04-.45,0-.09,0-.18,.04-.27h0c0-.09,.04-.18,.04-.27s.04-.22,.09-.31c0-.09,.04-.13,.09-.22v-.04l.13-.27h0l.13-.27s.04-.09,.09-.13c.18-.27,.45-.54,.76-.71,.09-.04,.18-.13,.31-.18,.22-.09,.49-.18,.8-.27,.04,0,.09,0,.18-.04h.58c.18,0,.4,0,.62,.04l-.04,.62Z"/><path class="e" d="M34.46,41.45c-.49-1.07-.89-1.92-1.21-2.68-.04-.13-.09-.22-.18-.36h0c-.04-.09-.09-.22-.18-.31-.18-.36-.36-.71-.54-.98-.04-.04-.04-.09-.09-.13s-.09-.09-.09-.13-.04-.09-.09-.13c-.09-.13-.22-.27-.31-.36-.22-.22-.45-.4-.67-.54-.04,0-.04-.04,0-.04,.22-.13,.49-.22,.67-.4,.13-.09,.22-.13,.31-.22,.09-.04,.13-.13,.22-.18l.4-.4s.09-.09,.13-.18v-.04s.09-.13,.09-.18c.18-.27,.27-.58,.36-.89,0-.04,.04-.13,.04-.18v-.04s0-.13,.04-.18v-.45c0-2.05-1.7-3.97-4.51-3.97h-6.16v13.84h3.44v-5.67h1.29c.22,.04,.4,.13,.58,.22,.04,.04,.09,.04,.13,.09,.04,.04,.09,.09,.13,.09,.09,.04,.13,.13,.18,.18l.09,.09s.04,.04,.09,.09c.09,.09,.13,.18,.22,.31,0,.04,.04,.04,.04,.09,.04,.04,.04,.09,.09,.13,.04,.04,.09,.13,.09,.18l.13,.27c.18,.36,.36,.76,.54,1.16,.09,.22,.22,.49,.31,.76,.04,.09,.09,.18,.09,.27,.09,.22,.18,.4,.27,.62s.22,.45,.31,.67c.04,.09,.09,.22,.13,.31h3.79c.04-.18-.09-.45-.22-.71Zm-4.82-8.03c-.36,.49-.98,.67-1.65,.67h-1.83v-3.12h1.96c.22,0,.45,.04,.62,.09h0c.22,.09,.45,.18,.62,.31,.04,.04,.09,.04,.13,.09,.09,.09,.18,.22,.22,.31,.09,.22,.13,.45,.13,.76,0,.13,0,.27-.04,.4,0,.18-.09,.36-.18,.49Z"/><path class="e" d="M39.95,39.71v-3.3h6.29v-2.54h-6.29v-2.9h6.61v-2.54h-10.04v13.84h10.22v-2.54h-6.79Z"/><path class="e" d="M61.24,28.42l-4.46,5.13-4.46-5.13h-2.99v13.84h3.44v-8.66l3.75,4.33h.54l3.75-4.33v8.66h3.44v-13.84h-2.99Z"/></g></g></g></g></g></svg>