<?xml version="1.0" encoding="UTF-8"?><svg xmlns="http://www.w3.org/2000/svg" xmlns:xlink="http://www.w3.org/1999/xlink" viewBox="0 0 347.3 47.91"><defs><style>.d{fill:#496fb5;}</style></defs><g id="a"/><g id="b"><g id="c"><g><rect class="d" x="67.91" width="1.33" height="47.91"/><g><path class="d" d="M91.19,16.69h3.79v13.29h8.22v3.09h-12.01V16.69Z"/><path class="d" d="M104.63,16.69c0-1.15,.91-2.04,2.27-2.04s2.27,.84,2.27,1.97c0,1.22-.91,2.11-2.27,2.11s-2.27-.89-2.27-2.04Zm.44,3.79h3.65v12.59h-3.65v-12.59Z"/><path class="d" d="M125.83,26.78c0,3.96-2.74,6.48-6.27,6.48-1.69,0-3.04-.54-3.96-1.64v1.45h-3.49V15.7h3.65v6.11c.94-1.03,2.22-1.52,3.79-1.52,3.53,0,6.27,2.53,6.27,6.48Zm-3.7,0c0-2.18-1.38-3.49-3.21-3.49s-3.21,1.31-3.21,3.49,1.38,3.49,3.21,3.49,3.21-1.31,3.21-3.49Z"/><path class="d" d="M140.54,27.81h-9.53c.35,1.57,1.69,2.53,3.61,2.53,1.33,0,2.29-.4,3.16-1.22l1.94,2.11c-1.17,1.33-2.93,2.04-5.2,2.04-4.35,0-7.19-2.74-7.19-6.48s2.88-6.48,6.72-6.48,6.55,2.48,6.55,6.53c0,.28-.05,.68-.07,.98Zm-9.57-2.13h6.2c-.26-1.59-1.45-2.62-3.09-2.62s-2.86,1.01-3.11,2.62Z"/><path class="d" d="M150.87,20.29v3.37c-.3-.02-.54-.05-.82-.05-2.01,0-3.35,1.1-3.35,3.51v5.95h-3.65v-12.59h3.49v1.66c.89-1.22,2.39-1.85,4.33-1.85Z"/><path class="d" d="M161.61,32.46c-.75,.54-1.85,.8-2.97,.8-2.97,0-4.71-1.52-4.71-4.52v-5.17h-1.94v-2.81h1.94v-3.07h3.65v3.07h3.14v2.81h-3.14v5.13c0,1.08,.58,1.66,1.57,1.66,.54,0,1.08-.16,1.47-.47l.98,2.57Z"/><path class="d" d="M175.54,27.81h-9.53c.35,1.57,1.69,2.53,3.6,2.53,1.33,0,2.29-.4,3.16-1.22l1.94,2.11c-1.17,1.33-2.93,2.04-5.2,2.04-4.35,0-7.19-2.74-7.19-6.48s2.88-6.48,6.72-6.48,6.55,2.48,6.55,6.53c0,.28-.05,.68-.07,.98Zm-9.57-2.13h6.2c-.26-1.59-1.45-2.62-3.09-2.62s-2.86,1.01-3.11,2.62Zm3.75-6.81h-2.86l3.16-3.37h3.93l-4.24,3.37Z"/><path class="d" d="M176.83,31.9l1.22-2.62c1.12,.73,2.83,1.22,4.38,1.22,1.68,0,2.32-.44,2.32-1.15,0-2.06-7.61,.05-7.61-4.99,0-2.39,2.15-4.07,5.83-4.07,1.73,0,3.65,.4,4.84,1.1l-1.22,2.6c-1.24-.7-2.48-.94-3.63-.94-1.64,0-2.34,.51-2.34,1.17,0,2.15,7.61,.07,7.61,5.03,0,2.34-2.18,4-5.95,4-2.13,0-4.28-.58-5.45-1.36Z"/><path class="d" d="M209.37,27.81h-9.53c.35,1.57,1.69,2.53,3.61,2.53,1.33,0,2.29-.4,3.16-1.22l1.94,2.11c-1.17,1.33-2.93,2.04-5.2,2.04-4.35,0-7.19-2.74-7.19-6.48s2.88-6.48,6.72-6.48,6.55,2.48,6.55,6.53c0,.28-.05,.68-.07,.98Zm-9.57-2.13h6.2c-.26-1.59-1.45-2.62-3.09-2.62s-2.86,1.01-3.11,2.62Z"/><path class="d" d="M220,32.46c-.75,.54-1.85,.8-2.97,.8-2.97,0-4.71-1.52-4.71-4.52v-5.17h-1.94v-2.81h1.94v-3.07h3.65v3.07h3.14v2.81h-3.14v5.13c0,1.08,.58,1.66,1.57,1.66,.54,0,1.08-.16,1.47-.47l.98,2.57Z"/><path class="d" d="M236.81,32.46c-.75,.54-1.85,.8-2.97,.8-2.97,0-4.71-1.52-4.71-4.52v-5.17h-1.94v-2.81h1.94v-3.07h3.65v3.07h3.14v2.81h-3.14v5.13c0,1.08,.58,1.66,1.57,1.66,.54,0,1.08-.16,1.47-.47l.98,2.57Z"/><path class="d" d="M250.74,27.81h-9.53c.35,1.57,1.69,2.53,3.6,2.53,1.33,0,2.29-.4,3.16-1.22l1.94,2.11c-1.17,1.33-2.93,2.04-5.2,2.04-4.35,0-7.19-2.74-7.19-6.48s2.88-6.48,6.72-6.48,6.55,2.48,6.55,6.53c0,.28-.05,.68-.07,.98Zm-9.57-2.13h6.2c-.26-1.59-1.45-2.62-3.09-2.62s-2.86,1.01-3.11,2.62Z"/><path class="d" d="M261.07,20.29v3.37c-.3-.02-.54-.05-.82-.05-2.01,0-3.35,1.1-3.35,3.51v5.95h-3.65v-12.59h3.49v1.66c.89-1.22,2.39-1.85,4.33-1.85Z"/><path class="d" d="M271.07,20.29v3.37c-.3-.02-.54-.05-.82-.05-2.01,0-3.35,1.1-3.35,3.51v5.95h-3.65v-12.59h3.49v1.66c.89-1.22,2.39-1.85,4.33-1.85Z"/><path class="d" d="M272.8,16.69c0-1.15,.91-2.04,2.27-2.04s2.27,.84,2.27,1.97c0,1.22-.91,2.11-2.27,2.11s-2.27-.89-2.27-2.04Zm.45,3.79h3.65v12.59h-3.65v-12.59Z"/><path class="d" d="M288.42,32.46c-.75,.54-1.85,.8-2.97,.8-2.97,0-4.71-1.52-4.71-4.52v-5.17h-1.94v-2.81h1.94v-3.07h3.65v3.07h3.14v2.81h-3.14v5.13c0,1.08,.58,1.66,1.57,1.66,.54,0,1.08-.16,1.47-.47l.98,2.57Z"/><path class="d" d="M289.14,26.78c0-3.79,2.93-6.48,6.93-6.48s6.91,2.69,6.91,6.48-2.9,6.48-6.91,6.48-6.93-2.69-6.93-6.48Zm10.13,0c0-2.18-1.38-3.49-3.21-3.49s-3.23,1.31-3.23,3.49,1.4,3.49,3.23,3.49,3.21-1.31,3.21-3.49Z"/><path class="d" d="M304.97,16.69c0-1.15,.91-2.04,2.27-2.04s2.27,.84,2.27,1.97c0,1.22-.91,2.11-2.27,2.11s-2.27-.89-2.27-2.04Zm.45,3.79h3.65v12.59h-3.65v-12.59Z"/><path class="d" d="M320.28,20.29v3.37c-.3-.02-.54-.05-.82-.05-2.01,0-3.35,1.1-3.35,3.51v5.95h-3.65v-12.59h3.49v1.66c.89-1.22,2.39-1.85,4.33-1.85Z"/><path class="d" d="M334.61,27.81h-9.53c.35,1.57,1.69,2.53,3.6,2.53,1.33,0,2.29-.4,3.16-1.22l1.94,2.11c-1.17,1.33-2.93,2.04-5.2,2.04-4.35,0-7.19-2.74-7.19-6.48s2.88-6.48,6.72-6.48,6.55,2.48,6.55,6.53c0,.28-.05,.68-.07,.98Zm-9.57-2.13h6.2c-.26-1.59-1.45-2.62-3.09-2.62s-2.86,1.01-3.11,2.62Z"/><path class="d" d="M335.9,31.9l1.22-2.62c1.12,.73,2.83,1.22,4.38,1.22,1.69,0,2.32-.44,2.32-1.15,0-2.06-7.61,.05-7.61-4.99,0-2.39,2.15-4.07,5.83-4.07,1.73,0,3.65,.4,4.85,1.1l-1.22,2.6c-1.24-.7-2.48-.94-3.63-.94-1.64,0-2.34,.51-2.34,1.17,0,2.15,7.61,.07,7.61,5.03,0,2.34-2.18,4-5.95,4-2.13,0-4.28-.58-5.45-1.36Z"/></g><image transform="scale(.12)" xlink:href="../../../../../../Downloads/Logo_Libertés_&amp;_Territoires.png"/></g></g></g></svg>