<?xml version="1.0" encoding="UTF-8"?><svg id="a" xmlns="http://www.w3.org/2000/svg" viewBox="0 0 558.02 72.46"><defs><style>.b,.c{fill:#ea552b;}.c{fill-rule:evenodd;}</style></defs><rect class="b" x="85.94" width="2.02" height="72.46"/><g><path class="b" d="M143.69,49.38l-.04-14.87-7.29,12.25h-2.58l-7.26-11.93v14.55h-5.38V24.6h4.74l9.27,15.4,9.13-15.4h4.71l.07,24.78h-5.38Z"/><path class="b" d="M153.15,39.86c0-5.73,4.42-9.81,10.48-9.81s10.44,4.07,10.44,9.81-4.39,9.8-10.44,9.8-10.48-4.07-10.48-9.8Zm15.33,0c0-3.29-2.09-5.28-4.85-5.28s-4.89,1.98-4.89,5.28,2.12,5.27,4.89,5.27,4.85-1.98,4.85-5.27Z"/><path class="b" d="M196.94,30.33v19.04h-5.24v-2.27c-1.45,1.66-3.58,2.55-5.91,2.55-4.78,0-8.14-2.69-8.14-8.57v-10.76h5.52v9.95c0,3.19,1.41,4.6,3.86,4.6s4.39-1.63,4.39-5.13v-9.42h5.52Z"/><path class="b" d="M220.98,30.33l-8.04,19.04h-5.7l-8-19.04h5.7l5.28,12.96,5.45-12.96h5.31Z"/><path class="b" d="M241.27,41.41h-14.41c.53,2.37,2.55,3.82,5.45,3.82,2.02,0,3.47-.6,4.78-1.84l2.94,3.19c-1.77,2.02-4.42,3.08-7.86,3.08-6.58,0-10.87-4.14-10.87-9.8s4.35-9.81,10.16-9.81,9.91,3.75,9.91,9.88c0,.42-.07,1.03-.11,1.49Zm-14.48-3.22h9.38c-.39-2.41-2.19-3.96-4.67-3.96s-4.32,1.52-4.71,3.96Z"/><path class="b" d="M277.24,38.48v10.9h-5.52v-10.05c0-3.08-1.38-4.5-3.61-4.5-2.48,0-4.21,1.59-4.21,4.99v9.56h-5.52v-10.05c0-3.08-1.31-4.5-3.61-4.5-2.44,0-4.18,1.59-4.18,4.99v9.56h-5.52V30.33h5.28v2.19c1.41-1.63,3.54-2.48,5.98-2.48,2.66,0,4.92,1.03,6.27,3.12,1.52-1.95,4-3.12,6.87-3.12,4.53,0,7.79,2.62,7.79,8.43Z"/><path class="b" d="M300.97,41.41h-14.41c.53,2.37,2.55,3.82,5.45,3.82,2.02,0,3.47-.6,4.78-1.84l2.94,3.19c-1.77,2.02-4.42,3.08-7.86,3.08-6.59,0-10.87-4.14-10.87-9.8s4.35-9.81,10.16-9.81,9.91,3.75,9.91,9.88c0,.42-.07,1.03-.11,1.49Zm-14.48-3.22h9.38c-.39-2.41-2.19-3.96-4.67-3.96s-4.32,1.52-4.71,3.96Z"/><path class="b" d="M324.23,38.48v10.9h-5.52v-10.05c0-3.08-1.42-4.5-3.86-4.5-2.66,0-4.57,1.63-4.57,5.13v9.41h-5.52V30.33h5.27v2.23c1.49-1.63,3.72-2.51,6.3-2.51,4.5,0,7.89,2.62,7.89,8.43Z"/><path class="b" d="M341.51,48.46c-1.13,.81-2.8,1.2-4.5,1.2-4.5,0-7.12-2.3-7.12-6.83v-7.82h-2.94v-4.25h2.94v-4.64h5.52v4.64h4.74v4.25h-4.74v7.75c0,1.63,.88,2.51,2.37,2.51,.81,0,1.63-.25,2.23-.71l1.49,3.89Z"/><path class="b" d="M355.04,24.6h11.26c8.11,0,13.66,4.89,13.66,12.39s-5.56,12.39-13.66,12.39h-11.26V24.6Zm10.97,20.07c4.92,0,8.14-2.94,8.14-7.68s-3.22-7.68-8.14-7.68h-5.24v15.36h5.24Z"/><path class="b" d="M402.44,41.41h-14.41c.53,2.37,2.55,3.82,5.45,3.82,2.02,0,3.47-.6,4.78-1.84l2.94,3.19c-1.77,2.02-4.42,3.08-7.86,3.08-6.58,0-10.87-4.14-10.87-9.8s4.35-9.81,10.16-9.81,9.91,3.75,9.91,9.88c0,.42-.07,1.03-.11,1.49Zm-14.48-3.22h9.38c-.39-2.41-2.19-3.96-4.67-3.96s-4.32,1.52-4.71,3.96Zm5.66-10.3h-4.32l4.78-5.1h5.95l-6.41,5.1Z"/><path class="b" d="M438.41,38.48v10.9h-5.52v-10.05c0-3.08-1.38-4.5-3.61-4.5-2.48,0-4.21,1.59-4.21,4.99v9.56h-5.52v-10.05c0-3.08-1.31-4.5-3.61-4.5-2.44,0-4.18,1.59-4.18,4.99v9.56h-5.52V30.33h5.27v2.19c1.42-1.63,3.54-2.48,5.98-2.48,2.65,0,4.92,1.03,6.26,3.12,1.52-1.95,4-3.12,6.87-3.12,4.53,0,7.79,2.62,7.79,8.43Z"/><path class="b" d="M442.17,39.86c0-5.73,4.42-9.81,10.48-9.81s10.44,4.07,10.44,9.81-4.39,9.8-10.44,9.8-10.48-4.07-10.48-9.8Zm15.33,0c0-3.29-2.09-5.28-4.85-5.28s-4.89,1.98-4.89,5.28,2.12,5.27,4.89,5.27,4.85-1.98,4.85-5.27Z"/><path class="b" d="M465.37,39.86c0-5.73,4.42-9.81,10.62-9.81,4,0,7.15,1.74,8.53,4.85l-4.28,2.3c-1.03-1.8-2.55-2.62-4.28-2.62-2.8,0-4.99,1.95-4.99,5.28s2.19,5.27,4.99,5.27c1.73,0,3.26-.78,4.28-2.62l4.28,2.34c-1.38,3.05-4.53,4.81-8.53,4.81-6.2,0-10.62-4.07-10.62-9.8Z"/><path class="b" d="M499.53,30.05v5.1c-.46-.04-.81-.07-1.24-.07-3.04,0-5.06,1.66-5.06,5.31v8.99h-5.52V30.33h5.27v2.51c1.35-1.84,3.61-2.8,6.55-2.8Z"/><path class="b" d="M519.57,38.51v10.87h-5.17v-2.37c-1.03,1.74-3.01,2.66-5.8,2.66-4.46,0-7.12-2.48-7.12-5.77s2.37-5.7,8.18-5.7h4.39c0-2.37-1.42-3.75-4.39-3.75-2.02,0-4.11,.67-5.49,1.77l-1.98-3.86c2.09-1.49,5.17-2.3,8.21-2.3,5.81,0,9.17,2.69,9.17,8.46Zm-5.52,4.85v-1.95h-3.79c-2.58,0-3.4,.96-3.4,2.23,0,1.38,1.17,2.3,3.11,2.3,1.84,0,3.43-.85,4.07-2.58Z"/><path class="b" d="M536.85,48.46c-1.13,.81-2.8,1.2-4.5,1.2-4.5,0-7.12-2.3-7.12-6.83v-7.82h-2.94v-4.25h2.94v-4.64h5.52v4.64h4.74v4.25h-4.74v7.75c0,1.63,.89,2.51,2.37,2.51,.81,0,1.63-.25,2.23-.71l1.49,3.89Z"/><path class="b" d="M557.91,41.41h-14.41c.53,2.37,2.55,3.82,5.45,3.82,2.02,0,3.47-.6,4.78-1.84l2.94,3.19c-1.77,2.02-4.42,3.08-7.86,3.08-6.58,0-10.87-4.14-10.87-9.8s4.35-9.81,10.16-9.81,9.91,3.75,9.91,9.88c0,.42-.07,1.03-.11,1.49Zm-14.48-3.22h9.38c-.39-2.41-2.19-3.96-4.67-3.96s-4.32,1.52-4.71,3.96Z"/></g><g><path class="c" d="M8.12,44.52h-1.35v13.23c10.36,1.91,12-13.67,1.35-13.23Z"/><path class="c" d="M51.6,30.72c.17-8.95-13.86-8.95-13.69,0-.12,8.94,13.81,8.94,13.69,0Z"/><path class="c" d="M0,8.52V63.82H55.65V8.52H0Zm44.75,13.57c11.26-.16,11.29,17.45,0,17.25-11.29,.19-11.27-17.41,0-17.25ZM14.61,57.37h0c-2.62,2.52-6.33,2.08-9.7,2.1v-16.68c9.2-1.87,16.91,7.01,9.7,14.58h0Zm16.63-12.85h-6.8v4.95h6.6v1.73h-6.6v6.55h6.8v1.73h-8.66v-16.68h8.66v1.73Zm-1.04-5.46l-2.15-11.28h-.04l-5.38,11.96-5.36-11.96h-.04l-2.15,11.28h-1.91l3.39-17.63,6.07,14,6.09-14,3.39,17.63h-1.91Zm22.68,20.42l-2.15-11.28h-.04l-5.38,11.97-5.36-11.97h-.04l-2.15,11.28h-1.91l3.39-17.63,6.07,14,6.09-14,3.39,17.63h-1.91Z"/></g></svg>