<?xml version="1.0" encoding="UTF-8"?><svg xmlns="http://www.w3.org/2000/svg" viewBox="0 0 232.56 47.91"><defs><style>.d{fill:#5a5a5a;}</style></defs><g id="a"/><g id="b"><g id="c"><g><rect class="d" x="66.89" width="1.33" height="47.91"/><g><path class="d" d="M103.25,16.69v16.38h-3.11l-8.17-9.95v9.95h-3.75V16.69h3.14l8.15,9.95v-9.95h3.75Z"/><path class="d" d="M105.95,26.78c0-3.79,2.93-6.48,6.93-6.48s6.9,2.69,6.9,6.48-2.9,6.48-6.9,6.48-6.93-2.69-6.93-6.48Zm10.14,0c0-2.18-1.38-3.49-3.21-3.49s-3.23,1.31-3.23,3.49,1.4,3.49,3.23,3.49,3.21-1.31,3.21-3.49Z"/><path class="d" d="M135.09,25.86v7.21h-3.65v-6.65c0-2.04-.94-2.97-2.55-2.97-1.76,0-3.02,1.08-3.02,3.39v6.23h-3.65v-12.59h3.49v1.47c.98-1.08,2.46-1.66,4.17-1.66,2.97,0,5.22,1.73,5.22,5.57Z"/><path class="d" d="M145.28,16.69h3.79v16.38h-3.79V16.69Z"/><path class="d" d="M165.57,25.86v7.21h-3.65v-6.65c0-2.04-.94-2.97-2.55-2.97-1.76,0-3.02,1.08-3.02,3.39v6.23h-3.65v-12.59h3.49v1.47c.98-1.08,2.46-1.66,4.17-1.66,2.97,0,5.22,1.73,5.22,5.57Z"/><path class="d" d="M167.66,31.9l1.22-2.62c1.12,.73,2.83,1.22,4.38,1.22,1.68,0,2.32-.44,2.32-1.15,0-2.06-7.61,.05-7.61-4.99,0-2.39,2.15-4.07,5.83-4.07,1.73,0,3.65,.4,4.84,1.1l-1.22,2.6c-1.24-.7-2.48-.94-3.63-.94-1.64,0-2.34,.51-2.34,1.17,0,2.15,7.61,.07,7.61,5.03,0,2.34-2.18,4-5.95,4-2.13,0-4.28-.58-5.45-1.36Z"/><path class="d" d="M180.38,26.78c0-3.79,2.93-6.48,7.02-6.48,2.64,0,4.73,1.15,5.64,3.21l-2.83,1.52c-.68-1.19-1.69-1.73-2.83-1.73-1.85,0-3.3,1.29-3.3,3.49s1.45,3.49,3.3,3.49c1.15,0,2.15-.51,2.83-1.73l2.83,1.54c-.91,2.01-3,3.18-5.64,3.18-4.1,0-7.02-2.69-7.02-6.48Z"/><path class="d" d="M202.97,20.29v3.37c-.3-.02-.54-.05-.82-.05-2.01,0-3.35,1.1-3.35,3.51v5.95h-3.65v-12.59h3.49v1.66c.89-1.22,2.39-1.85,4.33-1.85Z"/><path class="d" d="M204.7,16.69c0-1.15,.91-2.04,2.27-2.04s2.27,.84,2.27,1.97c0,1.22-.91,2.11-2.27,2.11s-2.27-.89-2.27-2.04Zm.44,3.79h3.65v12.59h-3.65v-12.59Z"/><path class="d" d="M220.32,32.46c-.75,.54-1.85,.79-2.97,.79-2.97,0-4.71-1.52-4.71-4.52v-5.17h-1.94v-2.81h1.94v-3.07h3.65v3.07h3.14v2.81h-3.14v5.13c0,1.08,.58,1.66,1.57,1.66,.54,0,1.08-.16,1.47-.47l.98,2.58Z"/><path class="d" d="M221.16,31.9l1.22-2.62c1.12,.73,2.83,1.22,4.38,1.22,1.68,0,2.32-.44,2.32-1.15,0-2.06-7.61,.05-7.61-4.99,0-2.39,2.15-4.07,5.83-4.07,1.73,0,3.65,.4,4.84,1.1l-1.22,2.6c-1.24-.7-2.48-.94-3.63-.94-1.64,0-2.34,.51-2.34,1.17,0,2.15,7.61,.07,7.61,5.03,0,2.34-2.18,4-5.95,4-2.13,0-4.28-.58-5.45-1.36Z"/></g><path class="d" d="M23.44,.51C10.5,.51,0,11.01,0,23.96s10.5,23.44,23.44,23.44,23.44-10.5,23.44-23.44S36.39,.51,23.44,.51Zm3.25,30.45h-3.11l-8.17-9.95v9.95h-3.75V14.58h3.14l8.15,9.95V14.58h3.75V30.96Zm7.68,0h-3.79V14.58h3.79V30.96Z"/></g></g></g></svg>