<?xml version="1.0" encoding="UTF-8" standalone="no"?>
<!-- Created with Inkscape (http://www.inkscape.org/) -->

<svg
   width="300"
   height="50"
   viewBox="0 0 79.374999 13.229167"
   version="1.1"
   id="svg12963"
   inkscape:version="1.1.2 (b8e25be833, 2022-02-05)"
   sodipodi:docname="PA.svg"
   xmlns:inkscape="http://www.inkscape.org/namespaces/inkscape"
   xmlns:sodipodi="http://sodipodi.sourceforge.net/DTD/sodipodi-0.dtd"
   xmlns="http://www.w3.org/2000/svg"
   xmlns:svg="http://www.w3.org/2000/svg">
  <sodipodi:namedview
     id="namedview12965"
     pagecolor="#ffffff"
     bordercolor="#666666"
     borderopacity="1.0"
     inkscape:pageshadow="2"
     inkscape:pageopacity="0.0"
     inkscape:pagecheckerboard="0"
     inkscape:document-units="mm"
     showgrid="false"
     width="300mm"
     units="px"
     inkscape:zoom="4.3994184"
     inkscape:cx="93.194137"
     inkscape:cy="27.276333"
     inkscape:window-width="3840"
     inkscape:window-height="2066"
     inkscape:window-x="-11"
     inkscape:window-y="-11"
     inkscape:window-maximized="1"
     inkscape:current-layer="text20058" />
  <defs
     id="defs12960">
    <rect
       x="81.033439"
       y="3.1822388"
       width="213.77826"
       height="42.051013"
       id="rect20060" />
  </defs>
  <g
     inkscape:label="Calque 1"
     inkscape:groupmode="layer"
     id="layer1">
    <path
       style="fill:#000000;stroke-width:0.0212377"
       d="M 8.9808539,12.4775 C 8.8238246,12.077776 8.6775772,11.778079 8.5901301,11.676806 8.5302219,11.607425 8.5117577,11.562405 8.4899762,11.432572 8.4497674,11.192931 8.3553075,10.874626 8.2259008,10.5427 8.1620327,10.378882 8.1036542,10.212213 8.0961694,10.172323 c -0.00994,-0.053 0.00663,-0.135071 0.061491,-0.3048278 0.041303,-0.1277657 0.090962,-0.3224391 0.11035,-0.4326076 0.024771,-0.1406964 0.064595,-0.2635094 0.1338554,-0.4126837 L 8.5004703,8.8098272 V 8.4769924 c 0,-0.304233 0.00382,-0.3379958 0.044366,-0.3928973 C 8.6547648,7.9352679 8.9499274,7.7615 9.2994315,7.6398445 9.6644909,7.512776 9.7397034,7.4590698 9.7997488,7.2825929 9.8460164,7.1466066 9.8453603,6.8901786 9.7984099,6.7630288 9.7487145,6.6284142 9.7556369,6.5538733 9.8315825,6.4057842 9.8964381,6.2793135 9.8979311,6.2707154 9.8698364,6.1855866 9.8337415,6.0762117 9.7726015,5.9958584 9.7254,5.9957533 9.704278,5.9957107 9.7200107,5.97752 9.7641058,5.9510482 9.971761,5.8263808 9.9828108,5.7776525 9.8709611,5.4798739 9.8238701,5.3545096 9.785345,5.2414924 9.785345,5.2287248 c 0,-0.012767 0.065341,-0.091483 0.145203,-0.1749234 C 10.231307,4.7395627 10.234625,4.7597013 9.8165561,4.3617822 9.1949997,3.7701773 9.2294376,3.8204792 9.273342,3.568364 9.315894,3.3240137 9.2439854,3.091712 9.0441196,2.8276728 8.9374316,2.686741 8.8403005,2.5062241 8.7333983,2.2502079 L 8.6725026,2.1043722 8.7311187,2.0616752 C 8.9533685,1.8997758 9.0747448,1.793904 9.0800839,1.7572782 9.0911972,1.6811092 8.9955389,1.5743508 8.840267,1.489614 8.4629327,1.2836895 7.737845,1.1300735 6.9855497,1.0966759 L 6.6811818,1.0831629 6.9643105,1.0012489 C 7.7869712,0.76324032 8.4112223,0.74197902 9.2544025,0.92324992 9.714049,1.0220669 10.666317,1.361663 10.862759,1.4968184 c 0.122805,0.084493 0.23677,0.2419562 0.354053,0.4891933 0.122678,0.2586118 0.272725,0.4271755 0.474328,0.5328656 0.192692,0.1010195 0.331425,0.1338132 0.782017,0.1848528 1.066255,0.1207778 2.361638,0.3025115 2.510507,0.3522075 0.258901,0.086428 0.427081,0.2236045 0.518882,0.4232273 0.04352,0.094633 0.04872,0.1373892 0.04779,0.3928973 -8.71e-4,0.2410316 -0.01064,0.325619 -0.06129,0.5309421 C 15.28884,5.2145275 14.991708,5.7545833 14.508879,6.1845145 14.109055,6.5405349 13.659791,6.7404299 12.907286,6.8971251 12.229447,7.0382724 11.781945,7.1423256 10.645473,7.4230432 9.3706472,7.7379347 9.4120276,7.7217337 9.1444876,8.0107026 8.9955891,8.1715248 8.8931758,8.355268 8.8411909,8.554859 c -0.044477,0.1707546 -0.042224,0.2089757 0.029156,0.4951329 0.1091248,0.4373723 0.1872461,0.8906451 0.2477736,1.4376121 0.067875,0.613356 0.062368,2.195822 -0.0079,2.265716 -0.00833,0.0083 -0.066556,-0.115838 -0.1294033,-0.275822 z M 1.7032478,11.14792 C 1.680519,11.119788 1.5884993,11.007185 1.4987425,10.89769 0.78368364,10.025372 0.33616464,8.8576228 0.25384234,7.6492674 l -0.015398,-0.226101 0.3825629,-0.1274005 C 1.3674077,7.0472009 1.8280284,6.8185736 2.063343,6.5798691 2.2741013,6.3660764 2.6507661,5.9554838 2.8725908,5.69773 3.0425812,5.5002076 3.0695511,5.4572155 3.1152563,5.3109169 c 0.028285,-0.090525 0.056902,-0.1645723 0.063607,-0.1645479 0.00669,2.11e-5 0.053076,0.1130215 0.1030459,0.2511053 0.1117861,0.3088899 0.2277764,0.5152142 0.4675832,0.8317278 0.2163718,0.2855814 0.2699602,0.3415567 0.5371185,0.5610396 0.3897732,0.3202161 0.7235814,0.6788991 0.8319933,0.8939875 0.017674,0.035042 0.047222,0.1229991 0.065686,0.19546 0.084686,0.3322995 0.063547,0.5957396 -0.069947,0.8717917 C 5.0220052,8.9424235 4.9708608,8.9879129 4.6711223,9.1457107 4.4785404,9.2470958 4.4554468,9.2539097 4.2539073,9.2688109 4.1365646,9.2774909 3.9736606,9.3054019 3.891894,9.3308439 3.2789371,9.5215731 2.606015,10.091575 1.9264418,10.995687 c -0.08408,0.111859 -0.1593993,0.20338 -0.1673761,0.20338 -0.00797,0 -0.033106,-0.02302 -0.055814,-0.05115 z"
       id="path13036"
       sodipodi:nodetypes="cssssssscsssssssccssssssscsssscssssssssssssssssssccssscsssssssssssssssss" />
    <path
       style="fill:#9c0d99;stroke-width:0.113651;fill-opacity:1"
       d="m 34.306454,47.790408 c -0.06882,-0.125017 -0.365989,-0.801191 -0.660375,-1.50261 -0.294387,-0.701419 -0.724767,-1.570852 -0.9564,-1.932074 -0.303954,-0.474001 -0.506649,-1.006291 -0.728387,-1.912783 -0.168979,-0.69081 -0.542225,-1.892673 -0.829436,-2.670808 l -0.522202,-1.41479 0.289798,-1.079688 c 0.159389,-0.593829 0.370051,-1.412119 0.468137,-1.818422 0.09809,-0.406304 0.330043,-1.064121 0.515459,-1.461815 0.310571,-0.666137 0.33712,-0.82325 0.33712,-1.995019 v -1.271936 l 0.369367,-0.349802 c 0.56007,-0.530403 1.157968,-0.864163 2.519678,-1.406541 0.681962,-0.271631 1.383422,-0.614612 1.558798,-0.762182 0.531783,-0.447466 0.698225,-1.538492 0.419148,-2.747517 -0.121157,-0.524881 -0.108667,-0.639409 0.133422,-1.223493 l 0.267091,-0.644404 -0.286333,-0.536971 -0.286332,-0.536971 0.279261,-0.149456 c 0.513153,-0.274631 0.534654,-0.703742 0.09529,-1.901753 -0.100311,-0.273519 -0.182383,-0.568036 -0.182383,-0.654482 0,-0.08645 0.281287,-0.463146 0.625082,-0.837109 0.92599,-1.007246 0.933013,-0.987135 -1.038934,-2.974941 l -1.664017,-1.677399 0.07465,-0.728645 c 0.106994,-1.044314 -0.08137,-1.748972 -0.735276,-2.75066 -0.559022,-0.8563351 -1.255694,-2.1635571 -1.398515,-2.6241463 -0.06239,-0.2011928 0.05245,-0.3447439 0.667007,-0.8337583 0.414503,-0.32983 0.742368,-0.6800176 0.742368,-0.7929109 0,-1.0676922 -3.483036,-2.222727 -7.444165,-2.4686133 L 25.685213,4.0511045 26.367122,3.846042 c 3.883132,-1.16773 7.33354,-0.9490391 12.062844,0.7645574 2.651962,0.9609008 2.988553,1.2061232 3.838686,2.7966681 0.59671,1.1164051 0.984815,1.5940669 1.633315,2.0102084 0.749283,0.4808135 1.463318,0.6376611 4.740826,1.0413861 2.943131,0.362536 6.412543,0.846216 7.368331,1.027238 1.181461,0.223763 2.056794,0.802527 2.45366,1.622344 0.610004,1.260101 0.04724,4.442576 -1.239483,7.009339 -0.535284,1.067789 -1.224963,1.989176 -2.177213,2.908675 -1.851322,1.787652 -3.08411,2.286263 -8.678322,3.510021 -3.038412,0.664667 -9.968598,2.414317 -10.550022,2.663544 -0.645106,0.276524 -1.654517,1.309021 -2.056506,2.103539 -0.565903,1.118486 -0.596668,1.624961 -0.204106,3.360111 0.700375,3.095707 0.921129,4.963283 1.000832,8.467028 0.0687,3.019905 -0.04147,5.044889 -0.25351,4.659707 z"
       id="path13371"
       transform="scale(0.26458333)" />
    <path
       style="fill:#9c0d99;fill-opacity:1;stroke-width:0.113651"
       d="M 5.8440671,41.291813 C 3.0045428,37.718571 1.4159128,33.677131 1.0232556,29.027775 L 0.94561138,28.108409 2.6890077,27.513022 c 2.549313,-0.870615 4.1386613,-1.679493 5.1258653,-2.608739 1.4644765,-1.378499 3.696403,-3.976281 3.905909,-4.546162 0.106347,-0.289275 0.226861,-0.565354 0.267811,-0.613509 0.04095,-0.04816 0.235183,0.335418 0.431631,0.852385 0.641821,1.689004 1.905603,3.493492 3.304556,4.718404 1.468453,1.285766 3.030299,2.899201 3.367246,3.478468 0.367309,0.631464 0.622132,1.595363 0.624714,2.363052 0.0027,0.798926 -0.403827,1.974389 -0.855837,2.47471 -0.587007,0.649746 -1.843008,1.227697 -2.99379,1.377599 -1.780092,0.231875 -3.235399,0.964569 -5.027042,2.530932 -1.1365024,0.993599 -1.9644194,1.887883 -3.2028311,3.459576 -0.5048459,0.640709 -0.9587723,1.164926 -1.0087255,1.164926 -0.049953,0 -0.4029546,-0.392783 -0.7844473,-0.872851 z"
       id="path13447"
       transform="scale(0.26458333)" />
    <rect
       style="fill:#07305e;fill-opacity:1;stroke-width:0.0557007"
       id="rect3943"
       width="0.38892964"
       height="8.5779753"
       x="19.110643"
       y="2.4166808" />
    <path
       style="fill:#9c0d99;fill-opacity:1;stroke-width:0.113651"
       d="M 72.339107,25.344259 V 9.2057623 h 0.625083 0.625083 V 25.344259 41.482756 H 72.96419 72.339107 Z"
       id="path13727"
       transform="scale(0.26458333)" />
    <g
       aria-label="Parti Animaliste"
       transform="matrix(0.26458333,0,0,0.26458333,2.5259021,3.1874478)"
       id="text20058"
       style="font-size:21.3333px;white-space:pre">
      <path
         d="M 82.803867,20.122276 V 5.1889659 h 6.46399 q 2.00533,0 3.455994,0.6613323 1.450665,0.6399989 2.239997,1.855997 0.789332,1.2159981 0.789332,2.9013288 0,1.663997 -0.789332,2.879995 -0.789332,1.215999 -2.239997,1.877331 -1.450664,0.639999 -3.455994,0.639999 h -4.543993 l 1.535998,-1.557331 v 5.674658 z m 3.455995,-5.290659 -1.535998,-1.642664 h 4.351993 q 1.599998,0 2.38933,-0.682665 0.789332,-0.682666 0.789332,-1.898664 0,-1.2373314 -0.789332,-1.919997 -0.789332,-0.6826656 -2.38933,-0.6826656 h -4.351993 l 1.535998,-1.6426641 z"
         style="-inkscape-font-specification:Montserrat;fill:#9c0d99"
         id="path54074" />
      <path
         d="m 104.90519,20.122276 v -2.239997 l -0.21334,-0.490666 v -4.01066 q 0,-1.066665 -0.66133,-1.663997 -0.64,-0.597333 -1.984,-0.597333 -0.91733,0 -1.81333,0.298666 -0.874662,0.277333 -1.493327,0.767999 L 97.545198,9.8609585 q 0.938665,-0.6613323 2.26133,-1.0239984 1.322662,-0.3626661 2.687992,-0.3626661 2.624,0 4.07466,1.2373314 1.45067,1.2373316 1.45067,3.8613276 v 6.549323 z m -3.49866,0.170666 q -1.344,0 -2.304001,-0.447999 -0.959999,-0.469333 -1.471998,-1.258665 -0.511999,-0.789332 -0.511999,-1.770664 0,-1.023998 0.490666,-1.791997 0.511999,-0.767999 1.599997,-1.194665 1.087995,-0.447999 2.837325,-0.447999 h 3.05067 v 1.94133 h -2.688 q -1.17333,0 -1.62133,0.384 -0.42667,0.383999 -0.42667,0.959998 0,0.639999 0.49067,1.023998 0.512,0.362667 1.38666,0.362667 0.832,0 1.49333,-0.384 0.66134,-0.405333 0.96,-1.173331 l 0.512,1.535997 q -0.36266,1.109332 -1.32266,1.685331 -0.96,0.575999 -2.47466,0.575999 z"
         style="-inkscape-font-specification:Montserrat;fill:#9c0d99"
         id="path54076" />
      <path
         d="M 111.02786,20.122276 V 8.6449604 h 3.17866 v 3.2426616 l -0.448,-0.938665 q 0.512,-1.2159983 1.64266,-1.834664 1.13067,-0.639999 2.752,-0.639999 v 3.071995 q -0.21333,-0.02133 -0.384,-0.02133 -0.17067,-0.02133 -0.36267,-0.02133 -1.36533,0 -2.21866,0.789332 -0.832,0.767998 -0.832,2.410663 v 5.418658 z"
         style="-inkscape-font-specification:Montserrat;fill:#9c0d99"
         id="path54078" />
      <path
         d="m 125.23582,20.292942 q -2.02667,0 -3.15733,-1.023998 -1.13067,-1.045332 -1.13067,-3.093329 V 6.1062978 h 3.328 V 16.132949 q 0,0.725332 0.384,1.130664 0.384,0.384 1.04533,0.384 0.78933,0 1.344,-0.426666 l 0.896,2.346663 q -0.512,0.362666 -1.23734,0.554666 -0.704,0.170666 -1.47199,0.170666 z m -6.05866,-8.831986 V 8.90096 h 7.95732 v 2.559996 z"
         style="-inkscape-font-specification:Montserrat;fill:#9c0d99"
         id="path54080" />
      <path
         d="M 129.82246,20.122276 V 8.6449604 h 3.328 V 20.122276 Z m 1.664,-13.0773131 q -0.91733,0 -1.49333,-0.5333325 -0.576,-0.5333324 -0.576,-1.3226645 0,-0.7893321 0.576,-1.3226646 0.576,-0.5333325 1.49333,-0.5333325 0.91733,0 1.49333,0.5119992 0.576,0.4906659 0.576,1.279998 0,0.8319987 -0.576,1.3866644 -0.55467,0.5333325 -1.49333,0.5333325 z"
         style="-inkscape-font-specification:Montserrat;fill:#9c0d99"
         id="path54082" />
      <path
         d="m 140.55314,20.122276 6.65599,-14.9333101 h 3.41333 l 6.67732,14.9333101 h -3.62666 L 148.2118,6.9382964 h 1.36533 l -5.48266,13.1839796 z m 3.328,-3.199995 0.91733,-2.623996 h 7.67999 l 0.93866,2.623996 z"
         style="-inkscape-font-specification:Montserrat;fill:#9c0d99"
         id="path54084" />
      <path
         d="m 165.59846,8.474294 q 1.36533,0 2.43199,0.5546658 1.088,0.5333325 1.70667,1.6639972 0.61866,1.109332 0.61866,2.858662 v 6.570657 h -3.32799 v -6.058657 q 0,-1.386665 -0.61867,-2.047997 -0.59733,-0.661333 -1.70666,-0.661333 -0.78933,0 -1.42933,0.341333 -0.61867,0.32 -0.98133,1.002665 -0.34134,0.682666 -0.34134,1.749331 v 5.674658 h -3.32799 V 8.6449604 h 3.17866 v 3.1786616 l -0.59733,-0.959998 q 0.61866,-1.1519986 1.77066,-1.7706643 1.152,-0.6186657 2.624,-0.6186657 z"
         style="-inkscape-font-specification:Montserrat;fill:#9c0d99"
         id="path54086" />
      <path
         d="M 173.36378,20.122276 V 8.6449604 h 3.32799 V 20.122276 Z m 1.664,-13.0773131 q -0.91734,0 -1.49333,-0.5333325 -0.576,-0.5333324 -0.576,-1.3226645 0,-0.7893321 0.576,-1.3226646 0.57599,-0.5333325 1.49333,-0.5333325 0.91733,0 1.49333,0.5119992 0.576,0.4906659 0.576,1.279998 0,0.8319987 -0.576,1.3866644 -0.55467,0.5333325 -1.49333,0.5333325 z"
         style="-inkscape-font-specification:Montserrat;fill:#9c0d99"
         id="path54088" />
      <path
         d="m 194.48376,8.474294 q 1.36533,0 2.41066,0.5546658 1.06666,0.5333325 1.664,1.6639972 0.61866,1.109332 0.61866,2.858662 v 6.570657 h -3.32799 v -6.058657 q 0,-1.386665 -0.576,-2.047997 -0.576,-0.661333 -1.62133,-0.661333 -0.72533,0 -1.30133,0.341333 -0.576,0.32 -0.896,0.981332 -0.32,0.661332 -0.32,1.685331 v 5.759991 h -3.328 v -6.058657 q 0,-1.386665 -0.576,-2.047997 -0.55466,-0.661333 -1.59999,-0.661333 -0.72534,0 -1.30133,0.341333 -0.576,0.32 -0.896,0.981332 -0.32,0.661332 -0.32,1.685331 v 5.759991 h -3.328 V 8.6449604 h 3.17866 v 3.1359946 l -0.59733,-0.917331 q 0.59733,-1.1733319 1.68533,-1.7706643 1.10933,-0.6186657 2.51733,-0.6186657 1.57867,0 2.752,0.8106654 1.19466,0.7893316 1.57866,2.4319966 l -1.17333,-0.32 q 0.576,-1.343998 1.83466,-2.1333299 1.28,-0.7893321 2.92267,-0.7893321 z"
         style="-inkscape-font-specification:Montserrat;fill:#9c0d99"
         id="path54090" />
      <path
         d="m 209.20373,20.122276 v -2.239997 l -0.21334,-0.490666 v -4.01066 q 0,-1.066665 -0.66133,-1.663997 -0.64,-0.597333 -1.984,-0.597333 -0.91733,0 -1.81333,0.298666 -0.87466,0.277333 -1.49333,0.767999 l -1.19466,-2.3253295 q 0.93866,-0.6613323 2.26133,-1.0239984 1.32266,-0.3626661 2.68799,-0.3626661 2.624,0 4.07466,1.2373314 1.45067,1.2373316 1.45067,3.8613276 v 6.549323 z m -3.49867,0.170666 q -1.34399,0 -2.30399,-0.447999 -0.96,-0.469333 -1.472,-1.258665 -0.512,-0.789332 -0.512,-1.770664 0,-1.023998 0.49067,-1.791997 0.512,-0.767999 1.59999,-1.194665 1.088,-0.447999 2.83733,-0.447999 h 3.05067 v 1.94133 h -2.688 q -1.17333,0 -1.62133,0.384 -0.42667,0.383999 -0.42667,0.959998 0,0.639999 0.49067,1.023998 0.512,0.362667 1.38666,0.362667 0.832,0 1.49333,-0.384 0.66134,-0.405333 0.96,-1.173331 l 0.512,1.535997 q -0.36266,1.109332 -1.32266,1.685331 -0.96,0.575999 -2.47467,0.575999 z"
         style="-inkscape-font-specification:Montserrat;fill:#9c0d99"
         id="path54092" />
      <path
         d="M 215.3264,20.122276 V 4.2929673 h 3.328 V 20.122276 Z"
         style="-inkscape-font-specification:Montserrat;fill:#9c0d99"
         id="path54094" />
      <path
         d="M 221.74773,20.122276 V 8.6449604 h 3.32799 V 20.122276 Z m 1.664,-13.0773131 q -0.91734,0 -1.49334,-0.5333325 -0.57599,-0.5333324 -0.57599,-1.3226645 0,-0.7893321 0.57599,-1.3226646 0.576,-0.5333325 1.49334,-0.5333325 0.91733,0 1.49333,0.5119992 0.576,0.4906659 0.576,1.279998 0,0.8319987 -0.576,1.3866644 -0.55467,0.5333325 -1.49333,0.5333325 z"
         style="-inkscape-font-specification:Montserrat;fill:#9c0d99"
         id="path54096" />
      <path
         d="m 232.0304,20.292942 q -1.472,0 -2.83733,-0.341333 -1.344,-0.362666 -2.13333,-0.895998 l 1.10933,-2.38933 q 0.78933,0.490666 1.856,0.810665 1.08799,0.298667 2.13333,0.298667 1.15199,0 1.62133,-0.277333 0.49066,-0.277333 0.49066,-0.767999 0,-0.405333 -0.384,-0.597332 -0.36266,-0.213333 -0.98133,-0.32 -0.61866,-0.106666 -1.36533,-0.213333 -0.72533,-0.106666 -1.472,-0.277333 -0.74666,-0.192 -1.36533,-0.554666 -0.61866,-0.362666 -1.00266,-0.981331 -0.36267,-0.618666 -0.36267,-1.599998 0,-1.087998 0.61867,-1.919997 0.64,-0.8319985 1.83466,-1.3013311 1.19467,-0.4906659 2.85866,-0.4906659 1.17333,0 2.38933,0.2559996 1.216,0.2559996 2.02667,0.7466655 l -1.10934,2.3679959 q -0.83199,-0.490666 -1.68533,-0.661332 -0.832,-0.192 -1.62133,-0.192 -1.10933,0 -1.62133,0.298667 -0.512,0.298666 -0.512,0.767998 0,0.426666 0.36267,0.639999 0.384,0.213333 1.00266,0.341333 0.61867,0.128 1.344,0.234666 0.74667,0.08533 1.49333,0.277333 0.74667,0.192 1.344,0.554666 0.61867,0.341333 1.00267,0.959999 0.38399,0.597332 0.38399,1.578664 0,1.066665 -0.63999,1.898663 -0.64,0.810666 -1.856,1.279998 -1.19467,0.469333 -2.92266,0.469333 z"
         style="-inkscape-font-specification:Montserrat;fill:#9c0d99"
         id="path54098" />
      <path
         d="m 244.19038,20.292942 q -2.02666,0 -3.15733,-1.023998 -1.13066,-1.045332 -1.13066,-3.093329 V 6.1062978 h 3.32799 V 16.132949 q 0,0.725332 0.384,1.130664 0.384,0.384 1.04534,0.384 0.78933,0 1.34399,-0.426666 l 0.896,2.346663 q -0.512,0.362666 -1.23733,0.554666 -0.704,0.170666 -1.472,0.170666 z m -6.05865,-8.831986 V 8.90096 h 7.95732 v 2.559996 z"
         style="-inkscape-font-specification:Montserrat;fill:#9c0d99"
         id="path54100" />
      <path
         d="m 254.11035,20.292942 q -1.96267,0 -3.456,-0.767999 -1.472,-0.767999 -2.28266,-2.090663 -0.81067,-1.343998 -0.81067,-3.050662 0,-1.727997 0.78933,-3.050662 0.81067,-1.3439977 2.19733,-2.0906632 1.38667,-0.7679988 3.136,-0.7679988 1.68533,0 3.02933,0.7253322 1.36533,0.7039989 2.15466,2.0479968 0.78933,1.322665 0.78933,3.178662 0,0.191999 -0.0213,0.447999 -0.0213,0.234666 -0.0427,0.447999 h -9.32265 v -1.94133 h 7.57332 l -1.28,0.575999 q 0,-0.895999 -0.36266,-1.557331 -0.36267,-0.661332 -1.00267,-1.023998 -0.64,-0.384 -1.49333,-0.384 -0.85333,0 -1.51466,0.384 -0.64,0.362666 -1.00267,1.045331 -0.36266,0.661333 -0.36266,1.578665 v 0.511999 q 0,0.938665 0.40533,1.663997 0.42667,0.703999 1.17333,1.087998 0.768,0.362667 1.792,0.362667 0.91733,0 1.6,-0.277333 0.704,-0.277333 1.27999,-0.831999 l 1.77067,1.919997 q -0.78933,0.895999 -1.984,1.386664 -1.19466,0.469333 -2.75199,0.469333 z"
         style="-inkscape-font-specification:Montserrat;fill:#9c0d99"
         id="path54102" />
    </g>
  </g>
</svg>
