<?xml version="1.0" encoding="UTF-8"?><svg xmlns="http://www.w3.org/2000/svg" viewBox="0 0 302.19 47.91"><defs><style>.d{opacity:.8;}.d,.e,.f,.g{fill:#e6213e;}.d,.f,.g{isolation:isolate;}.f{opacity:.2;}.g{opacity:.5;}</style></defs><g id="a"/><g id="b"><g id="c"><g><rect class="e" x="60.55" width="1.33" height="47.91"/><g><path class="e" d="M96.09,24.91c0,3.65-2.74,5.92-7.12,5.92h-3.3v4.52h-3.79V18.96h7.09c4.38,0,7.12,2.27,7.12,5.95Zm-3.84,0c0-1.8-1.17-2.86-3.49-2.86h-3.09v5.69h3.09c2.32,0,3.49-1.05,3.49-2.83Z"/><path class="e" d="M109.55,28.16v7.19h-3.42v-1.57c-.68,1.15-1.99,1.76-3.84,1.76-2.95,0-4.7-1.64-4.7-3.81s1.57-3.77,5.41-3.77h2.9c0-1.57-.94-2.48-2.9-2.48-1.33,0-2.72,.44-3.63,1.17l-1.31-2.55c1.38-.98,3.42-1.52,5.43-1.52,3.84,0,6.06,1.78,6.06,5.59Zm-3.65,3.21v-1.29h-2.5c-1.71,0-2.25,.63-2.25,1.47,0,.91,.77,1.52,2.06,1.52,1.22,0,2.27-.56,2.69-1.71Z"/><path class="e" d="M120.67,22.57v3.37c-.3-.02-.54-.05-.82-.05-2.01,0-3.35,1.1-3.35,3.51v5.95h-3.65v-12.59h3.49v1.66c.89-1.22,2.39-1.85,4.33-1.85Z"/><path class="e" d="M131.42,34.74c-.75,.54-1.85,.8-2.97,.8-2.97,0-4.71-1.52-4.71-4.52v-5.17h-1.94v-2.81h1.94v-3.07h3.65v3.07h3.14v2.81h-3.14v5.13c0,1.08,.58,1.66,1.57,1.66,.54,0,1.08-.16,1.47-.47l.98,2.57Z"/><path class="e" d="M133.04,18.96c0-1.15,.91-2.04,2.27-2.04s2.27,.84,2.27,1.97c0,1.22-.91,2.11-2.27,2.11s-2.27-.89-2.27-2.04Zm.44,3.79h3.65v12.59h-3.65v-12.59Z"/><path class="e" d="M146.38,27.16c0-4.94,3.79-8.47,8.89-8.47,2.83,0,5.2,1.03,6.74,2.9l-2.43,2.25c-1.1-1.26-2.48-1.92-4.12-1.92-3.07,0-5.24,2.15-5.24,5.24s2.18,5.24,5.24,5.24c1.64,0,3.02-.66,4.12-1.94l2.43,2.25c-1.54,1.9-3.91,2.93-6.76,2.93-5.08,0-8.87-3.53-8.87-8.47Z"/><path class="e" d="M162.94,29.05c0-3.79,2.93-6.48,6.93-6.48s6.9,2.69,6.9,6.48-2.9,6.48-6.9,6.48-6.93-2.69-6.93-6.48Zm10.14,0c0-2.18-1.38-3.49-3.21-3.49s-3.23,1.31-3.23,3.49,1.4,3.49,3.23,3.49,3.21-1.31,3.21-3.49Z"/><path class="e" d="M200.48,28.14v7.21h-3.65v-6.65c0-2.04-.91-2.97-2.39-2.97-1.64,0-2.79,1.05-2.79,3.3v6.32h-3.65v-6.65c0-2.04-.87-2.97-2.39-2.97-1.61,0-2.76,1.05-2.76,3.3v6.32h-3.65v-12.59h3.49v1.45c.94-1.08,2.34-1.64,3.96-1.64,1.76,0,3.25,.68,4.14,2.06,1.01-1.29,2.65-2.06,4.54-2.06,3,0,5.15,1.73,5.15,5.57Z"/><path class="e" d="M225.04,28.14v7.21h-3.65v-6.65c0-2.04-.91-2.97-2.39-2.97-1.64,0-2.79,1.05-2.79,3.3v6.32h-3.65v-6.65c0-2.04-.87-2.97-2.39-2.97-1.61,0-2.76,1.05-2.76,3.3v6.32h-3.65v-12.59h3.49v1.45c.94-1.08,2.34-1.64,3.96-1.64,1.76,0,3.25,.68,4.14,2.06,1.01-1.29,2.64-2.06,4.54-2.06,3,0,5.15,1.73,5.15,5.57Z"/><path class="e" d="M241.01,22.76v12.59h-3.46v-1.5c-.96,1.1-2.36,1.69-3.91,1.69-3.16,0-5.38-1.78-5.38-5.66v-7.12h3.65v6.58c0,2.11,.94,3.04,2.55,3.04s2.9-1.08,2.9-3.39v-6.23h3.65Z"/><path class="e" d="M257.29,28.14v7.21h-3.65v-6.65c0-2.04-.94-2.97-2.55-2.97-1.76,0-3.02,1.08-3.02,3.39v6.23h-3.65v-12.59h3.49v1.47c.98-1.08,2.46-1.66,4.17-1.66,2.97,0,5.22,1.73,5.22,5.57Z"/><path class="e" d="M260.15,18.96c0-1.15,.91-2.04,2.27-2.04s2.27,.84,2.27,1.97c0,1.22-.91,2.11-2.27,2.11s-2.27-.89-2.27-2.04Zm.45,3.79h3.65v12.59h-3.65v-12.59Z"/><path class="e" d="M266.42,34.18l1.22-2.62c1.12,.73,2.83,1.22,4.38,1.22,1.69,0,2.32-.44,2.32-1.15,0-2.06-7.61,.05-7.61-4.99,0-2.39,2.15-4.07,5.83-4.07,1.73,0,3.65,.4,4.85,1.1l-1.22,2.6c-1.24-.7-2.48-.94-3.63-.94-1.64,0-2.34,.51-2.34,1.17,0,2.15,7.61,.07,7.61,5.03,0,2.34-2.18,4-5.95,4-2.13,0-4.28-.58-5.45-1.36Z"/><path class="e" d="M288.19,34.74c-.75,.54-1.85,.8-2.97,.8-2.97,0-4.71-1.52-4.71-4.52v-5.17h-1.94v-2.81h1.94v-3.07h3.65v3.07h3.14v2.81h-3.14v5.13c0,1.08,.58,1.66,1.57,1.66,.54,0,1.08-.16,1.47-.47l.98,2.57Z"/><path class="e" d="M302.12,30.08h-9.53c.35,1.57,1.69,2.53,3.6,2.53,1.33,0,2.29-.4,3.16-1.22l1.94,2.11c-1.17,1.33-2.93,2.04-5.2,2.04-4.35,0-7.19-2.74-7.19-6.48s2.88-6.48,6.72-6.48,6.55,2.48,6.55,6.53c0,.28-.05,.68-.07,.98Zm-9.57-2.13h6.2c-.26-1.59-1.45-2.62-3.09-2.62s-2.86,1.01-3.11,2.62Z"/></g><g><path class="d" d="M36.81,17.93c-.37-2.11-.94-4.17-1.7-6.15l-1.57,.27c1.03,2.63,1.72,5.38,2.04,8.23l1.23-2.34Z"/><path class="d" d="M34.85,21.64c-.24-3.28-.97-6.46-2.16-9.46l-.81,.14-.79,.13c1.48,3.59,2.26,7.48,2.26,11.48s-.79,7.95-2.29,11.57l1.6,.28c1.2-2.99,1.94-6.18,2.18-9.46l-1.23-2.34,1.23-2.34Z"/><path class="e" d="M29.27,17.17c-.37-1.44-.87-2.84-1.47-4.18l-1.62,.26c.63,1.35,1.14,2.75,1.52,4.19l1.57-.27Z"/><path class="e" d="M30.09,30.92c-.36,1.43-.85,2.82-1.44,4.17l1.56,.27c.57-1.35,1.04-2.74,1.4-4.18l-1.52-.26Z"/><path class="e" d="M29.96,20.96l-1.43,2.7c0,.09,0,.18,0,.28,0,.11,0,.22,0,.33l1.43,2.7c.11-1.01,.17-2.02,.17-3.04s-.06-1.99-.17-2.97Z"/><path class="d" d="M35.57,27.69c-.32,2.85-1.01,5.61-2.05,8.24l1.57,.27c.76-1.99,1.34-4.05,1.71-6.16l-1.23-2.34Z"/><path class="g" d="M40.55,10.83l-2.16,.37c.28,.76,.52,1.53,.75,2.31l1.41-2.68Z"/><path class="g" d="M37.54,11.35l-1.59,.28c.62,1.65,1.12,3.37,1.48,5.11l1.12-2.12c-.28-1.11-.62-2.2-1.01-3.26Z"/><path class="g" d="M35.93,36.34l1.59,.27c.39-1.07,.73-2.16,1.02-3.27l-1.12-2.12c-.36,1.75-.86,3.46-1.49,5.13Z"/><path class="g" d="M39.13,34.43c-.23,.78-.48,1.56-.75,2.32l2.17,.37-1.42-2.69Z"/><path class="e" d="M26.19,34.67l1.61,.28c.6-1.35,1.09-2.73,1.46-4.16l-1.57-.27c-.38,1.43-.88,2.81-1.5,4.15Z"/><path class="e" d="M30.97,23.93c0,1.47-.11,2.91-.33,4.33l1.14,2.17c.48-2.11,.73-4.29,.73-6.5s-.25-4.35-.72-6.44l-1.15,2.18c.22,1.39,.33,2.82,.33,4.26Z"/><path class="e" d="M15.93,44.78l8.65-8.86c.98-1.75,1.74-3.61,2.26-5.55l-2.78-.48-5.78,5.9-1.19-8.18-7.43-3.64,7.42-3.68,1.19-8.19,5.79,5.96,2.79-.48c-.53-1.96-1.29-3.84-2.29-5.61L15.61,2.81s-.1-.06-.15-.08l-2.12,14.65L0,24l13.33,6.54,2.13,14.65s.11-.06,.15-.09l.32-.31Z"/><path class="e" d="M31.63,16.76c-.36-1.43-.83-2.82-1.39-4.18l-1.57,.25c.59,1.35,1.08,2.75,1.44,4.18l1.52-.26Z"/><path class="e" d="M15.47,2.67v.06s.09,.06,.14,.08l-.14-.14Z"/><path class="e" d="M15.48,45.24h0l.14-.14s-.11,.06-.15,.09l.02,.05h0Z"/><path class="e" d="M32.23,31.29l-.45-.85c-.06,.25-.11,.49-.17,.75l.62,.11Z"/><path class="e" d="M32.23,16.66l-.61,.11c.06,.24,.11,.49,.16,.73l.45-.84Z"/><g><path class="f" d="M26.85,30.37c-.52,1.94-1.28,3.8-2.26,5.55l1.27-1.31,.32,.06c.62-1.34,1.12-2.72,1.5-4.16l-.83-.14Z"/><path class="f" d="M26.18,13.24l-.31,.05-1.29-1.32c1,1.77,1.76,3.65,2.29,5.61l.84-.15c-.39-1.44-.89-2.85-1.52-4.19Z"/><path class="f" d="M29.27,17.17l.84-.15c-.36-1.44-.85-2.83-1.44-4.18l-.86,.14c.61,1.35,1.1,2.75,1.47,4.19Z"/><path class="f" d="M28.54,23.66l-.16,.31,.16,.3c0-.11,0-.22,0-.33,0-.1,0-.19,0-.28Z"/><path class="f" d="M29.26,30.78c-.37,1.43-.86,2.82-1.46,4.16l.86,.15c.59-1.35,1.07-2.74,1.44-4.17l-.84-.14Z"/><path class="f" d="M30.13,23.94c0,1.02-.06,2.04-.17,3.04l.68,1.29c.22-1.42,.33-2.86,.33-4.33s-.11-2.86-.33-4.27l-.68,1.29c.11,.98,.17,1.97,.17,2.98Z"/><path class="f" d="M34.85,26.32c-.24,3.28-.98,6.46-2.18,9.46l.85,.14c1.04-2.63,1.73-5.39,2.05-8.24l-.72-1.35Z"/><path class="f" d="M34.85,21.64l.72-1.37c-.32-2.85-1.01-5.6-2.04-8.23l-.84,.15c1.19,2.99,1.92,6.18,2.16,9.46Z"/><path class="f" d="M33.35,23.93c0-4.01-.78-7.89-2.26-11.48l-.86,.14c.57,1.35,1.04,2.75,1.39,4.18l.61-.11-.44,.84c.47,2.09,.72,4.25,.72,6.44s-.25,4.4-.73,6.5l.45,.85-.62-.11c-.36,1.43-.84,2.82-1.4,4.18l.85,.15c1.51-3.62,2.29-7.53,2.29-11.57Z"/><path class="f" d="M37.44,16.73c-.36-1.74-.86-3.45-1.48-5.11l-.84,.15c.75,1.99,1.33,4.05,1.7,6.15l.62-1.19Z"/><path class="f" d="M37.43,31.22l-.62-1.19c-.37,2.12-.95,4.18-1.71,6.16l.84,.15c.62-1.66,1.12-3.37,1.49-5.12Z"/><path class="f" d="M38.55,33.35c-.29,1.1-.63,2.2-1.02,3.27l.84,.15c.28-.76,.53-1.54,.75-2.32l-.58-1.09Z"/><path class="f" d="M38.56,14.61l.58-1.09c-.23-.78-.47-1.55-.75-2.31l-.84,.15c.39,1.06,.72,2.15,1.01,3.25Z"/></g></g></g></g></g></svg>