<?xml version="1.0" encoding="UTF-8" standalone="no"?>
<!-- Created with Inkscape (http://www.inkscape.org/) -->

<svg
   width="300"
   height="50"
   viewBox="0 0 79.374999 13.229167"
   version="1.1"
   id="svg12963"
   inkscape:version="1.1.2 (b8e25be833, 2022-02-05)"
   sodipodi:docname="PP.svg"
   xmlns:inkscape="http://www.inkscape.org/namespaces/inkscape"
   xmlns:sodipodi="http://sodipodi.sourceforge.net/DTD/sodipodi-0.dtd"
   xmlns="http://www.w3.org/2000/svg"
   xmlns:svg="http://www.w3.org/2000/svg">
  <sodipodi:namedview
     id="namedview12965"
     pagecolor="#ffffff"
     bordercolor="#666666"
     borderopacity="1.0"
     inkscape:pageshadow="2"
     inkscape:pageopacity="0.0"
     inkscape:pagecheckerboard="0"
     inkscape:document-units="mm"
     showgrid="false"
     width="300mm"
     units="px"
     inkscape:zoom="8.7988368"
     inkscape:cx="199.57183"
     inkscape:cy="29.890315"
     inkscape:window-width="3840"
     inkscape:window-height="2066"
     inkscape:window-x="-11"
     inkscape:window-y="-11"
     inkscape:window-maximized="1"
     inkscape:current-layer="text69203" />
  <defs
     id="defs12960">
    <rect
       x="81.033439"
       y="3.1822388"
       width="213.77826"
       height="42.051013"
       id="rect20060" />
  </defs>
  <g
     inkscape:label="Calque 1"
     inkscape:groupmode="layer"
     id="layer1">
    <rect
       style="fill:#07305e;fill-opacity:1;stroke-width:0.0557007"
       id="rect3943"
       width="0.38892964"
       height="8.5779753"
       x="19.110643"
       y="2.4166808" />
    <path
       style="fill:#9c0d99;fill-opacity:1;stroke-width:0.113651"
       d="M 72.339107,25.344259 V 9.2057623 h 0.625083 0.625083 V 25.344259 41.482756 H 72.96419 72.339107 Z"
       id="path13727"
       transform="scale(0.26458333)" />
    <g
       aria-label="Parti Animaliste"
       transform="matrix(0.26458333,0,0,0.26458333,2.5259021,3.1874478)"
       id="text20058"
       style="font-size:21.3333px;white-space:pre">
      <g
         aria-label="Lutte Ouvrière"
         id="text69203"
         style="font-size:24px;line-height:1.25">
        <g
           aria-label="Parti Pirate"
           id="text80493">
          <path
             d="M 81.320674,22.16202 V 5.3620197 h 7.272 q 2.256,0 3.888,0.744 1.632,0.72 2.52,2.088 0.888,1.368 0.888,3.2640003 0,1.872 -0.888,3.24 -0.888,1.368 -2.52,2.112 -1.632,0.72 -3.888,0.72 h -5.112 l 1.728,-1.752 v 6.384 z m 3.888,-5.952 -1.728,-1.848 h 4.896 q 1.8,0 2.688,-0.768 0.888,-0.768 0.888,-2.136 0,-1.392 -0.888,-2.1600003 -0.888,-0.768 -2.688,-0.768 h -4.896 l 1.728,-1.848 z"
             style="font-family:Montserrat;-inkscape-font-specification:Montserrat"
             id="path84367" />
          <path
             d="m 106.1847,22.16202 v -2.52 l -0.24,-0.552 v -4.512 q 0,-1.2 -0.744,-1.872 -0.72,-0.672 -2.232,-0.672 -1.032,0 -2.04,0.336 -0.984003,0.312 -1.680003,0.864 l -1.344,-2.616 q 1.056,-0.7440003 2.544003,-1.1520003 1.488,-0.408 3.024,-0.408 2.952,0 4.584,1.3920003 1.632,1.392 1.632,4.344 v 7.368 z m -3.936,0.192 q -1.512,0 -2.592003,-0.504 -1.08,-0.528 -1.656,-1.416 -0.576,-0.888 -0.576,-1.992 0,-1.152 0.552,-2.016 0.576,-0.864 1.8,-1.344 1.224003,-0.504 3.192003,-0.504 h 3.432 v 2.184 h -3.024 q -1.32,0 -1.824,0.432 -0.48,0.432 -0.48,1.08 0,0.72 0.552,1.152 0.576,0.408 1.56,0.408 0.936,0 1.68,-0.432 0.744,-0.456 1.08,-1.32 l 0.576,1.728 q -0.408,1.248 -1.488,1.896 -1.08,0.648 -2.784,0.648 z"
             style="font-family:Montserrat;-inkscape-font-specification:Montserrat"
             id="path84369" />
          <path
             d="M 113.07271,22.16202 V 9.2500197 h 3.576 V 12.89802 l -0.504,-1.056 q 0.576,-1.368 1.848,-2.0640003 1.272,-0.72 3.096,-0.72 V 12.51402 q -0.24,-0.024 -0.432,-0.024 -0.192,-0.024 -0.408,-0.024 -1.536,0 -2.496,0.888 -0.936,0.864 -0.936,2.712 v 6.096 z"
             style="font-family:Montserrat;-inkscape-font-specification:Montserrat"
             id="path84371" />
          <path
             d="m 129.05669,22.35402 q -2.28,0 -3.552,-1.152 -1.272,-1.176 -1.272,-3.48 V 6.3940197 h 3.744 V 17.67402 q 0,0.816 0.432,1.272 0.432,0.432 1.176,0.432 0.888,0 1.512,-0.48 l 1.008,2.64 q -0.576,0.408 -1.392,0.624 -0.792,0.192 -1.656,0.192 z m -6.816,-9.936 V 9.5380197 h 8.952 V 12.41802 Z"
             style="font-family:Montserrat;-inkscape-font-specification:Montserrat"
             id="path84373" />
          <path
             d="M 134.21668,22.16202 V 9.2500197 h 3.744 V 22.16202 Z m 1.872,-14.7120003 q -1.032,0 -1.68,-0.6 -0.648,-0.6 -0.648,-1.488 0,-0.888 0.648,-1.488 0.648,-0.6 1.68,-0.6 1.032,0 1.68,0.576 0.648,0.552 0.648,1.44 0,0.936 -0.648,1.56 -0.624,0.6 -1.68,0.6 z"
             style="font-family:Montserrat;-inkscape-font-specification:Montserrat"
             id="path84375" />
          <path
             d="M 148.49671,22.16202 V 5.3620197 h 7.272 q 2.256,0 3.888,0.744 1.632,0.72 2.52,2.088 0.888,1.368 0.888,3.2640003 0,1.872 -0.888,3.24 -0.888,1.368 -2.52,2.112 -1.632,0.72 -3.888,0.72 h -5.112 l 1.728,-1.752 v 6.384 z m 3.888,-5.952 -1.728,-1.848 h 4.896 q 1.8,0 2.688,-0.768 0.888,-0.768 0.888,-2.136 0,-1.392 -0.888,-2.1600003 -0.888,-0.768 -2.688,-0.768 h -4.896 l 1.728,-1.848 z"
             style="font-family:Montserrat;-inkscape-font-specification:Montserrat"
             id="path84377" />
          <path
             d="M 165.80072,22.16202 V 9.2500197 h 3.744 V 22.16202 Z m 1.872,-14.7120003 q -1.032,0 -1.68,-0.6 -0.648,-0.6 -0.648,-1.488 0,-0.888 0.648,-1.488 0.648,-0.6 1.68,-0.6 1.032,0 1.68,0.576 0.648,0.552 0.648,1.44 0,0.936 -0.648,1.56 -0.624,0.6 -1.68,0.6 z"
             style="font-family:Montserrat;-inkscape-font-specification:Montserrat"
             id="path84379" />
          <path
             d="M 173.02474,22.16202 V 9.2500197 h 3.576 V 12.89802 l -0.504,-1.056 q 0.576,-1.368 1.848,-2.0640003 1.272,-0.72 3.096,-0.72 V 12.51402 q -0.24,-0.024 -0.432,-0.024 -0.192,-0.024 -0.408,-0.024 -1.536,0 -2.496,0.888 -0.936,0.864 -0.936,2.712 v 6.096 z"
             style="font-family:Montserrat;-inkscape-font-specification:Montserrat"
             id="path84381" />
          <path
             d="m 190.35274,22.16202 v -2.52 l -0.24,-0.552 v -4.512 q 0,-1.2 -0.744,-1.872 -0.72,-0.672 -2.232,-0.672 -1.032,0 -2.04,0.336 -0.984,0.312 -1.68,0.864 l -1.344,-2.616 q 1.056,-0.7440003 2.544,-1.1520003 1.488,-0.408 3.024,-0.408 2.952,0 4.584,1.3920003 1.632,1.392 1.632,4.344 v 7.368 z m -3.936,0.192 q -1.512,0 -2.592,-0.504 -1.08,-0.528 -1.656,-1.416 -0.576,-0.888 -0.576,-1.992 0,-1.152 0.552,-2.016 0.576,-0.864 1.8,-1.344 1.224,-0.504 3.192,-0.504 h 3.432 v 2.184 h -3.024 q -1.32,0 -1.824,0.432 -0.48,0.432 -0.48,1.08 0,0.72 0.552,1.152 0.576,0.408 1.56,0.408 0.936,0 1.68,-0.432 0.744,-0.456 1.08,-1.32 l 0.576,1.728 q -0.408,1.248 -1.488,1.896 -1.08,0.648 -2.784,0.648 z"
             style="font-family:Montserrat;-inkscape-font-specification:Montserrat"
             id="path84383" />
          <path
             d="m 202.52076,22.35402 q -2.28,0 -3.552,-1.152 -1.272,-1.176 -1.272,-3.48 V 6.3940197 h 3.744 V 17.67402 q 0,0.816 0.432,1.272 0.432,0.432 1.176,0.432 0.888,0 1.512,-0.48 l 1.008,2.64 q -0.576,0.408 -1.392,0.624 -0.792,0.192 -1.656,0.192 z m -6.816,-9.936 V 9.5380197 h 8.952 V 12.41802 Z"
             style="font-family:Montserrat;-inkscape-font-specification:Montserrat"
             id="path84385" />
          <path
             d="m 213.68074,22.35402 q -2.208,0 -3.888,-0.864 -1.656,-0.864 -2.568,-2.352 -0.912,-1.512 -0.912,-3.432 0,-1.944 0.888,-3.432 0.912,-1.512 2.472,-2.3520003 1.56,-0.864 3.528,-0.864 1.896,0 3.408,0.816 1.536,0.7920003 2.424,2.3040003 0.888,1.488 0.888,3.576 0,0.216 -0.024,0.504 -0.024,0.264 -0.048,0.504 h -10.488 v -2.184 h 8.52 l -1.44,0.648 q 0,-1.008 -0.408,-1.752 -0.408,-0.744 -1.128,-1.152 -0.72,-0.432 -1.68,-0.432 -0.96,0 -1.704,0.432 -0.72,0.408 -1.128,1.176 -0.408,0.744 -0.408,1.776 v 0.576 q 0,1.056 0.456,1.872 0.48,0.792 1.32,1.224 0.864,0.408 2.016,0.408 1.032,0 1.8,-0.312 0.792,-0.312 1.44,-0.936 l 1.992,2.16 q -0.888,1.008 -2.232,1.56 -1.344,0.528 -3.096,0.528 z"
             style="font-family:Montserrat;-inkscape-font-specification:Montserrat"
             id="path84387" />
        </g>
        <path
           style="fill:#000000;stroke-width:0.0934296"
           d="M 20.248229,35.70131 C 13.671612,35.00676 7.719723,31.62898 3.76222,26.345278 1.891681,23.847897 0.45496901,20.781717 -0.27708799,17.724716 c -0.480713,-2.007424 -0.598588,-3.067141 -0.602743,-5.418911 -0.0048,-2.7455094 0.239274,-4.5233574 0.939128,-6.8392074 C 1.2555,1.5083136 3.228985,-1.7204804 6.277068,-4.7062194 c 3.563508,-3.490621 7.97332,-5.6695126 13.066792,-6.4563036 1.510092,-0.233263 5.123411,-0.233263 6.633499,0 4.026788,0.622024 7.630684,2.1232876 10.866729,4.5267306 1.171186,0.869852 3.191927,2.8348 4.202329,4.086303 2.721135,3.37044805 4.389644,7.299456 5.038872,11.86555 0.181903,1.2793464 0.150991,4.8848324 -0.05327,6.2130634 -0.614632,3.996699 -2.154903,7.721205 -4.473022,10.816154 -3.972457,5.303669 -10.020981,8.722865 -16.555522,9.358737 -1.163211,0.113189 -3.671346,0.111766 -4.755248,-0.0026 z m 5.491648,-2.651618 c 4.708841,-0.72855 8.902008,-2.877725 12.153886,-6.229377 3.080059,-3.174554 5.048051,-7.073838 5.793039,-11.478051 0.204104,-1.206622 0.283422,-4.273308 0.142639,-5.5147914 -0.842853,-7.432543 -5.211171,-13.679919 -11.825879,-16.912847 -2.949175,-1.441403 -6.011853,-2.144326 -9.34295,-2.144326 -3.331102,0 -6.39378,0.702923 -9.342955,2.144326 -6.614704,3.232928 -10.983026,9.480304 -11.825879,16.912847 -0.140783,1.2414834 -0.06147,4.3081694 0.142639,5.5147914 1.00813,5.959846 4.333676,11.101471 9.305573,14.387349 2.900243,1.91674 6.202692,3.100917 9.618454,3.448947 1.184168,0.120653 4.025437,0.04999 5.181433,-0.128868 z M 13.517619,27.257506 c -1.029091,-2.688597 -1.171272,-5.05278 -0.432938,-7.198787 0.181475,-0.527468 0.186264,-0.795254 0.186264,-10.4209324 v -9.87955095 l -0.770794,-0.07942 -0.770794,-0.07943 0.527532,-0.298982 c 0.497178,-0.281771 0.783665,-0.57913205 0.972137,-1.00903405 0.04506,-0.102771 0.104456,-0.922617 0.131994,-1.821876 l 0.05007,-1.635016 0.965911,-0.07738 c 0.53125,-0.04257 0.987229,-0.05607 1.01328,-0.03001 0.02607,0.02607 0.07599,0.69963 0.110972,1.496839 0.03499,0.797209 0.09263,1.478507 0.128118,1.513994 0.0355,0.0355 1.085471,-0.05187 2.333295,-0.194136 5.025096,-0.572889 8.360833,-0.370243 11.571235,0.702958 2.373851,0.79354805 3.980698,1.74784405 5.367329,3.18761 1.554021,1.613578 2.391999,3.242025 2.805816,5.452542 0.19874,1.061633 0.144075,3.5216574 -0.09744,4.3846874 -0.260502,0.930905 -0.769024,1.820161 -1.437094,2.513069 -1.047558,1.0865 -1.869561,1.472079 -5.217483,2.447359 -1.912512,0.557129 -8.17408,2.118752 -9.742579,2.429781 -1.632135,0.323647 -2.568759,0.620789 -3.55032,1.126344 -1.382206,0.71191 -2.348975,1.661396 -2.940909,2.888345 -0.519704,1.077231 -0.634753,1.675134 -0.695172,3.612775 -0.02993,0.9593 -0.07996,1.769684 -0.111221,1.80085 -0.03125,0.03117 -0.210004,-0.343502 -0.397211,-0.832598 z m 3.150703,-11.087652 c 3.936482,-2.215357 5.755841,-4.743804 5.758057,-8.0022474 0.0017,-2.326809 -0.842505,-4.342405 -2.463231,-5.881935 -1.097421,-1.042446 -2.640964,-1.83836895 -3.959394,-2.04164995 l -0.397074,-0.06123 V 8.4165316 c 0,5.9841734 0.02843,8.2337394 0.103988,8.2337394 0.0572,0 0.488135,-0.216191 0.957654,-0.480422 z"
           id="path77823" />
      </g>
    </g>
    <path
       style="fill:#ed1b25;fill-opacity:1;stroke-width:0.113651"
       d="m 73.64456,25.344259 c 0,-8.907427 0.01347,-12.551375 0.02994,-8.097661 0.01647,4.453714 0.01647,11.741609 0,16.195322 -0.01647,4.453714 -0.02994,0.809767 -0.02994,-8.097661 z"
       id="path55097"
       transform="scale(0.26458333)" />
    <path
       style="fill:#ed1b25;fill-opacity:1;stroke-width:0.113651"
       d="m 73.627483,18.411525 c 0,-0.468812 0.02006,-0.660599 0.04458,-0.426193 0.02452,0.234406 0.02452,0.617979 0,0.852385 -0.02452,0.234406 -0.04458,0.04262 -0.04458,-0.426192 z"
       id="path55136"
       transform="scale(0.26458333)" />
    <path
       style="fill:#000000;fill-opacity:1;stroke-width:0.113651"
       d="M 72.339107,25.344259 V 9.2057623 h 0.625083 0.625083 V 25.344259 41.482756 H 72.96419 72.339107 Z"
       id="path55175"
       transform="scale(0.26458333)" />
  </g>
</svg>
