<?xml version="1.0" encoding="UTF-8"?><svg xmlns="http://www.w3.org/2000/svg" viewBox="0 0 262.93 47.91"><defs><style>.d{fill:#fff;}.e{fill:#c4cf06;}.f{fill:#e50741;}.g{fill:#eb5599;}.h{fill:#010101;}</style></defs><g id="a"/><g id="b"><g id="c"><g><g><g><path class="f" d="M3.98,37.86c-.14-.1-.31-.15-.53-.15-.09,0-.17,0-.26,.03-.08,.02-.16,.05-.22,.09-.07,.04-.12,.09-.16,.16-.04,.07-.06,.15-.06,.25,0,.09,.03,.17,.08,.23s.13,.11,.23,.14,.2,.07,.32,.09,.24,.05,.36,.08c.12,.03,.25,.06,.36,.1,.12,.04,.23,.09,.32,.16s.17,.15,.23,.25,.08,.23,.08,.38c0,.17-.04,.31-.11,.42-.08,.12-.17,.21-.29,.29-.12,.08-.25,.13-.39,.16s-.29,.05-.43,.05c-.17,0-.34-.02-.49-.07s-.29-.11-.41-.2-.21-.2-.28-.34-.1-.3-.1-.49h.39c0,.13,.03,.24,.08,.34,.05,.09,.12,.17,.2,.23,.08,.06,.18,.11,.29,.14s.22,.04,.34,.04c.09,0,.19,0,.28-.03,.09-.02,.18-.05,.25-.09,.08-.04,.14-.1,.18-.17s.07-.17,.07-.28c0-.11-.03-.19-.08-.26-.06-.07-.13-.12-.23-.16s-.2-.08-.32-.1c-.12-.03-.24-.05-.36-.08-.12-.03-.25-.06-.36-.09-.12-.04-.23-.08-.32-.14s-.17-.14-.23-.23-.08-.21-.08-.36c0-.16,.03-.29,.1-.41,.06-.11,.15-.21,.25-.28,.11-.08,.23-.13,.36-.17,.14-.03,.27-.05,.41-.05,.16,0,.31,.02,.44,.06,.14,.04,.26,.1,.36,.18,.1,.08,.19,.18,.25,.31,.06,.12,.09,.27,.1,.44h-.39c-.02-.22-.1-.38-.24-.48Z"/><path class="f" d="M5.16,38.37c.06-.19,.16-.37,.28-.52,.13-.15,.28-.27,.47-.36s.4-.14,.65-.14,.46,.04,.65,.14,.34,.21,.47,.36c.13,.15,.22,.32,.28,.52s.09,.4,.09,.61-.03,.41-.09,.61c-.06,.19-.16,.37-.28,.52-.13,.15-.28,.27-.47,.36s-.4,.13-.65,.13-.46-.04-.65-.13c-.19-.09-.34-.21-.47-.36-.13-.15-.22-.32-.28-.52-.06-.19-.09-.4-.09-.61s.03-.41,.09-.61Zm.38,1.07c.04,.15,.1,.29,.19,.41,.09,.12,.2,.22,.34,.29,.14,.08,.3,.11,.49,.11s.35-.04,.49-.11c.14-.08,.25-.17,.34-.29,.09-.12,.15-.26,.19-.41,.04-.15,.06-.31,.06-.46s-.02-.31-.06-.46c-.04-.15-.1-.29-.19-.41-.09-.12-.2-.22-.34-.29-.14-.08-.3-.11-.49-.11s-.35,.04-.49,.11c-.14,.08-.25,.17-.34,.29-.09,.12-.15,.26-.19,.41-.04,.15-.06,.31-.06,.46s.02,.31,.06,.46Z"/><path class="f" d="M10.43,37.87c-.16-.11-.35-.17-.56-.17-.19,0-.35,.03-.48,.1-.13,.07-.24,.16-.33,.28-.08,.12-.15,.25-.19,.4s-.06,.31-.06,.47c0,.18,.02,.35,.06,.5s.1,.3,.19,.41,.19,.21,.33,.28c.13,.07,.29,.1,.48,.1,.14,0,.26-.02,.36-.07s.2-.11,.27-.19c.08-.08,.14-.18,.18-.29,.04-.11,.07-.23,.08-.36h.41c-.04,.39-.18,.69-.41,.91-.23,.22-.54,.33-.94,.33-.24,0-.45-.04-.63-.12s-.33-.19-.45-.34c-.12-.14-.21-.32-.27-.51-.06-.2-.09-.41-.09-.63s.03-.44,.1-.64c.06-.2,.16-.37,.28-.52s.28-.26,.46-.35c.19-.08,.4-.13,.63-.13,.16,0,.32,.02,.46,.07s.27,.11,.39,.19c.11,.08,.21,.19,.28,.31s.13,.27,.15,.44h-.41c-.05-.22-.15-.38-.31-.49Z"/><path class="f" d="M12.13,37.43v3.11h-.41v-3.11h.41Z"/><path class="f" d="M14.12,37.43l1.22,3.11h-.46l-.34-.93h-1.31l-.35,.93h-.42l1.21-3.11h.45Zm.29,1.82l-.52-1.45h0l-.53,1.45h1.06Z"/><path class="f" d="M16.06,37.43v2.76h1.65v.35h-2.06v-3.11h.41Z"/><path class="f" d="M19.2,39.16v.35h-1.26v-.35h1.26Z"/><path class="f" d="M22.05,37.43v.58h-1.64v.67h1.51v.53h-1.51v.76h1.68v.58h-2.36v-3.11h2.33Zm-1.08-1.05l-.46,.77h.43l.71-.77h-.68Z"/><path class="f" d="M24.53,38.26c-.04-.07-.09-.12-.15-.17-.06-.05-.13-.09-.21-.12s-.16-.04-.24-.04c-.15,0-.29,.03-.39,.09s-.19,.14-.26,.24-.12,.21-.14,.34c-.03,.13-.05,.26-.05,.4s.02,.26,.05,.38,.08,.23,.14,.33,.15,.18,.26,.24c.11,.06,.24,.09,.39,.09,.21,0,.37-.06,.49-.19,.12-.13,.19-.3,.22-.51h.66c-.02,.19-.06,.37-.14,.52-.07,.16-.17,.29-.29,.4-.12,.11-.26,.19-.42,.25s-.34,.09-.53,.09c-.24,0-.45-.04-.64-.12s-.35-.19-.48-.34c-.13-.14-.23-.31-.3-.51-.07-.19-.1-.41-.1-.63s.03-.45,.1-.64,.17-.37,.3-.52c.13-.15,.29-.26,.48-.35s.41-.13,.64-.13c.17,0,.33,.03,.48,.08,.15,.05,.29,.12,.41,.22s.22,.21,.3,.35,.13,.3,.15,.48h-.66c0-.07-.04-.14-.08-.21Z"/><path class="f" d="M25.74,38.36c.07-.2,.17-.37,.3-.52,.13-.15,.29-.26,.48-.35s.41-.13,.64-.13,.46,.04,.64,.13,.35,.2,.48,.35c.13,.15,.23,.32,.3,.52,.07,.2,.1,.41,.1,.64s-.03,.44-.1,.63-.17,.36-.3,.51c-.13,.14-.29,.26-.48,.34-.19,.08-.4,.12-.64,.12s-.45-.04-.64-.12-.35-.19-.48-.34c-.13-.14-.23-.31-.3-.51-.07-.19-.1-.41-.1-.63s.03-.45,.1-.64Zm.63,1.02c.03,.12,.08,.23,.14,.33,.07,.1,.15,.18,.26,.24,.11,.06,.24,.09,.39,.09s.28-.03,.39-.09c.11-.06,.19-.14,.26-.24s.12-.21,.14-.33c.03-.12,.05-.25,.05-.38s-.02-.27-.05-.4-.08-.24-.14-.34c-.07-.1-.15-.18-.26-.24-.11-.06-.24-.09-.39-.09s-.29,.03-.39,.09-.19,.14-.26,.24-.12,.21-.14,.34c-.03,.13-.05,.26-.05,.4s.02,.26,.05,.38Z"/><path class="f" d="M29.84,37.43v2.53h1.51v.58h-2.2v-3.11h.69Z"/><path class="f" d="M31.71,38.36c.07-.2,.17-.37,.3-.52s.29-.26,.48-.35,.41-.13,.64-.13,.46,.04,.64,.13,.35,.2,.48,.35c.13,.15,.23,.32,.3,.52,.07,.2,.1,.41,.1,.64s-.03,.44-.1,.63c-.07,.19-.17,.36-.3,.51-.13,.14-.29,.26-.48,.34-.19,.08-.4,.12-.64,.12s-.45-.04-.64-.12-.35-.19-.48-.34c-.13-.14-.23-.31-.3-.51-.07-.19-.1-.41-.1-.63,0-.23,.03-.45,.1-.64Zm.63,1.02c.03,.12,.08,.23,.14,.33,.07,.1,.15,.18,.26,.24s.24,.09,.39,.09,.28-.03,.39-.09c.11-.06,.19-.14,.26-.24,.07-.1,.12-.21,.14-.33,.03-.12,.05-.25,.05-.38s-.02-.27-.05-.4-.08-.24-.14-.34c-.07-.1-.15-.18-.26-.24s-.24-.09-.39-.09-.29,.03-.39,.09-.19,.14-.26,.24c-.07,.1-.12,.21-.14,.34-.03,.13-.05,.26-.05,.4,0,.13,.02,.26,.05,.38Z"/><path class="f" d="M36.97,40.51c-.15,.06-.3,.09-.45,.09-.24,0-.45-.04-.64-.12s-.35-.19-.48-.34c-.13-.14-.23-.31-.3-.51-.07-.19-.1-.41-.1-.63s.03-.45,.1-.64c.07-.2,.17-.37,.3-.52s.29-.26,.48-.35,.41-.13,.64-.13c.16,0,.31,.03,.47,.07s.28,.12,.41,.21c.12,.09,.22,.21,.3,.34s.13,.29,.14,.47h-.65c-.04-.17-.12-.3-.24-.39s-.26-.13-.42-.13c-.15,0-.29,.03-.39,.09s-.19,.14-.26,.24c-.07,.1-.12,.21-.14,.34-.03,.13-.05,.26-.05,.4s.02,.26,.05,.38,.08,.23,.14,.33c.07,.1,.15,.18,.26,.24s.24,.09,.39,.09c.23,0,.4-.06,.52-.17,.12-.11,.19-.28,.22-.5h-.69v-.51h1.31v1.68h-.44l-.07-.35c-.13,.16-.26,.27-.41,.33Z"/><path class="f" d="M39.12,37.43v3.11h-.69v-3.11h.69Z"/><path class="f" d="M42.04,37.43v.58h-1.64v.67h1.51v.53h-1.51v.76h1.68v.58h-2.36v-3.11h2.33Z"/></g><path class="f" d="M33.13,34.49l.03-2.54c1.1,.58,2.8,.96,3.93,.96,1.37,0,1.95-.42,1.95-1.25s-.66-1.1-2.22-1.48c-1.71-.41-3.83-.91-3.83-3.68,0-2.53,1.81-3.95,4.94-3.95,1.56,0,2.62,.2,3.48,.42l-.21,2.23c-.78-.19-1.88-.38-3.03-.38-1.62,0-2.19,.44-2.19,1.28s.72,1.15,2.15,1.51c2.92,.73,3.92,1.76,3.92,3.72,0,2.52-2.08,3.91-4.98,3.91-1.46,0-2.71-.26-3.92-.76Z"/><path class="e" d="M26.31,22.61c2.19,0,4.31,.18,5.31,1.78,4.57-6.91,4.95-14.84,4.95-14.84-9.97-1.74-16.82-.4-21.53,2.38,.13,.37,.2,.78,.2,1.19,0,.39-.06,.77-.17,1.12,.48,.63,.76,1.41,.76,2.26,0,.49-.1,.96-.28,1.4,.15,.04,.3,.09,.44,.14,.02,0,.03,.02,.05,.02h0c.29,.12,.55,.24,.8,.38,3.81-1.6,6.82-1.77,6.82-1.77-2.01,.78-3.8,1.75-5.41,2.83,.41,.41,.63,.74,.68,.8h0s.03,.05,.04,.07v.02s.02,.04,.02,.06c0,0,0,.02,.01,.03,0,.05,0,.11,0,.16,0,0,0,.02-.01,.02,0,.02,0,.04-.01,.06,0,0,0,.01,0,.02,0,.02-.02,.04-.04,.06h0c-.06,.1-.47,.71-1.25,1.33-.36,.28-.79,.55-1.3,.78-.02,0-.03,.01-.04,.02-.36,.16-.78,.3-1.23,.39,.9,.65,1.57,1.6,1.85,2.71h1.85c.12,0,.23,.05,.32,.13,.08,.08,.13,.2,.13,.32v7.05c1.1-.31,2.13-.69,3.09-1.12v-9.78h3.95Z"/><path class="f" d="M25.42,35.12h-3.07v-12.52h3.95c3.04,0,5.92,.33,5.92,4.32s-3.28,4.92-6.8,4.51v3.68h0Zm0-10.37v4.56c2.73,.16,3.65-.45,3.65-2.36,0-1.66-.85-2.2-2.45-2.2h-1.19Z"/><g><path class="h" d="M19.13,26.14c-.08-.08-.2-.13-.32-.13h-1.85c-.28-1.11-.95-2.06-1.85-2.71,.46-.09,.86-.23,1.23-.39,.01,0,.02,0,.04-.02,.52-.23,.95-.51,1.3-.78,.79-.62,1.19-1.23,1.25-1.32h0s.03-.06,.04-.07c0,0,0,0,0-.02,0-.02,.01-.04,.01-.06,0,0,0-.02,.01-.02,0-.05,0-.11,0-.16,0,0,0-.01-.01-.03,0-.02,0-.04-.01-.06v-.02s-.03-.04-.04-.06h0c-.06-.1-.47-.71-1.25-1.33-.43-.34-.97-.67-1.63-.91h0s-.03-.02-.05-.03c-.14-.05-.29-.1-.44-.14,.17-.44,.28-.91,.28-1.4,0-.85-.29-1.63-.76-2.26,.11-.35,.17-.73,.17-1.12,0-1.71-1.16-3.14-2.73-3.56-.43-1.32-1.67-2.26-3.11-2.26s-2.58,.87-3.06,2.1c-.11-.01-.22-.02-.34-.02-1.81,0-3.29,1.48-3.29,3.32,0,.41,.08,.81,.22,1.18-.85,.62-1.41,1.63-1.41,2.78s.56,2.16,1.41,2.78c-.05,.02-.11,.04-.16,.06,0,0-.02,0-.02,0h-.01c-.61,.23-1.12,.54-1.51,.85-.73,.56-1.1,1.12-1.15,1.21,0,0,0,0,0,.01,0,.02-.02,.04-.03,.06,0,0,0,.02,0,.02-.02,.02-.02,.04-.03,.06v.02c-.01,.05-.01,.11,0,.16v.02s0,.04,.03,.06c0,0,0,.01,0,.02,.01,.02,.02,.04,.03,.06t0,0c.05,.09,.42,.65,1.15,1.21,.33,.26,.74,.52,1.23,.74,.29,.12,.59,.23,.92,.31l-1.56,.4c-.84,.22-1.39,.98-1.39,1.81,0,.15,.02,.31,.06,.47,.1,.4,.32,.73,.61,.96-.47,.35-.76,.91-.76,1.51,0,.15,.02,.31,.06,.47,.13,.48,.42,.86,.8,1.11-.29,.34-.47,.77-.47,1.24,0,.15,.02,.31,.06,.47,.19,.73,.78,1.24,1.48,1.36-.05,.15-.07,.3-.07,.47,0,.13,0,.26,.04,.39,.18,.7,.8,1.16,1.49,1.16,.13,0,.25-.01,.38-.05l3.03-.77c1.04,.77,2.31,1.22,3.7,1.22,1.83,0,3.49-.8,4.64-2.07h3.33c.12,0,.23-.05,.32-.13,.08-.08,.13-.2,.13-.32v-7.54c0-.12-.04-.24-.13-.32Zm-12.08,8.26l-3.15,.8c-.06,.02-.11,.02-.17,.02-.29,0-.55-.19-.63-.49-.02-.06-.02-.11-.02-.17,0-.29,.19-.56,.49-.63l3.14-.8c.07-.01,.11-.02,.16-.02,.29,0,.56,.2,.63,.49,.02,.05,.02,.11,.02,.17,0,.29-.19,.56-.49,.63Zm-.22-2.23l-4.01,1.03c-.08,.02-.17,.03-.25,.03-.43,0-.82-.29-.93-.72-.02-.08-.03-.17-.03-.25,0-.43,.29-.82,.72-.94l.31-.08h0l3.69-.95c.09-.02,.17-.03,.25-.03,.42,0,.81,.29,.92,.72,.02,.08,.03,.16,.03,.25,0,.42-.29,.82-.72,.93Zm.72-3.77c-.04,.39-.31,.74-.72,.85l-.7,.18-3.7,.95c-.08,.02-.16,.03-.25,.03-.42,0-.81-.28-.93-.72-.02-.09-.03-.17-.03-.25,0-.43,.28-.82,.71-.94l.68-.17s.09-.02,.13-.03l3.65-.94c.07-.01,.14-.02,.21-.02,.42,0,.81,.29,.92,.72,.02,.06,.02,.12,.03,.18,0,.02,0,.05,0,.07,0,.03,0,.06,0,.09Zm0-2.79c-.08,.34-.34,.62-.69,.72l-.64,.16s-.06,.02-.09,.02l-3.67,.94c-.07,0-.12,.02-.17,.02-.42,0-.82-.29-.94-.73-.02-.09-.03-.17-.03-.25,0-.43,.29-.83,.72-.94l4.33-1.11c.08-.02,.17-.03,.24-.03,.42,0,.82,.29,.93,.73,0,0,0,.02,0,.03,.02,.07,.02,.15,.02,.22,0,.08,0,.15-.03,.22Zm7.09,8.44c-.97,.97-2.32,1.58-3.79,1.58-1.05,0-2.01-.3-2.83-.82,.25-.28,.41-.65,.41-1.05,0-.13-.01-.26-.05-.38h0c-.01-.05-.03-.09-.04-.14,.24,.07,.49,.11,.75,.11,.94,0,1.78-.47,2.28-1.19,.52,.96,1.53,1.62,2.69,1.62,.34,0,.68-.06,.99-.16-.13,.15-.26,.3-.4,.44Zm-.59-1.17c-1.2,0-2.17-.98-2.17-2.19v-.16h0v-4.43c0-.25-.19-.44-.45-.44s-.44,.2-.44,.44v4.43c0,1.07-.86,1.92-1.91,1.93-.22,0-.43-.04-.62-.11v-5.13c0-.86,.28-1.66,.74-2.31,.12-.16,.25-.32,.4-.46,.15-.15,.32-.29,.49-.42,.63-.46,1.41-.72,2.25-.72,.12,0,.25,0,.37,.02,.13,.02,.26,.04,.41,.05,.76,.15,1.44,.54,1.97,1.07,.71,.71,1.14,1.69,1.14,2.77v3.02c0,.42-.05,.84-.14,1.23-.31,.83-1.1,1.41-2.03,1.41Zm4.32,.68h-2.21c.34-.56,.61-1.17,.77-1.82h0s.02-.08,.02-.11c.1-.45,.16-.91,.16-1.39v-3.02c0-.11,0-.21,0-.31h1.27v6.65h0Z"/><path class="f" d="M13.79,14.22c.03,.19,.03,.38,.03,.58,0,1.09-.35,2.11-.94,2.94,.31-.05,.64-.08,.99-.08,.27,0,.55,.02,.8,.05,.18-.37,.28-.78,.28-1.22,0-.94-.46-1.77-1.16-2.28Zm-8.47-1.66c-.41,.65-.64,1.41-.65,2.24,0,1.15,.46,2.19,1.21,2.95,.75,.76,1.78,1.22,2.92,1.22,1,0,1.9-.36,2.62-.94-.15,0-.3,.02-.46,.02-3.05,0-5.53-2.44-5.64-5.48Zm5.92-.12c0-.35-.06-.67-.17-.98-.26,.73-.66,1.39-1.17,1.96,.14,.01,.29,.02,.43,.02,.25,0,.51-.02,.75-.06,.1-.3,.16-.61,.16-.95Zm-1.96-2.22l-.02,1.34c.44-.07,.82-.35,1.02-.74-.35-.22-.71-.44-1-.59Zm-3.06,2.37c.04,.89,.32,1.72,.79,2.43,.4,.21,.85,.34,1.35,.34,.8,0,1.51-.33,2.04-.86,.05-.05,.1-.11,.16-.16h-.21c-1.62,0-3.08-.66-4.12-1.74Zm5.91-.28v.13c0,.51-.1,.99-.27,1.44-.02,.06-.04,.11-.07,.16-.6,1.3-1.91,2.21-3.42,2.21-.07,0-.13,0-.18,0,.78,.58,1.75,.92,2.79,.92,.48,0,.96-.08,1.39-.21,.37-.62,.59-1.35,.59-2.14,0-.94-.3-1.8-.83-2.49Zm-.89-1.94c.45,.3,.79,.54,.79,.54l.03,.02c.68,.58,1.2,1.32,1.5,2.17v-.04c.3,.11,.56,.26,.8,.44,.02-.13,.02-.25,.02-.39,0-.77-.31-1.46-.81-1.97-.5-.5-1.19-.82-1.95-.82-.13,0-.25,0-.37,.03h0Zm-2.42-1.24c.18,0,.3,.05,.45,.1,.14,.06,.29,.13,.46,.21,.15,.08,.33,.18,.5,.28,.41-.16,.84-.26,1.3-.27-.41-.75-1.2-1.26-2.1-1.26-1.08,0-1.99,.72-2.29,1.71,.43-.28,.88-.53,1.24-.68,.14-.05,.27-.1,.45-.1Zm-1.09,1.45c.11,.35,.34,.63,.65,.81l.03-1.19c-.16,.08-.35,.19-.54,.3-.04,.03-.09,.06-.14,.08Zm1.15,2.64c.27-.25,.52-.52,.73-.82-.18,.04-.36,.07-.55,.07-.94,0-1.75-.58-2.09-1.4-.17,.12-.33,.23-.46,.31-.04,.02-.06,.04-.09,.06,.61,.83,1.47,1.46,2.47,1.78Zm-5.01,.56l.02,.06c.22-1.15,.83-2.17,1.69-2.9l.03-.02s.36-.26,.84-.58c-.01,0-.02,0-.04-.02-.13-.02-.26-.03-.4-.03-1.33,0-2.4,1.08-2.4,2.42,0,.38,.08,.74,.24,1.05l.02,.02Zm-.07,1.03c0-.15,.01-.3,.03-.45-.03,.03-.06,.06-.1,.08-.78,.43-1.3,1.26-1.3,2.22,0,1.26,.91,2.3,2.11,2.5,.07,0,.14,0,.22,0,.74,0,1.4,.14,1.96,.34l.08-.06c-1.76-.79-2.99-2.56-2.99-4.62Z"/><path class="e" d="M8.44,24.47v-4.2c0-.22,.17-.39,.38-.39,.08,0,.16,.03,.22,.07,.1,.07,.17,.19,.17,.32v3.33l-.77,.87Z"/><path class="e" d="M9.83,20.52s1.13-1.93,4.24-1.93c1.86,0,3.21,1.06,3.86,1.93,0,0-1.07,1.97-4.1,1.97,0,0-2.57,.12-4.01-1.97Z"/><path class="e" d="M1.03,21.83s1.15-1.77,3.84-1.77c1.32,0,2.24,.61,2.68,.9v1.7c-.23,.16-1.15,.93-2.73,.93,0,0-2.35,.16-3.8-1.76Z"/></g><g><path class="d" d="M16.08,31.47c.09-.39,.14-.8,.14-1.23v-3.02c0-1.08-.43-2.06-1.14-2.77-.53-.53-1.21-.91-1.97-1.07-.14-.01-.27-.03-.41-.05-.12-.02-.25-.02-.37-.02-.84,0-1.62,.26-2.25,.72-.18,.13-.34,.27-.49,.42-.14,.14-.28,.3-.4,.46-.47,.65-.74,1.44-.74,2.31v5.13c.19,.07,.4,.11,.62,.11,1.05,0,1.91-.86,1.91-1.93v-4.43c0-.25,.19-.44,.44-.44s.45,.2,.45,.44v4.43h0v.16c0,1.21,.97,2.19,2.17,2.19,.92,0,1.72-.59,2.03-1.41Z"/><path class="d" d="M18.36,26.91h-1.27c0,.1,0,.21,0,.31v3.02c0,.48-.05,.95-.16,1.39,0,.03,0,.07-.02,.1h0c-.16,.65-.42,1.27-.77,1.82h2.21v-6.65h0Z"/><path class="d" d="M10.84,35.63c1.47,0,2.82-.6,3.79-1.58,.14-.14,.27-.29,.4-.44-.31,.1-.64,.16-.99,.16-1.16,0-2.17-.65-2.69-1.62-.51,.72-1.34,1.19-2.28,1.19-.26,0-.51-.04-.75-.11,.01,.05,.03,.08,.04,.13h0c.03,.13,.05,.26,.05,.39,0,.39-.15,.77-.41,1.05,.82,.52,1.78,.82,2.83,.82Z"/><path class="d" d="M7.54,28.25c0-.06-.01-.12-.03-.18-.11-.44-.5-.72-.92-.72-.08,0-.14,0-.21,.02l-3.65,.94s-.08,.02-.13,.03l-.68,.17c-.43,.12-.71,.51-.71,.94,0,.08,0,.16,.03,.25,.12,.44,.51,.72,.93,.72,.08,0,.16,0,.25-.03l3.7-.95,.7-.18c.41-.11,.68-.46,.72-.85,0-.03,0-.06,0-.09,0-.02,0-.04,0-.07Z"/><path class="d" d="M7.51,30.99c-.11-.43-.5-.72-.92-.72-.08,0-.17,0-.25,.03l-3.69,.95h0l-.31,.08c-.43,.11-.72,.51-.72,.94,0,.08,.01,.16,.03,.25,.11,.44,.5,.72,.93,.72,.08,0,.16,0,.25-.03l4.01-1.03c.43-.11,.72-.51,.72-.93,0-.08-.02-.16-.03-.25Z"/><path class="d" d="M7.54,25.18s0-.02,0-.03c-.11-.44-.5-.73-.93-.73-.07,0-.16,0-.24,.03l-4.33,1.11c-.43,.11-.72,.51-.72,.94,0,.08,0,.16,.03,.25,.12,.43,.51,.73,.94,.73,.06,0,.11,0,.17-.02l3.67-.94s.06-.01,.09-.02l.64-.16c.35-.09,.61-.38,.69-.72,.02-.07,.02-.14,.02-.22,0-.07,0-.15-.02-.22Z"/><path class="d" d="M6.87,33.11c-.05,0-.1,0-.16,.02l-3.14,.8c-.3,.08-.49,.35-.49,.63,0,.06,0,.11,.02,.17,.08,.3,.34,.49,.63,.49,.05,0,.11,0,.17-.02l3.15-.8c.3-.08,.49-.35,.49-.63,0-.05,0-.11-.02-.17-.07-.29-.34-.49-.63-.49Z"/></g></g><rect class="g" x="62.08" width="1.33" height="47.91"/><g><path class="g" d="M97.62,22.59c0,3.65-2.74,5.92-7.12,5.92h-3.3v4.52h-3.79V16.64h7.09c4.38,0,7.12,2.27,7.12,5.95Zm-3.84,0c0-1.8-1.17-2.86-3.49-2.86h-3.09v5.69h3.09c2.32,0,3.49-1.05,3.49-2.83Z"/><path class="g" d="M111.08,25.84v7.19h-3.42v-1.57c-.68,1.15-1.99,1.76-3.84,1.76-2.95,0-4.7-1.64-4.7-3.81s1.57-3.77,5.41-3.77h2.9c0-1.57-.94-2.48-2.9-2.48-1.33,0-2.72,.44-3.63,1.17l-1.31-2.55c1.38-.98,3.42-1.52,5.43-1.52,3.84,0,6.06,1.78,6.06,5.59Zm-3.65,3.21v-1.29h-2.5c-1.71,0-2.25,.63-2.25,1.47,0,.91,.77,1.52,2.06,1.52,1.22,0,2.27-.56,2.69-1.71Z"/><path class="g" d="M122.2,20.25v3.37c-.3-.02-.54-.05-.82-.05-2.01,0-3.35,1.1-3.35,3.51v5.95h-3.65v-12.59h3.49v1.66c.89-1.22,2.39-1.85,4.33-1.85Z"/><path class="g" d="M132.95,32.42c-.75,.54-1.85,.8-2.97,.8-2.97,0-4.71-1.52-4.71-4.52v-5.17h-1.94v-2.81h1.94v-3.07h3.65v3.07h3.14v2.81h-3.14v5.13c0,1.08,.58,1.66,1.57,1.66,.54,0,1.08-.16,1.47-.47l.98,2.57Z"/><path class="g" d="M134.57,16.64c0-1.15,.91-2.04,2.27-2.04s2.27,.84,2.27,1.97c0,1.22-.91,2.11-2.27,2.11s-2.27-.89-2.27-2.04Zm.44,3.79h3.65v12.59h-3.65v-12.59Z"/><path class="g" d="M147.65,31.41l1.29-2.86c1.38,1.01,3.44,1.71,5.41,1.71,2.25,0,3.16-.75,3.16-1.76,0-3.07-9.53-.96-9.53-7.05,0-2.79,2.25-5.1,6.91-5.1,2.06,0,4.17,.49,5.69,1.45l-1.17,2.88c-1.52-.87-3.09-1.29-4.54-1.29-2.25,0-3.11,.84-3.11,1.87,0,3.02,9.53,.94,9.53,6.95,0,2.74-2.27,5.08-6.95,5.08-2.6,0-5.22-.77-6.67-1.9Z"/><path class="g" d="M162.68,26.73c0-3.79,2.93-6.48,6.93-6.48s6.9,2.69,6.9,6.48-2.9,6.48-6.9,6.48-6.93-2.69-6.93-6.48Zm10.14,0c0-2.18-1.38-3.49-3.21-3.49s-3.23,1.31-3.23,3.49,1.4,3.49,3.23,3.49,3.21-1.31,3.21-3.49Z"/><path class="g" d="M178.02,26.73c0-3.79,2.93-6.48,7.02-6.48,2.65,0,4.73,1.15,5.64,3.21l-2.83,1.52c-.68-1.19-1.69-1.73-2.83-1.73-1.85,0-3.3,1.29-3.3,3.49s1.45,3.49,3.3,3.49c1.15,0,2.15-.51,2.83-1.73l2.83,1.54c-.91,2.01-3,3.18-5.64,3.18-4.1,0-7.02-2.69-7.02-6.48Z"/><path class="g" d="M192.35,16.64c0-1.15,.91-2.04,2.27-2.04s2.27,.84,2.27,1.97c0,1.22-.91,2.11-2.27,2.11s-2.27-.89-2.27-2.04Zm.44,3.79h3.65v12.59h-3.65v-12.59Z"/><path class="g" d="M210.98,25.84v7.19h-3.42v-1.57c-.68,1.15-1.99,1.76-3.84,1.76-2.95,0-4.7-1.64-4.7-3.81s1.57-3.77,5.41-3.77h2.9c0-1.57-.94-2.48-2.9-2.48-1.33,0-2.72,.44-3.63,1.17l-1.31-2.55c1.38-.98,3.42-1.52,5.43-1.52,3.84,0,6.06,1.78,6.06,5.59Zm-3.65,3.21v-1.29h-2.5c-1.71,0-2.25,.63-2.25,1.47,0,.91,.77,1.52,2.06,1.52,1.22,0,2.27-.56,2.69-1.71Z"/><path class="g" d="M214.29,15.66h3.65v17.37h-3.65V15.66Z"/><path class="g" d="M220.89,16.64c0-1.15,.91-2.04,2.27-2.04s2.27,.84,2.27,1.97c0,1.22-.91,2.11-2.27,2.11s-2.27-.89-2.27-2.04Zm.44,3.79h3.65v12.59h-3.65v-12.59Z"/><path class="g" d="M227.16,31.86l1.22-2.62c1.12,.73,2.83,1.22,4.38,1.22,1.69,0,2.32-.44,2.32-1.15,0-2.06-7.61,.05-7.61-4.99,0-2.39,2.15-4.07,5.83-4.07,1.73,0,3.65,.4,4.85,1.1l-1.22,2.6c-1.24-.7-2.48-.94-3.63-.94-1.64,0-2.34,.51-2.34,1.17,0,2.15,7.61,.07,7.61,5.03,0,2.34-2.18,4-5.95,4-2.13,0-4.28-.58-5.45-1.36Z"/><path class="g" d="M248.93,32.42c-.75,.54-1.85,.8-2.97,.8-2.97,0-4.71-1.52-4.71-4.52v-5.17h-1.94v-2.81h1.94v-3.07h3.65v3.07h3.14v2.81h-3.14v5.13c0,1.08,.59,1.66,1.57,1.66,.54,0,1.08-.16,1.47-.47l.98,2.57Z"/><path class="g" d="M262.86,27.76h-9.53c.35,1.57,1.69,2.53,3.6,2.53,1.33,0,2.29-.4,3.16-1.22l1.94,2.11c-1.17,1.33-2.93,2.04-5.2,2.04-4.35,0-7.19-2.74-7.19-6.48s2.88-6.48,6.72-6.48,6.55,2.48,6.55,6.53c0,.28-.05,.68-.07,.98Zm-9.57-2.13h6.2c-.26-1.59-1.45-2.62-3.09-2.62s-2.86,1.01-3.11,2.62Z"/></g></g></g></g></svg>