<?xml version="1.0" encoding="UTF-8" standalone="no"?>
<!-- Created with Inkscape (http://www.inkscape.org/) -->

<svg
   width="300"
   height="50"
   viewBox="0 0 79.374997 13.229167"
   version="1.1"
   id="svg5"
   inkscape:version="1.1.2 (b8e25be833, 2022-02-05)"
   sodipodi:docname="RN.svg"
   xmlns:inkscape="http://www.inkscape.org/namespaces/inkscape"
   xmlns:sodipodi="http://sodipodi.sourceforge.net/DTD/sodipodi-0.dtd"
   xmlns="http://www.w3.org/2000/svg"
   xmlns:svg="http://www.w3.org/2000/svg">
  <sodipodi:namedview
     id="namedview7"
     pagecolor="#ffffff"
     bordercolor="#666666"
     borderopacity="1.0"
     inkscape:pageshadow="2"
     inkscape:pageopacity="0.0"
     inkscape:pagecheckerboard="0"
     inkscape:document-units="px"
     showgrid="false"
     inkscape:zoom="4.3994184"
     inkscape:cx="322.99724"
     inkscape:cy="68.645437"
     inkscape:window-width="3840"
     inkscape:window-height="2066"
     inkscape:window-x="-11"
     inkscape:window-y="-11"
     inkscape:window-maximized="1"
     inkscape:current-layer="layer1"
     units="px"
     width="300px" />
  <defs
     id="defs2">
    <rect
       x="214.73172"
       y="13.501096"
       width="1017.0826"
       height="156.22697"
       id="rect9095" />
  </defs>
  <g
     inkscape:label="Calque 1"
     inkscape:groupmode="layer"
     id="layer1">
    <path
       style="fill:#000000;stroke-width:0.0101167"
       d="m 6.3342547,0.85552973 c -4.0312579,-0.0406303 -2.015629,-0.0203151 0,0 z M 7.0722158,12.737903 c 0.3485471,-0.0353 0.7775018,-0.118123 1.057757,-0.204248 0.8447403,-0.259595 1.5615557,-0.65759 2.1902702,-1.216095 0.116642,-0.103617 0.323735,-0.306607 0.323735,-0.317323 0,-0.0043 -0.07722,-0.0078 -0.17159,-0.0078 -0.151546,0 -0.173705,0.0021 -0.189689,0.01815 -0.157206,0.157634 -0.5423325,0.460955 -0.7819105,0.615825 -0.397467,0.256932 -0.8602296,0.477623 -1.2999985,0.619966 -0.5217143,0.168869 -0.9991882,0.248869 -1.552917,0.26019 -0.3975183,0.0081 -0.6825623,-0.01163 -1.0470806,-0.07259 C 4.6866596,12.281145 3.8053331,11.883976 3.0686549,11.292913 2.0062752,10.440529 1.2948972,9.2512249 1.0493654,7.9170016 0.97227305,7.4980813 0.94113995,6.9303768 0.97277435,6.5203871 1.0262693,5.8270802 1.1863373,5.1958996 1.458829,4.6037753 1.7464314,3.9788153 2.1062666,3.462251 2.5901755,2.979662 3.0072759,2.563699 3.4417789,2.2481963 3.9618835,1.9836331 4.997022,1.4570857 6.1490355,1.2734671 7.2895646,1.4532363 c 0.7913123,0.124726 1.6051245,0.4495345 2.2921579,0.9148457 0.103983,0.070425 0.348034,0.2535679 0.36477,0.273734 0.0091,0.010922 0.0385,0.014473 0.1195415,0.014418 0.12025,-8.1e-5 0.244105,-0.00977 0.244066,-0.019095 C 10.31009,2.633769 10.27253,2.598646 10.22664,2.559086 9.9915125,2.3563914 9.7337735,2.1715095 9.4097385,1.9731073 9.2581415,1.8802866 8.8463415,1.6762195 8.635809,1.5895869 8.1540824,1.3913603 7.6348733,1.2523824 7.1435924,1.190162 6.6541435,1.1281735 6.056617,1.13557 5.5903697,1.2093886 4.5024926,1.3816265 3.5522967,1.8150444 2.7327018,2.5128718 2.5602209,2.659727 2.2335401,2.986855 2.0944214,3.1520256 1.3433859,4.0437035 0.89375455,5.0764049 0.75537635,6.2275092 c -0.05647,0.4697509 -0.050595,1.033234 0.015713,1.5068528 0.1310373,0.9359708 0.48076325,1.8084083 1.03627565,2.585127 0.7782601,1.088165 1.9075031,1.879378 3.1973999,2.240286 0.3352771,0.09381 0.7701326,0.166507 1.1524475,0.192663 0.1883283,0.01289 0.729041,0.0043 0.9150038,-0.01453 z M 5.9144102,11.564671 c -3.7513616,-7.1800576 -1.8756807,-3.5900285 0,0 z m 0.5578214,0.21709 C 5.9153443,11.444112 5.4510309,11.030002 5.1447213,10.597786 4.7445892,10.033182 4.6173844,9.4242729 4.7720786,8.8140069 4.7969271,8.7159809 4.8252171,8.6353723 4.9664471,8.2601807 5.2888097,7.4037914 5.491412,6.5107589 5.5331779,5.7621398 l 0.00762,-0.1365758 0.048457,0.1011672 c 0.2462512,0.5141127 0.4185266,1.086809 0.4885545,1.6241057 0.022434,0.1721339 0.025554,0.6333105 0.00526,0.7786158 -0.031441,0.2252205 -0.087933,0.4356474 -0.1710055,0.6369929 -0.1354118,0.3282028 -0.1905191,0.6612135 -0.173333,1.0474413 0.1154714,0.8297041 0.3668467,1.4333961 0.8876056,2.0533121 -0.00274,0.0027 -0.072085,-0.03571 -0.1541042,-0.08544 z M 6.2039235,10.200108 C 6.147977,10.011652 6.1378752,9.937625 6.1374142,9.7127197 6.136821,9.4208823 6.1627187,9.2761878 6.307654,8.7617479 6.5674565,7.8395943 6.5699664,7.3448832 6.3187673,6.5714777 6.223857,6.2792639 6.1745377,6.0614576 6.1377939,5.7722565 6.0235314,4.8729304 6.1936593,3.6496571 6.5926038,2.5020262 c 0.02105,-0.060555 0.035036,-0.06145 0.035036,-0.00224 0,0.115569 0.057153,0.5853064 0.1125924,0.9253924 0.1506445,0.9241082 0.352708,1.7456643 0.6975664,2.8361873 0.2470355,0.7811838 0.2650959,1.3068463 0.06314,1.8377382 C 7.3990413,8.3669649 7.2707192,8.5669599 6.9079704,9.0232659 6.6180641,9.3879428 6.5038116,9.5519858 6.4100415,9.7381881 6.3526293,9.8521934 6.2879187,10.026008 6.2632168,10.132563 c -0.036782,0.158665 -0.03339,0.1548 -0.059293,0.06755 z m -4.0377582,0.948589 c 0,-0.0087 -0.00455,-0.01296 -0.010117,-0.0095 -0.00556,0.0034 -0.010117,0.01054 -0.010117,0.01577 0,0.0052 0.00455,0.0095 0.010117,0.0095 0.00556,0 0.010117,-0.0071 0.010117,-0.01577 z m 7.8520237,-0.872374 c 0.0037,-0.0039 -0.0016,-0.2803351 -0.01177,-0.6141869 C 9.9962495,9.3282842 9.9848395,8.952701 9.9810595,8.8275065 l -0.0069,-0.2276261 0.051839,0.065759 c 0.02851,0.036167 0.07145,0.090798 0.09541,0.1214006 0.02397,0.030603 0.07391,0.094338 0.110986,0.1416341 0.03707,0.047296 0.161395,0.2066341 0.276266,0.3540855 0.11487,0.147451 0.277664,0.3563321 0.361765,0.4641799 0.0841,0.1078478 0.209933,0.2694625 0.279626,0.3591435 l 0.126729,0.163056 h 0.313363 0.313363 l -0.0027,-0.111284 c -0.0015,-0.06121 -0.0116,-0.3776062 -0.02248,-0.7031117 -0.01088,-0.3255055 -0.02681,-0.8444934 -0.03539,-1.1533062 -0.0086,-0.308813 -0.01827,-0.6126941 -0.02151,-0.6752912 l -0.0059,-0.1138131 -0.315149,1.548e-4 c -0.173333,8.08e-5 -0.320842,0.00377 -0.327798,0.00819 -0.01001,0.00636 -0.01063,0.071109 -0.003,0.3109342 0.0053,0.1665968 0.01443,0.4872803 0.02022,0.7126303 0.0058,0.22535 0.01299,0.4643576 0.01601,0.531128 0.0047,0.1049861 0.0035,0.1193489 -0.0088,0.1062255 -0.0079,-0.00835 -0.08176,-0.1016729 -0.164177,-0.2073927 -0.158572,-0.2034102 -0.469264,-0.6005783 -0.580449,-0.7420082 -0.0365,-0.046432 -0.07547,-0.096727 -0.0866,-0.1117664 -0.01113,-0.015041 -0.119368,-0.1533595 -0.240532,-0.3073772 l -0.2202985,-0.2800319 -0.300712,0.00608 c -0.165392,0.00334 -0.303845,0.00893 -0.307673,0.012421 -0.0038,0.00349 -5.44e-4,0.2703866 0.0073,0.5931101 0.0307,1.2652055 0.0452,1.8254328 0.04988,1.9272357 0.0027,0.05842 0.005,0.133124 0.0052,0.166001 l 2.97e-4,0.05978 0.326162,-0.0071 c 0.17939,-0.0039 0.3291815,-0.0103 0.3328715,-0.01425 z M 9.9578995,6.330046 c 0.0038,-0.00353 0.0029,-0.1747701 -0.0019,-0.3805214 -0.0049,-0.2057514 -0.008,-0.3747832 -0.0069,-0.3756266 0.0011,-8.404e-4 0.1225285,-0.00322 0.2699495,-0.00528 l 0.268038,-0.00375 0.06917,0.1213704 c 0.03804,0.066753 0.08529,0.1509754 0.104992,0.1871594 0.01971,0.036184 0.08353,0.1511487 0.141844,0.2554776 l 0.106018,0.1896883 h 0.387864 c 0.239113,0 0.390185,-0.00375 0.393915,-0.00979 0.0033,-0.00539 -0.123873,-0.2049416 -0.282671,-0.4434571 -0.158797,-0.2385152 -0.288723,-0.4360486 -0.288723,-0.4389631 0,-0.00291 0.02845,-0.02284 0.06323,-0.04428 0.08592,-0.052967 0.217006,-0.1862249 0.268644,-0.2730869 0.09902,-0.1665634 0.138486,-0.3439955 0.130382,-0.5861383 -0.0061,-0.1809631 -0.02834,-0.2804601 -0.0929,-0.4147855 -0.126531,-0.2632591 -0.379113,-0.4278592 -0.748728,-0.4879247 -0.07784,-0.012648 -0.165324,-0.016114 -0.379377,-0.015026 -0.323256,0.00163 -1.1356705,0.021633 -1.1421425,0.028106 -0.0043,0.0043 0.01076,0.9324996 0.02978,1.8355452 0.0052,0.2476068 0.0096,0.536692 0.0097,0.6424118 1.2e-4,0.1057198 0.0031,0.2028553 0.0065,0.2158568 l 0.0063,0.023638 0.34003,-0.00709 c 0.187017,-0.0039 0.343145,-0.00999 0.34695,-0.013521 z m -0.02549,-1.5408957 c -0.0037,-0.1297773 -0.0067,-0.3229843 -0.0067,-0.429349 l -2.3e-5,-0.1933904 0.2908545,-0.00734 c 0.307384,-0.00776 0.369069,-0.00302 0.474496,0.036422 0.07117,0.026626 0.153789,0.1029756 0.188788,0.1744513 0.08249,0.16847 0.04422,0.4216589 -0.0803,0.5312688 -0.10607,0.093368 -0.177579,0.1081595 -0.56617,0.1171147 l -0.2942765,0.00678 z"
       id="path21"
       sodipodi:nodetypes="ccssssscsssssssssssssscssssssssssssssccssssscssssccssscsssssssssssssssssscsscssssssccccsscccssssssssscsscsccscccccccssscssssssssscsssccccccccssssscc" />
    <path
       style="fill:#08315f;fill-opacity:1;stroke-width:0.0105116"
       d="M 6.2051579,10.184861 C 6.1521475,10.00416 6.1453189,9.9381565 6.1509738,9.6611288 6.157298,9.351295 6.1730063,9.2618915 6.3010855,8.8067612 6.461206,8.2377722 6.5106348,7.9243689 6.5020529,7.5325277 6.4946414,7.1941317 6.4590615,7.0058319 6.3123706,6.5286688 6.179358,6.0959991 6.1282957,5.7924008 6.1099401,5.3250891 6.1025766,5.1376241 6.1178921,4.7707836 6.1432934,4.5262066 6.2076511,3.9065345 6.3421583,3.2847588 6.5446458,2.6709071 l 0.069348,-0.2102322 0.019061,0.189209 C 6.7375935,3.6876014 6.9702487,4.7613233 7.3782692,6.089113 7.5786033,6.741043 7.6299439,6.9979706 7.6295233,7.3464848 7.6291309,7.6918264 7.5660275,7.964178 7.4147946,8.2735965 7.3196595,8.4682408 7.1985113,8.6441866 6.8936708,9.0304321 6.7228221,9.2469057 6.5962675,9.4175148 6.5232989,9.5297338 6.4092683,9.7051027 6.308123,9.9360493 6.2566099,10.138669 c -0.01386,0.05452 -0.027066,0.100987 -0.029346,0.103267 -0.00228,0.0023 -0.012228,-0.0234 -0.022106,-0.05708 z"
       id="path2718" />
    <path
       style="fill:#08315f;fill-opacity:1;stroke-width:0.0105116"
       d="M 6.2106612,12.750646 C 5.5775587,12.703692 5.0722316,12.598278 4.5493407,12.40409 3.1502927,11.884517 2.0019968,10.854738 1.3339787,9.5205921 0.75669295,8.3676539 0.58209045,7.0543644 0.83488045,5.7665769 1.0127283,4.8605671 1.4114771,4.0143507 2.0162222,3.2595574 2.2239175,3.0003292 2.6086116,2.618039 2.8812424,2.399943 3.7574355,1.699016 4.805642,1.2798534 5.9531267,1.1715411 c 0.1843814,-0.017404 0.7816597,-0.017469 0.9670685,-1.046e-4 0.5554491,0.052019 1.1052582,0.1844347 1.6339658,0.393524 0.2119557,0.083823 0.6910935,0.3171042 0.8578655,0.4176757 0.152552,0.091996 0.37108,0.2387974 0.514489,0.3456189 0.1833015,0.1365362 0.3707785,0.2966824 0.3599695,0.3074918 -0.0052,0.00519 -0.0779,0.010499 -0.161564,0.01179 -0.121411,0.00187 -0.1564635,-8.359e-4 -0.1736275,-0.01342 -0.01183,-0.00867 -0.08492,-0.06363 -0.16242,-0.1221294 C 8.9859875,1.9059708 8.0071975,1.5197676 6.9937764,1.4091192 6.7813301,1.3859237 6.3055143,1.3774499 6.0845219,1.3929262 4.9191079,1.4745415 3.8348292,1.9071087 2.9468056,2.644701 2.785196,2.778934 2.477923,3.0794588 2.3279787,3.2499377 1.5403033,4.1454836 1.0744613,5.2530064 0.97099805,6.4761107 0.94746505,6.7543088 0.95926465,7.2502946 0.99763065,7.5955971 1.1018576,8.5336594 1.4956652,9.5099888 2.082851,10.286078 c 0.3125671,0.413123 0.7138431,0.813585 1.1211085,1.118834 1.0368034,0.777092 2.2784871,1.161417 3.5594867,1.101728 0.417443,-0.01945 0.6954537,-0.05782 1.0481823,-0.144647 0.8855694,-0.217999 1.711487,-0.656753 2.3962595,-1.272968 l 0.09742,-0.08767 h 0.165191 0.165192 l -0.115448,0.116205 c -0.5981165,0.602039 -1.3774445,1.074024 -2.2545613,1.365435 -0.3638231,0.120876 -0.8451587,0.218985 -1.235115,0.25175 -0.1317875,0.01107 -0.7288622,0.02265 -0.8199055,0.0159 z"
       id="path3609" />
    <path
       style="fill:#08315f;fill-opacity:1;stroke-width:0.0105116"
       d="M 6.4646984,11.768728 C 6.0279301,11.499707 5.668605,11.204143 5.3684186,10.866981 4.8888854,10.328381 4.6599726,9.7086408 4.7238752,9.1219944 4.7496854,8.8850499 4.7789294,8.7846788 4.989441,8.2105265 5.3065213,7.345717 5.4920804,6.519097 5.5387369,5.7635488 l 0.007,-0.1134 0.06319,0.1344232 c 0.2116524,0.4502416 0.3759005,0.9927299 0.4560258,1.5061886 0.02775,0.1778239 0.028114,0.780685 5.625e-4,0.9240561 C 6.0373222,8.3615037 5.9910402,8.5340218 5.949635,8.6467588 5.929463,8.7016818 5.895599,8.7939211 5.874381,8.851735 5.782997,9.1007374 5.7437123,9.3119182 5.7355455,9.5980594 c -0.00448,0.156892 -0.00195,0.223389 0.011766,0.3100928 0.1146601,0.7245438 0.3344254,1.2603668 0.7305982,1.7813178 0.108701,0.142937 0.1082667,0.142307 0.098128,0.142307 -0.00494,0 -0.05504,-0.02837 -0.1113392,-0.06305 z"
       id="path3648" />
    <path
       style="fill:#08315f;fill-opacity:1;stroke-width:0.0105116"
       d="m 9.2708615,6.3223411 c -0.0027,-0.01371 -0.01261,-0.4813946 -0.02194,-1.0392984 -0.0093,-0.5579038 -0.0199,-1.1566898 -0.02348,-1.3306356 l -0.0065,-0.3162649 0.193492,-0.007 c 0.447681,-0.016185 1.2016285,-0.020859 1.2919555,-0.00801 0.299421,0.042596 0.538531,0.1617171 0.683146,0.3403337 0.06482,0.080065 0.130018,0.2107819 0.159614,0.320033 0.031,0.1144317 0.03397,0.4301151 0.0052,0.5528032 -0.02467,0.1052045 -0.06868,0.2116102 -0.11924,0.2882968 -0.05186,0.078658 -0.170011,0.1969133 -0.253063,0.2532824 -0.03613,0.024525 -0.0657,0.047238 -0.0657,0.050475 0,0.00324 0.112524,0.176896 0.250054,0.38591 0.339788,0.5164027 0.31947,0.4832443 0.302079,0.4929774 -0.0081,0.00451 -0.181363,0.00696 -0.385113,0.00544 L 10.910893,6.307925 10.710402,5.9503851 c -0.11027,-0.1966469 -0.205221,-0.3651866 -0.211003,-0.3745326 -0.0094,-0.015178 -0.0396,-0.016402 -0.28286,-0.01146 l -0.2723495,0.00553 0.0067,0.3759237 0.0067,0.3759237 -0.04974,0.00589 c -0.02736,0.00324 -0.180766,0.00897 -0.340913,0.012748 l -0.291177,0.00686 z M 10.518323,5.0088377 c 0.152506,-0.013836 0.217347,-0.03914 0.291627,-0.1138063 0.08596,-0.086404 0.109913,-0.1564814 0.109913,-0.3215225 0,-0.1170562 -0.0022,-0.1309016 -0.03054,-0.192273 -0.03861,-0.083615 -0.119691,-0.1601825 -0.202391,-0.1911246 -0.09512,-0.035588 -0.196179,-0.042806 -0.494829,-0.03534 l -0.2773375,0.00693 0.0062,0.3478095 c 0.0034,0.1912952 0.0089,0.3871808 0.01214,0.4353013 l 0.0059,0.087492 0.2328755,-0.00658 c 0.128082,-0.00362 0.283964,-0.011219 0.346405,-0.016884 z"
       id="path3687" />
    <path
       style="fill:#08315f;fill-opacity:1;stroke-width:0.0105116"
       d="m 9.3648775,10.24978 c -0.0028,-0.02313 -0.0076,-0.153208 -0.0108,-0.2890702 -0.0095,-0.4058532 -0.04621,-1.9225353 -0.0523,-2.1601358 -0.0031,-0.1214091 -0.0016,-0.2271927 0.0034,-0.2350748 0.0072,-0.011315 0.07096,-0.015507 0.303038,-0.019919 l 0.293946,-0.00559 0.2257875,0.2879653 c 0.124184,0.1583805 0.405141,0.5173802 0.624351,0.7977774 0.219209,0.2803971 0.411987,0.524004 0.428396,0.5413482 l 0.02983,0.031535 -0.0061,-0.2838137 c -0.0034,-0.1560974 -0.01332,-0.5245239 -0.02209,-0.8187251 -0.0088,-0.2942019 -0.01314,-0.5437216 -0.0097,-0.5544878 0.0059,-0.018517 0.02318,-0.019576 0.320097,-0.019576 h 0.313884 l 0.0061,0.055186 c 0.0053,0.047825 0.0593,1.7693391 0.07479,2.3835078 0.003,0.1185187 0.0076,0.2356617 0.01016,0.2603187 l 0.0047,0.04483 -0.312124,-0.0028 -0.312124,-0.0028 -0.44716,-0.5745054 C 10.147394,8.8075878 9.9775725,8.592196 9.9726145,8.5971533 c -0.0025,0.0025 0.0027,0.2287309 0.01146,0.502728 0.0088,0.2739971 0.01913,0.650184 0.022949,0.8359705 l 0.0069,0.3377942 -0.1935095,0.0065 c -0.106431,0.0035 -0.251344,0.0076 -0.322028,0.0091 l -0.128519,0.0026 z"
       id="path3726" />
    <path
       style="fill:#9e0d1c;fill-opacity:1;stroke-width:0.0105116"
       d="M 6.1959553,10.130475 C 6.1521874,9.9682681 6.1427459,9.7827681 6.1635627,9.4940475 6.1767306,9.3114133 6.198942,9.1999509 6.2842264,8.8885259 6.4707332,8.2074756 6.5222912,7.8815016 6.5053494,7.4904812 6.491886,7.1797449 6.4614461,7.0183862 6.3349209,6.5870601 6.185383,6.0772831 6.1468085,5.8683245 6.1205768,5.4259554 6.1010388,5.0964684 6.1280198,4.6206092 6.1906644,4.189835 6.263456,3.6892851 6.3826227,3.1868494 6.5545771,2.6554912 L 6.6105911,2.482401 6.6398941,2.7500957 C 6.7496245,3.7525308 6.9561627,4.7030368 7.3456037,5.9978323 7.4853739,6.462533 7.5328473,6.637014 7.5712131,6.8270282 7.6413,7.1741434 7.6428343,7.5038183 7.575765,7.8050029 7.5397981,7.9665161 7.5001609,8.0771191 7.4153701,8.252573 7.3095054,8.4716351 7.2170131,8.6082243 6.8993136,9.0146647 6.5846374,9.4172388 6.4963793,9.5462277 6.3994443,9.7452218 6.3361739,9.8751074 6.2577504,10.088365 6.2419233,10.17357 c -0.00403,0.02168 -0.011008,0.03942 -0.015512,0.03942 -0.0045,0 -0.018209,-0.03713 -0.030455,-0.08251 z"
       id="path3765" />
    <rect
       style="fill:#07305e;fill-opacity:1;stroke-width:0.0557007"
       id="rect3943"
       width="0.38892964"
       height="8.5779753"
       x="15.413764"
       y="2.4137251" />
    <g
       aria-label="Rassemblement National"
       transform="scale(0.26458333)"
       id="text9093"
       style="font-size:74.6667px;font-family:Montserrat;-inkscape-font-specification:Montserrat;white-space:pre">
      <path
         d="M 73.88023,30.112118 V 18.726276 h 4.928443 q 1.528956,0 2.635009,0.504229 1.106055,0.487965 1.707878,1.415098 0.601823,0.927133 0.601823,2.212107 0,1.268708 -0.601823,2.195841 -0.601823,0.910868 -1.707878,1.398833 -1.106053,0.487965 -2.635009,0.487965 h -3.46455 l 1.171115,-1.154851 v 4.32662 z m 7.238143,0 -2.84646,-4.131434 h 2.81393 l 2.87899,4.131434 z m -4.603135,-4.033841 -1.171115,-1.236178 h 3.318161 q 1.219911,0 1.821735,-0.520494 0.601824,-0.536762 0.601824,-1.463895 0,-0.943398 -0.601824,-1.463894 -0.601824,-0.520496 -1.821735,-0.520496 h -3.318161 l 1.171115,-1.252443 z"
         style="fill:#07305e;stroke-width:0.217841"
         id="path7784" />
      <path
         d="m 90.942754,30.112118 v -1.707876 l -0.162656,-0.374105 v -3.057913 q 0,-0.813275 -0.50423,-1.268709 -0.487965,-0.455434 -1.51269,-0.455434 -0.699417,0 -1.382567,0.227717 -0.666884,0.211452 -1.138585,0.585558 L 85.33116,22.288418 q 0.715681,-0.504231 1.724142,-0.780744 1.008459,-0.276513 2.049451,-0.276513 2.000655,0 3.106709,0.943398 1.106054,0.943399 1.106054,2.944054 v 4.993505 z m -2.667541,0.130125 q -1.024726,0 -1.756674,-0.341575 -0.731947,-0.357841 -1.122319,-0.959665 -0.390371,-0.601823 -0.390371,-1.350034 0,-0.780745 0.374108,-1.366302 0.390371,-0.585558 1.219911,-0.910867 0.829539,-0.341576 2.16331,-0.341576 h 2.325965 v 1.48016 H 89.03969 q -0.8946,0 -1.236177,0.292779 -0.325309,0.292778 -0.325309,0.731946 0,0.487965 0.374106,0.780744 0.390373,0.276512 1.057257,0.276512 0.634354,0 1.138584,-0.292779 0.504231,-0.309042 0.731947,-0.8946 l 0.390372,1.171115 q -0.276512,0.845806 -1.008459,1.284974 -0.73195,0.439168 -1.886798,0.439168 z"
         style="fill:#07305e;stroke-width:0.217841"
         id="path7786" />
      <path
         d="m 98.555013,30.242243 q -1.122318,0 -2.16331,-0.260249 -1.024726,-0.276511 -1.626549,-0.68315 l 0.845806,-1.821735 q 0.601822,0.374106 1.415097,0.618088 0.829539,0.227718 1.626549,0.227718 0.878336,0 1.236177,-0.211451 0.374107,-0.211452 0.374107,-0.585558 0,-0.309045 -0.29278,-0.455434 -0.276512,-0.162656 -0.748213,-0.243982 -0.471698,-0.08133 -1.040989,-0.162655 -0.553028,-0.08133 -1.122321,-0.211451 -0.569291,-0.14639 -1.040992,-0.422903 -0.471697,-0.276514 -0.764476,-0.748213 -0.276513,-0.471699 -0.276513,-1.219912 0,-0.82954 0.471698,-1.463894 0.487965,-0.634354 1.398834,-0.992194 0.910866,-0.374107 2.179574,-0.374107 0.894602,0 1.821738,0.195185 0.92713,0.195187 1.54522,0.569293 l -0.84581,1.80547 q -0.63435,-0.374107 -1.28497,-0.504231 -0.634355,-0.146389 -1.236178,-0.146389 -0.845804,0 -1.236178,0.227717 -0.390372,0.227716 -0.390372,0.585557 0,0.32531 0.276515,0.487965 0.292779,0.162655 0.764477,0.260248 0.4717,0.09759 1.024727,0.17892 0.569289,0.06506 1.138579,0.211452 0.5693,0.146389 1.02473,0.422902 0.4717,0.260248 0.76448,0.731947 0.29278,0.455433 0.29278,1.203646 0,0.813276 -0.48797,1.44763 -0.48796,0.618087 -1.41509,0.975929 -0.910873,0.357841 -2.228377,0.357841 z"
         style="fill:#07305e;stroke-width:0.217841"
         id="path7788" />
      <path
         d="m 107.19199,30.242243 q -1.12232,0 -2.16331,-0.260249 -1.02473,-0.276511 -1.62655,-0.68315 l 0.84581,-1.821735 q 0.60182,0.374106 1.41509,0.618088 0.82954,0.227718 1.62655,0.227718 0.87834,0 1.23618,-0.211451 0.37411,-0.211452 0.37411,-0.585558 0,-0.309045 -0.29278,-0.455434 -0.27652,-0.162656 -0.74822,-0.243982 -0.47169,-0.08133 -1.04099,-0.162655 -0.55302,-0.08133 -1.12231,-0.211451 -0.5693,-0.14639 -1.041,-0.422903 -0.47169,-0.276514 -0.76448,-0.748213 -0.27651,-0.471699 -0.27651,-1.219912 0,-0.82954 0.4717,-1.463894 0.48797,-0.634354 1.39883,-0.992194 0.91087,-0.374107 2.17958,-0.374107 0.8946,0 1.82173,0.195185 0.92714,0.195187 1.54523,0.569293 l -0.84581,1.80547 q -0.63435,-0.374107 -1.28497,-0.504231 -0.63436,-0.146389 -1.23618,-0.146389 -0.84581,0 -1.23618,0.227717 -0.39037,0.227716 -0.39037,0.585557 0,0.32531 0.27651,0.487965 0.29278,0.162655 0.76448,0.260248 0.4717,0.09759 1.02473,0.17892 0.56929,0.06506 1.13858,0.211452 0.5693,0.146389 1.02472,0.422902 0.47171,0.260248 0.76449,0.731947 0.29277,0.455433 0.29277,1.203646 0,0.813276 -0.48796,1.44763 -0.48796,0.618087 -1.4151,0.975929 -0.91086,0.357841 -2.22837,0.357841 z"
         style="fill:#07305e;stroke-width:0.217841"
         id="path7790" />
      <path
         d="m 117.22779,30.242243 q -1.49642,0 -2.63501,-0.585557 -1.12231,-0.585558 -1.7404,-1.594019 -0.61809,-1.024726 -0.61809,-2.325965 0,-1.317505 0.60183,-2.325965 0.61808,-1.024726 1.67534,-1.594019 1.05726,-0.585557 2.39102,-0.585557 1.28498,0 2.30971,0.553026 1.04099,0.536761 1.64281,1.561488 0.60182,1.00846 0.60182,2.423558 0,0.14639 -0.0163,0.341575 -0.0163,0.178921 -0.0325,0.341576 h -7.10803 v -1.48016 h 5.77423 l -0.97592,0.439168 q 0,-0.683151 -0.27652,-1.187381 -0.27652,-0.50423 -0.76448,-0.780743 -0.48796,-0.292779 -1.13859,-0.292779 -0.65061,0 -1.15484,0.292779 -0.48797,0.276513 -0.76448,0.797009 -0.27651,0.50423 -0.27651,1.203646 v 0.390372 q 0,0.715681 0.30904,1.268707 0.32531,0.536763 0.8946,0.829542 0.58556,0.276512 1.36631,0.276512 0.69941,0 1.21991,-0.211452 0.53676,-0.21145 0.97593,-0.634353 l 1.35003,1.463895 q -0.60182,0.68315 -1.51269,1.057256 -0.91087,0.357841 -2.09825,0.357841 z"
         style="fill:#07305e;stroke-width:0.217841"
         id="path7792" />
      <path
         d="m 134.35537,21.231161 q 1.04099,0 1.838,0.422902 0.81327,0.406638 1.26871,1.268709 0.47169,0.845805 0.47169,2.179576 v 5.00977 h -2.53741 v -4.619399 q 0,-1.057256 -0.43917,-1.561487 -0.43917,-0.50423 -1.23617,-0.50423 -0.55304,0 -0.99221,0.260248 -0.43916,0.243982 -0.68314,0.748213 -0.24399,0.50423 -0.24399,1.284973 v 4.391682 h -2.53741 v -4.619399 q 0,-1.057256 -0.43917,-1.561487 -0.42291,-0.50423 -1.21991,-0.50423 -0.55303,0 -0.9922,0.260248 -0.43917,0.243982 -0.68315,0.748213 -0.24399,0.50423 -0.24399,1.284973 v 4.391682 h -2.5374 v -8.750834 h 2.42355 v 2.391028 l -0.45543,-0.699416 q 0.45543,-0.894602 1.28497,-1.350036 0.84581,-0.471699 1.91933,-0.471699 1.20365,0 2.09825,0.618089 0.91086,0.601823 1.20365,1.854265 l -0.89461,-0.243982 q 0.43917,-1.024726 1.39883,-1.626549 0.97594,-0.601823 2.22838,-0.601823 z"
         style="fill:#07305e;stroke-width:0.217841"
         id="path7794" />
      <path
         d="m 145.38336,30.242243 q -1.15484,0 -1.98438,-0.487965 -0.82954,-0.487964 -1.26871,-1.480159 -0.43917,-1.008461 -0.43917,-2.537417 0,-1.545222 0.45543,-2.537417 0.47171,-0.992194 1.30125,-1.48016 0.82954,-0.487964 1.93558,-0.487964 1.23618,0 2.21212,0.553026 0.99219,0.553027 1.56148,1.561488 0.58556,1.00846 0.58556,2.391027 0,1.3663 -0.58556,2.374762 -0.56929,1.008461 -1.56148,1.577752 -0.97594,0.553027 -2.21212,0.553027 z m -5.17242,-0.130125 V 18.043125 h 2.53742 v 5.091099 l -0.16266,2.586212 0.0488,2.602479 v 1.789203 z m 4.73326,-1.951858 q 0.63435,0 1.12232,-0.292779 0.50423,-0.292778 0.797,-0.82954 0.30905,-0.553027 0.30905,-1.301239 0,-0.764478 -0.30905,-1.301239 -0.29277,-0.536761 -0.797,-0.829541 -0.48797,-0.292779 -1.12232,-0.292779 -0.63435,0 -1.13859,0.292779 -0.50423,0.29278 -0.797,0.829541 -0.29279,0.536761 -0.29279,1.301239 0,0.748212 0.29279,1.301239 0.29277,0.536762 0.797,0.82954 0.50424,0.292779 1.13859,0.292779 z"
         style="fill:#07305e;stroke-width:0.217841"
         id="path7796" />
      <path
         d="M 151.43413,30.112118 V 18.043125 h 2.53742 v 12.068993 z"
         style="fill:#07305e;stroke-width:0.217841"
         id="path7798" />
      <path
         d="m 160.67294,30.242243 q -1.49642,0 -2.635,-0.585557 -1.12233,-0.585558 -1.74042,-1.594019 -0.61808,-1.024726 -0.61808,-2.325965 0,-1.317505 0.60182,-2.325965 0.61809,-1.024726 1.67534,-1.594019 1.05726,-0.585557 2.39104,-0.585557 1.28497,0 2.3097,0.553026 1.04099,0.536761 1.64281,1.561488 0.60183,1.00846 0.60183,2.423558 0,0.14639 -0.0163,0.341575 -0.0163,0.178921 -0.0325,0.341576 h -7.10801 v -1.48016 h 5.77424 l -0.97592,0.439168 q 0,-0.683151 -0.27652,-1.187381 -0.27652,-0.50423 -0.76448,-0.780743 -0.48796,-0.292779 -1.13858,-0.292779 -0.65062,0 -1.15485,0.292779 -0.48797,0.276513 -0.76449,0.797009 -0.2765,0.50423 -0.2765,1.203646 v 0.390372 q 0,0.715681 0.30904,1.268707 0.32531,0.536763 0.8946,0.829542 0.58556,0.276512 1.3663,0.276512 0.69942,0 1.21991,-0.211452 0.53677,-0.21145 0.97594,-0.634353 l 1.35003,1.463895 q -0.60182,0.68315 -1.51269,1.057256 -0.91087,0.357841 -2.09825,0.357841 z"
         style="fill:#07305e;stroke-width:0.217841"
         id="path7800" />
      <path
         d="m 177.80052,21.231161 q 1.04099,0 1.838,0.422902 0.81327,0.406638 1.26871,1.268709 0.47169,0.845805 0.47169,2.179576 v 5.00977 h -2.53741 v -4.619399 q 0,-1.057256 -0.43917,-1.561487 -0.43917,-0.50423 -1.23618,-0.50423 -0.55303,0 -0.9922,0.260248 -0.43916,0.243982 -0.68314,0.748213 -0.24399,0.50423 -0.24399,1.284973 v 4.391682 h -2.53742 v -4.619399 q 0,-1.057256 -0.43917,-1.561487 -0.4229,-0.50423 -1.21991,-0.50423 -0.55302,0 -0.99219,0.260248 -0.43917,0.243982 -0.68315,0.748213 -0.24399,0.50423 -0.24399,1.284973 v 4.391682 h -2.53741 v -8.750834 h 2.42356 v 2.391028 l -0.45544,-0.699416 q 0.45544,-0.894602 1.28498,-1.350036 0.84581,-0.471699 1.91933,-0.471699 1.20365,0 2.09825,0.618089 0.91086,0.601823 1.20364,1.854265 l -0.8946,-0.243982 q 0.43917,-1.024726 1.39883,-1.626549 0.97593,-0.601823 2.22838,-0.601823 z"
         style="fill:#07305e;stroke-width:0.217841"
         id="path7802" />
      <path
         d="m 188.06403,30.242243 q -1.49642,0 -2.635,-0.585557 -1.12233,-0.585558 -1.74041,-1.594019 -0.61809,-1.024726 -0.61809,-2.325965 0,-1.317505 0.60182,-2.325965 0.61809,-1.024726 1.67535,-1.594019 1.05726,-0.585557 2.39103,-0.585557 1.28497,0 2.30969,0.553026 1.04099,0.536761 1.64282,1.561488 0.60183,1.00846 0.60183,2.423558 0,0.14639 -0.0163,0.341575 -0.0163,0.178921 -0.0325,0.341576 h -7.10801 v -1.48016 h 5.77425 l -0.97593,0.439168 q 0,-0.683151 -0.27651,-1.187381 -0.27652,-0.50423 -0.76449,-0.780743 -0.48795,-0.292779 -1.13858,-0.292779 -0.65061,0 -1.15485,0.292779 -0.48796,0.276513 -0.76448,0.797009 -0.27651,0.50423 -0.27651,1.203646 v 0.390372 q 0,0.715681 0.30905,1.268707 0.3253,0.536763 0.8946,0.829542 0.58556,0.276512 1.3663,0.276512 0.69942,0 1.21991,-0.211452 0.53676,-0.21145 0.97593,-0.634353 l 1.35004,1.463895 q -0.60182,0.68315 -1.51269,1.057256 -0.91087,0.357841 -2.09826,0.357841 z"
         style="fill:#07305e;stroke-width:0.217841"
         id="path7804" />
      <path
         d="m 199.3035,21.231161 q 1.04099,0 1.85426,0.422902 0.82955,0.406638 1.30124,1.268709 0.4717,0.845805 0.4717,2.179576 v 5.00977 h -2.53742 v -4.619399 q 0,-1.057256 -0.47169,-1.561487 -0.45544,-0.50423 -1.30124,-0.50423 -0.60183,0 -1.0898,0.260248 -0.47169,0.243982 -0.7482,0.764478 -0.26026,0.520496 -0.26026,1.33377 v 4.32662 h -2.53741 v -8.750834 h 2.42356 v 2.423559 l -0.45543,-0.731947 q 0.4717,-0.878337 1.35003,-1.350036 0.87834,-0.471699 2.00066,-0.471699 z"
         style="fill:#07305e;stroke-width:0.217841"
         id="path7806" />
      <path
         d="m 208.80254,30.242243 q -1.54523,0 -2.40729,-0.780743 -0.86207,-0.797009 -0.86207,-2.358498 v -7.677311 h 2.53741 v 7.644781 q 0,0.553027 0.29278,0.862072 0.29278,0.292779 0.79701,0.292779 0.60182,0 1.02472,-0.325311 l 0.68315,1.789204 q -0.39037,0.276512 -0.94339,0.422902 -0.53677,0.130125 -1.12232,0.130125 z m -4.61941,-6.733913 v -1.951859 h 6.06703 v 1.951859 z"
         style="fill:#07305e;stroke-width:0.217841"
         id="path7808" />
      <path
         d="M 217.08168,30.112118 V 18.726276 h 2.17957 l 6.71765,8.197806 h -1.05726 v -8.197806 h 2.60248 v 11.385842 h -2.16331 l -6.73391,-8.197806 h 1.05725 v 8.197806 z"
         style="fill:#07305e;stroke-width:0.217841"
         id="path7810" />
      <path
         d="m 235.41289,30.112118 v -1.707876 l -0.16265,-0.374105 v -3.057913 q 0,-0.813275 -0.50423,-1.268709 -0.48796,-0.455434 -1.51269,-0.455434 -0.69942,0 -1.38257,0.227717 -0.66688,0.211452 -1.13858,0.585558 l -0.91087,-1.772938 q 0.71569,-0.504231 1.72414,-0.780744 1.00846,-0.276513 2.04946,-0.276513 2.00065,0 3.10671,0.943398 1.10605,0.943399 1.10605,2.944054 v 4.993505 z m -2.66754,0.130125 q -1.02472,0 -1.75666,-0.341575 -0.73195,-0.357841 -1.12232,-0.959665 -0.39037,-0.601823 -0.39037,-1.350034 0,-0.780745 0.3741,-1.366302 0.39037,-0.585558 1.21991,-0.910867 0.82954,-0.341576 2.16331,-0.341576 h 2.32597 v 1.48016 h -2.04946 q -0.89459,0 -1.23618,0.292779 -0.3253,0.292778 -0.3253,0.731946 0,0.487965 0.3741,0.780744 0.39037,0.276512 1.05726,0.276512 0.63436,0 1.13859,-0.292779 0.50422,-0.309042 0.73194,-0.8946 l 0.39037,1.171115 q -0.27651,0.845806 -1.00846,1.284974 -0.73194,0.439168 -1.8868,0.439168 z"
         style="fill:#07305e;stroke-width:0.217841"
         id="path7812" />
      <path
         d="m 243.6595,30.242243 q -1.54521,0 -2.40728,-0.780743 -0.86207,-0.797009 -0.86207,-2.358498 v -7.677311 h 2.53741 v 7.644781 q 0,0.553027 0.29278,0.862072 0.29278,0.292779 0.79702,0.292779 0.60181,0 1.02473,-0.325311 l 0.68314,1.789204 q -0.39037,0.276512 -0.9434,0.422902 -0.53676,0.130125 -1.12233,0.130125 z m -4.61938,-6.733913 v -1.951859 h 6.06701 v 1.951859 z"
         style="fill:#07305e;stroke-width:0.217841"
         id="path7814" />
      <path
         d="m 247.15658,30.112118 v -8.750834 h 2.53741 v 8.750834 z m 1.26871,-9.970745 q -0.6994,0 -1.13857,-0.406637 -0.43917,-0.406637 -0.43917,-1.00846 0,-0.601824 0.43917,-1.008461 0.43917,-0.406638 1.13857,-0.406638 0.69942,0 1.13859,0.390372 0.43917,0.374106 0.43917,0.97593 0,0.634354 -0.43917,1.057257 -0.4229,0.406637 -1.13859,0.406637 z"
         style="fill:#07305e;stroke-width:0.217841"
         id="path7816" />
      <path
         d="m 256.21647,30.242243 q -1.39883,0 -2.48862,-0.585557 -1.07352,-0.585558 -1.70788,-1.594019 -0.61808,-1.024726 -0.61808,-2.325965 0,-1.317505 0.61808,-2.325965 0.63436,-1.024726 1.70788,-1.594019 1.08979,-0.585557 2.48862,-0.585557 1.38257,0 2.47237,0.585557 1.08977,0.569293 1.70787,1.577753 0.61809,1.008461 0.61809,2.342231 0,1.301239 -0.61809,2.325965 -0.6181,1.008461 -1.70787,1.594019 -1.0898,0.585557 -2.47237,0.585557 z m 0,-2.081983 q 0.63436,0 1.13859,-0.292779 0.50424,-0.292778 0.79701,-0.82954 0.29279,-0.553027 0.29279,-1.301239 0,-0.764478 -0.29279,-1.301239 -0.29277,-0.536761 -0.79701,-0.829541 -0.50423,-0.292779 -1.13859,-0.292779 -0.63435,0 -1.13857,0.292779 -0.50423,0.29278 -0.81329,0.829541 -0.29277,0.536761 -0.29277,1.301239 0,0.748212 0.29277,1.301239 0.30906,0.536762 0.81329,0.82954 0.50422,0.292779 1.13857,0.292779 z"
         style="fill:#07305e;stroke-width:0.217841"
         id="path7818" />
      <path
         d="m 268.02523,21.231161 q 1.041,0 1.85427,0.422902 0.82954,0.406638 1.30122,1.268709 0.47172,0.845805 0.47172,2.179576 v 5.00977 h -2.53742 v -4.619399 q 0,-1.057256 -0.4717,-1.561487 -0.45542,-0.50423 -1.30124,-0.50423 -0.60183,0 -1.0898,0.260248 -0.47169,0.243982 -0.74819,0.764478 -0.26026,0.520496 -0.26026,1.33377 v 4.32662 h -2.53741 v -8.750834 h 2.42355 v 2.423559 l -0.45542,-0.731947 q 0.47169,-0.878337 1.35002,-1.350036 0.87834,-0.471699 2.00066,-0.471699 z"
         style="fill:#07305e;stroke-width:0.217841"
         id="path7820" />
      <path
         d="m 279.31348,30.112118 v -1.707876 l -0.16266,-0.374105 v -3.057913 q 0,-0.813275 -0.50424,-1.268709 -0.48796,-0.455434 -1.51268,-0.455434 -0.69941,0 -1.38256,0.227717 -0.66689,0.211452 -1.13859,0.585558 l -0.91086,-1.772938 q 0.71568,-0.504231 1.72413,-0.780744 1.00847,-0.276513 2.04945,-0.276513 2.00065,0 3.10672,0.943398 1.10605,0.943399 1.10605,2.944054 v 4.993505 z m -2.66755,0.130125 q -1.02473,0 -1.75667,-0.341575 -0.73195,-0.357841 -1.12232,-0.959665 -0.39037,-0.601823 -0.39037,-1.350034 0,-0.780745 0.37412,-1.366302 0.39037,-0.585558 1.21991,-0.910867 0.82954,-0.341576 2.1633,-0.341576 h 2.32597 v 1.48016 h -2.04945 q -0.8946,0 -1.23618,0.292779 -0.3253,0.292778 -0.3253,0.731946 0,0.487965 0.37409,0.780744 0.39037,0.276512 1.05725,0.276512 0.63436,0 1.13859,-0.292779 0.50424,-0.309042 0.73195,-0.8946 l 0.39037,1.171115 q -0.27651,0.845806 -1.00845,1.284974 -0.73195,0.439168 -1.88681,0.439168 z"
         style="fill:#07305e;stroke-width:0.217841"
         id="path7822" />
      <path
         d="M 283.98169,30.112118 V 18.043125 h 2.53742 v 12.068993 z"
         style="fill:#07305e;stroke-width:0.217841"
         id="path7824" />
    </g>
  </g>
</svg>
