<?xml version="1.0" encoding="UTF-8"?><svg xmlns="http://www.w3.org/2000/svg" xmlns:xlink="http://www.w3.org/1999/xlink" viewBox="0 0 405.4 60.1"><defs><style>.d{fill:#2d3f80;}</style></defs><g id="a"/><g id="b"><g id="c"><g><rect class="d" x="73.1" y="6.1" width="1.33" height="47.91"/><g><path class="d" d="M96.24,29.69v-9.18h3.79v9.04c0,3.11,1.36,4.4,3.65,4.4s3.65-1.29,3.65-4.4v-9.04h3.75v9.18c0,4.82-2.76,7.49-7.42,7.49s-7.42-2.67-7.42-7.49Z"/><path class="d" d="M114.83,20.51h7.44c5.36,0,9.04,3.23,9.04,8.19s-3.67,8.19-9.04,8.19h-7.44V20.51Zm7.26,13.27c3.25,0,5.38-1.94,5.38-5.08s-2.13-5.08-5.38-5.08h-3.46v10.16h3.46Z"/><path class="d" d="M134.17,20.51h3.79v16.38h-3.79V20.51Z"/><path class="d" d="M145.24,34.79c0,.61-.09,1.05-.63,2.34l-1.33,3.37h-2.32l1.03-3.72c-.77-.3-1.26-1.03-1.26-1.99,0-1.36,.98-2.25,2.27-2.25s2.25,.91,2.25,2.25Z"/><path class="d" d="M165.4,33.39h-7.61l-1.45,3.51h-3.89l7.3-16.38h3.75l7.33,16.38h-3.98l-1.45-3.51Zm-1.19-2.88l-2.6-6.27-2.6,6.27h5.2Z"/><path class="d" d="M185.16,24.31v10.49c0,4.68-2.53,6.83-7.07,6.83-2.39,0-4.71-.58-6.18-1.73l1.45-2.62c1.08,.87,2.83,1.43,4.45,1.43,2.58,0,3.7-1.17,3.7-3.44v-.54c-.96,1.05-2.34,1.57-3.98,1.57-3.49,0-6.3-2.41-6.3-6.09s2.81-6.09,6.3-6.09c1.76,0,3.21,.59,4.17,1.8v-1.62h3.46Zm-3.6,5.9c0-1.85-1.38-3.09-3.3-3.09s-3.32,1.24-3.32,3.09,1.4,3.09,3.32,3.09,3.3-1.24,3.3-3.09Z"/><path class="d" d="M188.11,20.51c0-1.15,.91-2.04,2.27-2.04s2.27,.84,2.27,1.97c0,1.22-.91,2.11-2.27,2.11s-2.27-.89-2.27-2.04Zm.45,3.79h3.65v12.59h-3.65v-12.59Z"/><path class="d" d="M203.42,24.12v3.37c-.3-.02-.54-.05-.82-.05-2.01,0-3.35,1.1-3.35,3.51v5.95h-3.65v-12.59h3.49v1.66c.89-1.22,2.39-1.85,4.33-1.85Z"/><path class="d" d="M225.17,37.18l-1.97-1.83c-1.5,1.17-3.37,1.83-5.48,1.83-3.6,0-6.25-1.87-6.25-4.49,0-2.06,1.1-3.49,3.6-4.89-1.19-1.24-1.68-2.29-1.68-3.46,0-2.39,2.01-4.03,5.1-4.03,2.83,0,4.7,1.45,4.7,3.77,0,1.69-.98,2.93-3.21,4.14l3,2.79c.35-.73,.63-1.59,.82-2.55l2.93,.91c-.3,1.4-.8,2.67-1.5,3.72l1.92,1.78-1.99,2.32Zm-4.12-3.82l-3.96-3.7c-1.5,.87-2.04,1.62-2.04,2.62,0,1.19,1.12,2.04,2.93,2.04,1.12,0,2.18-.33,3.07-.96Zm-4.33-9.08c0,.63,.26,1.1,1.26,2.08,1.62-.87,2.13-1.47,2.13-2.22,0-.8-.56-1.36-1.62-1.36-1.12,0-1.78,.63-1.78,1.5Z"/><path class="d" d="M236.25,20.51h3.79v16.38h-3.79V20.51Z"/><path class="d" d="M256.54,29.69v7.21h-3.65v-6.65c0-2.04-.94-2.97-2.55-2.97-1.76,0-3.02,1.08-3.02,3.39v6.23h-3.65v-12.59h3.49v1.47c.98-1.08,2.46-1.66,4.17-1.66,2.97,0,5.22,1.73,5.22,5.57Z"/><path class="d" d="M272.82,19.53v17.37h-3.49v-1.45c-.91,1.1-2.25,1.64-3.93,1.64-3.56,0-6.3-2.53-6.3-6.48s2.74-6.48,6.3-6.48c1.54,0,2.86,.49,3.77,1.52v-6.11h3.65Zm-3.58,11.07c0-2.18-1.4-3.49-3.21-3.49s-3.23,1.31-3.23,3.49,1.4,3.49,3.23,3.49,3.21-1.31,3.21-3.49Z"/><path class="d" d="M288.46,31.63h-9.53c.35,1.57,1.69,2.53,3.6,2.53,1.33,0,2.29-.4,3.16-1.22l1.94,2.11c-1.17,1.33-2.93,2.04-5.2,2.04-4.35,0-7.19-2.74-7.19-6.48s2.88-6.48,6.72-6.48,6.55,2.48,6.55,6.53c0,.28-.05,.68-.07,.98Zm-9.57-2.13h6.2c-.26-1.59-1.45-2.62-3.09-2.62s-2.86,1.01-3.11,2.62Zm3.75-6.81h-2.86l3.16-3.37h3.93l-4.24,3.37Z"/><path class="d" d="M304.68,30.6c0,3.96-2.74,6.48-6.27,6.48-1.57,0-2.86-.49-3.79-1.52v5.88h-3.65V24.31h3.49v1.45c.91-1.1,2.27-1.64,3.96-1.64,3.53,0,6.27,2.53,6.27,6.48Zm-3.7,0c0-2.18-1.38-3.49-3.21-3.49s-3.21,1.31-3.21,3.49,1.38,3.49,3.21,3.49,3.21-1.31,3.21-3.49Z"/><path class="d" d="M319.38,31.63h-9.53c.35,1.57,1.69,2.53,3.6,2.53,1.33,0,2.29-.4,3.16-1.22l1.94,2.11c-1.17,1.33-2.93,2.04-5.2,2.04-4.35,0-7.19-2.74-7.19-6.48s2.88-6.48,6.72-6.48,6.55,2.48,6.55,6.53c0,.28-.05,.68-.07,.98Zm-9.57-2.13h6.2c-.26-1.59-1.45-2.62-3.09-2.62s-2.86,1.01-3.11,2.62Z"/><path class="d" d="M334.77,29.69v7.21h-3.65v-6.65c0-2.04-.94-2.97-2.55-2.97-1.76,0-3.02,1.08-3.02,3.39v6.23h-3.65v-12.59h3.49v1.47c.98-1.08,2.46-1.66,4.17-1.66,2.97,0,5.22,1.73,5.22,5.57Z"/><path class="d" d="M351.04,19.53v17.37h-3.49v-1.45c-.91,1.1-2.25,1.64-3.93,1.64-3.56,0-6.3-2.53-6.3-6.48s2.74-6.48,6.3-6.48c1.54,0,2.86,.49,3.77,1.52v-6.11h3.65Zm-3.58,11.07c0-2.18-1.4-3.49-3.21-3.49s-3.23,1.31-3.23,3.49,1.4,3.49,3.23,3.49,3.21-1.31,3.21-3.49Z"/><path class="d" d="M365.56,29.71v7.19h-3.42v-1.57c-.68,1.15-1.99,1.76-3.84,1.76-2.95,0-4.71-1.64-4.71-3.82s1.57-3.77,5.41-3.77h2.9c0-1.57-.94-2.48-2.9-2.48-1.33,0-2.72,.45-3.63,1.17l-1.31-2.55c1.38-.98,3.42-1.52,5.43-1.52,3.84,0,6.06,1.78,6.06,5.59Zm-3.65,3.21v-1.29h-2.5c-1.71,0-2.25,.63-2.25,1.47,0,.91,.77,1.52,2.06,1.52,1.22,0,2.27-.56,2.69-1.71Z"/><path class="d" d="M381.73,29.69v7.21h-3.65v-6.65c0-2.04-.94-2.97-2.55-2.97-1.76,0-3.02,1.08-3.02,3.39v6.23h-3.65v-12.59h3.49v1.47c.98-1.08,2.46-1.66,4.17-1.66,2.97,0,5.22,1.73,5.22,5.57Z"/><path class="d" d="M393.16,36.29c-.75,.54-1.85,.8-2.97,.8-2.97,0-4.71-1.52-4.71-4.52v-5.17h-1.94v-2.81h1.94v-3.07h3.65v3.07h3.14v2.81h-3.14v5.13c0,1.08,.58,1.66,1.57,1.66,.54,0,1.08-.16,1.47-.47l.98,2.57Z"/><path class="d" d="M394,35.73l1.22-2.62c1.12,.73,2.83,1.22,4.38,1.22,1.69,0,2.32-.45,2.32-1.15,0-2.06-7.61,.05-7.61-4.99,0-2.39,2.15-4.07,5.83-4.07,1.73,0,3.65,.4,4.85,1.1l-1.22,2.6c-1.24-.7-2.48-.94-3.63-.94-1.64,0-2.34,.51-2.34,1.17,0,2.15,7.61,.07,7.61,5.03,0,2.34-2.18,4-5.95,4-2.13,0-4.28-.58-5.45-1.36Z"/></g><image transform="scale(.16)" xlink:href="../../../../Logotype_groupe_UDI_Agir_et_indépendants.jpg"/></g></g></g></svg>